<svg width="1040" height="1051" viewBox="0 0 1040 1051" fill="none" xmlns="http://www.w3.org/2000/svg">
<path fill-rule="evenodd" clip-rule="evenodd" d="M795.048 1034.41C790.987 999.215 770.841 933.188 754.519 900.046C754.359 899.72 754.198 899.397 754.038 899.077C753.806 899.342 753.569 899.613 753.326 899.889C723.51 933.778 611.204 1049.45 361.709 1049.45H338.47C-119.475 1049.45 -257.542 767.845 -257.542 538.189V505.381C-257.542 285.294 -126.31 2.32507 367.177 2.32507H413.655C901.675 2.32507 1026.07 214.21 1026.07 370.048V374.149H685.689C676.12 348.176 636.477 253.853 391.784 253.853C149.824 253.853 81.4745 385.085 81.4745 512.216V528.62C81.4745 651.65 156.659 797.919 397.251 797.919C624.625 797.919 677.803 693.402 684.145 659.485C684.208 659.145 684.267 658.811 684.321 658.485H399.985V472.573H1038.37V1034.41H795.048ZM683.127 659.485C676.737 693.006 623.864 796.919 397.251 796.919C277.166 796.919 198.51 760.423 149.869 708.721C101.213 657.002 82.4745 589.944 82.4745 528.62V512.216C82.4745 448.818 99.5162 384.513 146.611 336.057C193.699 287.61 270.981 254.853 391.784 254.853C514.012 254.853 584.887 278.412 626.366 305.102C667.815 331.772 680.01 361.629 684.75 374.495L684.991 375.149H1027.07V370.048C1027.07 291.852 995.854 199.62 903.489 126.961C811.148 54.3223 657.793 1.32507 413.655 1.32507H367.177C120.24 1.32507 -36.23 72.1282 -130.96 170.627C-225.678 269.113 -258.542 395.152 -258.542 505.381V538.189C-258.542 653.203 -223.97 781.283 -131.999 880.619C-40.01 979.973 109.283 1050.45 338.47 1050.45H361.709C610.827 1050.45 723.458 935.276 753.804 900.859C761.804 917.194 770.725 941.423 778.2 966.009C785.883 991.277 792.015 1016.84 794.055 1034.52L794.157 1035.41H1039.37V471.573H398.985V659.485H683.127Z" fill="#D1D1D1"/>
<path fill-rule="evenodd" clip-rule="evenodd" d="M795.048 1034.41C790.987 999.215 770.841 933.188 754.519 900.046C754.359 899.72 754.198 899.397 754.038 899.077C753.806 899.342 753.569 899.613 753.326 899.889C723.51 933.778 611.204 1049.45 361.709 1049.45H338.47C-119.475 1049.45 -257.542 767.845 -257.542 538.189V505.381C-257.542 285.294 -126.31 2.32507 367.177 2.32507H413.655C901.675 2.32507 1026.07 214.21 1026.07 370.048V374.149H685.689C676.12 348.176 636.477 253.853 391.784 253.853C149.824 253.853 81.4745 385.085 81.4745 512.216V528.62C81.4745 651.65 156.659 797.919 397.251 797.919C624.625 797.919 677.803 693.402 684.145 659.485C684.208 659.145 684.267 658.811 684.321 658.485H399.985V472.573H1038.37V1034.41H795.048ZM683.127 659.485C676.737 693.006 623.864 796.919 397.251 796.919C277.166 796.919 198.51 760.423 149.869 708.721C101.213 657.002 82.4745 589.944 82.4745 528.62V512.216C82.4745 448.818 99.5162 384.513 146.611 336.057C193.699 287.61 270.981 254.853 391.784 254.853C514.012 254.853 584.887 278.412 626.366 305.102C667.815 331.772 680.01 361.629 684.75 374.495L684.991 375.149H1027.07V370.048C1027.07 291.852 995.854 199.62 903.489 126.961C811.148 54.3223 657.793 1.32507 413.655 1.32507H367.177C120.24 1.32507 -36.23 72.1282 -130.96 170.627C-225.678 269.113 -258.542 395.152 -258.542 505.381V538.189C-258.542 653.203 -223.97 781.283 -131.999 880.619C-40.01 979.973 109.283 1050.45 338.47 1050.45H361.709C610.827 1050.45 723.458 935.276 753.804 900.859C761.804 917.194 770.725 941.423 778.2 966.009C785.883 991.277 792.015 1016.84 794.055 1034.52L794.157 1035.41H1039.37V471.573H398.985V659.485H683.127Z" fill="#D1D1D1"/>
<path d="M754.519 900.046C770.841 933.188 790.987 999.215 795.048 1034.41H1038.37V472.573H399.985V658.485H684.321C684.267 658.811 684.208 659.145 684.145 659.485C677.803 693.402 624.625 797.919 397.251 797.919C156.659 797.919 81.4745 651.65 81.4745 528.62V512.216C81.4745 385.085 149.824 253.853 391.784 253.853C636.477 253.853 676.12 348.176 685.689 374.149H1026.07V370.048C1026.07 214.21 901.675 2.32507 413.655 2.32507H367.177C-126.31 2.32507 -257.542 285.294 -257.542 505.381V538.189C-257.542 767.845 -119.475 1049.45 338.47 1049.45H361.709C611.204 1049.45 723.51 933.778 753.326 899.889C753.569 899.613 753.806 899.342 754.038 899.077C754.198 899.397 754.359 899.72 754.519 900.046ZM683.127 659.485C676.737 693.006 623.864 796.919 397.251 796.919C277.166 796.919 198.51 760.423 149.869 708.721C101.213 657.002 82.4745 589.944 82.4745 528.62V512.216C82.4745 448.818 99.5162 384.513 146.611 336.057C193.699 287.61 270.981 254.853 391.784 254.853C514.012 254.853 584.887 278.412 626.366 305.102C667.815 331.772 680.01 361.629 684.75 374.495L684.991 375.149H1027.07V370.048C1027.07 291.852 995.854 199.62 903.489 126.961C811.148 54.3223 657.793 1.32507 413.655 1.32507H367.177C120.24 1.32507 -36.23 72.1282 -130.96 170.627C-225.678 269.113 -258.542 395.152 -258.542 505.381V538.189C-258.542 653.203 -223.97 781.283 -131.999 880.619C-40.01 979.973 109.283 1050.45 338.47 1050.45H361.709C610.827 1050.45 723.458 935.276 753.804 900.859C761.804 917.194 770.725 941.423 778.2 966.009C785.883 991.277 792.015 1016.84 794.055 1034.52L794.157 1035.41H1039.37V471.573H398.985V659.485H683.127Z" stroke="#D1D1D1"/>
</svg>
