<svg width="1040" height="1050" viewBox="0 0 1040 1050" fill="none" xmlns="http://www.w3.org/2000/svg">
<path fill-rule="evenodd" clip-rule="evenodd" d="M795.048 1033.41C790.987 998.215 770.841 932.188 754.519 899.046C754.359 898.72 754.198 898.397 754.039 898.077C753.806 898.342 753.569 898.613 753.326 898.889C723.51 932.778 611.204 1048.45 361.71 1048.45H338.471C-119.474 1048.45 -257.542 766.845 -257.542 537.189V504.381C-257.542 284.294 -126.31 1.32507 367.178 1.32507H413.656C901.675 1.32507 1026.07 213.21 1026.07 369.048V373.149H685.689C676.12 347.176 636.477 252.853 391.784 252.853C149.825 252.853 81.4745 384.085 81.4745 511.216V527.62C81.4745 650.65 156.66 796.919 397.252 796.919C624.625 796.919 677.803 692.402 684.145 658.485C684.208 658.145 684.267 657.811 684.322 657.485H399.986V471.573H1038.37V1033.41H795.048ZM683.127 658.485C676.737 692.006 623.864 795.919 397.252 795.919C277.166 795.919 198.51 759.423 149.869 707.721C101.213 656.002 82.4745 588.944 82.4745 527.62V511.216C82.4745 447.818 99.5162 383.513 146.611 335.057C193.699 286.61 270.981 253.853 391.784 253.853C514.012 253.853 584.887 277.412 626.366 304.102C667.815 330.772 680.01 360.629 684.75 373.495L684.991 374.149H1027.07V369.048C1027.07 290.852 995.854 198.62 903.489 125.961C811.148 53.3223 657.793 0.325073 413.656 0.325073H367.178C120.24 0.325073 -36.2299 71.1282 -130.96 169.627C-225.678 268.113 -258.542 394.152 -258.542 504.381V537.189C-258.542 652.203 -223.97 780.283 -131.999 879.619C-40.0099 978.973 109.284 1049.45 338.471 1049.45H361.71C610.827 1049.45 723.458 934.276 753.804 899.859C761.804 916.194 770.725 940.423 778.2 965.009C785.883 990.277 792.015 1015.84 794.055 1033.52L794.157 1034.41H1039.37V470.573H398.986V658.485H683.127Z" fill="#D1D1D1"/>
<path fill-rule="evenodd" clip-rule="evenodd" d="M795.048 1033.41C790.987 998.215 770.841 932.188 754.519 899.046C754.359 898.72 754.198 898.397 754.039 898.077C753.806 898.342 753.569 898.613 753.326 898.889C723.51 932.778 611.204 1048.45 361.71 1048.45H338.471C-119.474 1048.45 -257.542 766.845 -257.542 537.189V504.381C-257.542 284.294 -126.31 1.32507 367.178 1.32507H413.656C901.675 1.32507 1026.07 213.21 1026.07 369.048V373.149H685.689C676.12 347.176 636.477 252.853 391.784 252.853C149.825 252.853 81.4745 384.085 81.4745 511.216V527.62C81.4745 650.65 156.66 796.919 397.252 796.919C624.625 796.919 677.803 692.402 684.145 658.485C684.208 658.145 684.267 657.811 684.322 657.485H399.986V471.573H1038.37V1033.41H795.048ZM683.127 658.485C676.737 692.006 623.864 795.919 397.252 795.919C277.166 795.919 198.51 759.423 149.869 707.721C101.213 656.002 82.4745 588.944 82.4745 527.62V511.216C82.4745 447.818 99.5162 383.513 146.611 335.057C193.699 286.61 270.981 253.853 391.784 253.853C514.012 253.853 584.887 277.412 626.366 304.102C667.815 330.772 680.01 360.629 684.75 373.495L684.991 374.149H1027.07V369.048C1027.07 290.852 995.854 198.62 903.489 125.961C811.148 53.3223 657.793 0.325073 413.656 0.325073H367.178C120.24 0.325073 -36.2299 71.1282 -130.96 169.627C-225.678 268.113 -258.542 394.152 -258.542 504.381V537.189C-258.542 652.203 -223.97 780.283 -131.999 879.619C-40.0099 978.973 109.284 1049.45 338.471 1049.45H361.71C610.827 1049.45 723.458 934.276 753.804 899.859C761.804 916.194 770.725 940.423 778.2 965.009C785.883 990.277 792.015 1015.84 794.055 1033.52L794.157 1034.41H1039.37V470.573H398.986V658.485H683.127Z" fill="#D1D1D1"/>
</svg>
