<svg width="328" height="40" viewBox="0 0 328 40" fill="none" xmlns="http://www.w3.org/2000/svg">
<rect x="0.5" y="0.5" width="327" height="39" rx="5.5" fill="#F7F8F7" stroke="#D1D1D1"/>
<path d="M128.388 19.3184C128.41 17.5542 129.335 15.9247 130.838 15.0007C129.886 13.6404 128.348 12.8089 126.688 12.7569C124.942 12.5736 123.249 13.8018 122.359 13.8018C121.452 13.8018 120.082 12.7751 118.606 12.8055C116.665 12.8682 114.899 13.9451 113.955 15.6422C111.944 19.1242 113.444 24.2416 115.371 27.0562C116.334 28.4344 117.461 29.9739 118.935 29.9193C120.377 29.8595 120.916 28.9996 122.657 28.9996C124.382 28.9996 124.888 29.9193 126.391 29.8846C127.939 29.8595 128.914 28.5003 129.844 27.109C130.537 26.1269 131.07 25.0416 131.423 23.8931C129.585 23.1156 128.39 21.3143 128.388 19.3184Z" fill="#212121"/>
<path d="M125.548 10.9073C126.392 9.89416 126.808 8.59206 126.707 7.27734C125.418 7.41275 124.227 8.02895 123.371 9.00316C122.527 9.96436 122.099 11.2219 122.182 12.4987C123.489 12.5121 124.729 11.9256 125.548 10.9073Z" fill="#212121"/>
<path fill-rule="evenodd" clip-rule="evenodd" d="M142.962 26.5694H147.695L148.831 29.9258H150.87L146.387 17.5078H144.304L139.82 29.9258H141.825L142.962 26.5694ZM147.204 25.0205H143.452L145.303 19.5733H145.355L147.204 25.0205Z" fill="#212121"/>
<path fill-rule="evenodd" clip-rule="evenodd" d="M156.773 30.0182C159.046 30.0182 160.552 28.2106 160.552 25.3972C160.552 22.5915 159.037 20.7751 156.739 20.7751C155.557 20.7369 154.449 21.3519 153.856 22.3757H153.822V20.8698H152.023V32.9186H153.882V28.4342H153.925C154.492 29.4645 155.599 30.0797 156.773 30.0182ZM156.249 22.3593C157.694 22.3593 158.642 23.5644 158.642 25.3974H158.642C158.642 27.247 157.694 28.4433 156.249 28.4433C154.829 28.4433 153.874 27.2217 153.874 25.3974C153.874 23.5898 154.829 22.3593 156.249 22.3593Z" fill="#212121"/>
<path fill-rule="evenodd" clip-rule="evenodd" d="M166.734 30.0182C169.007 30.0182 170.513 28.2106 170.513 25.3972C170.513 22.5915 168.998 20.7751 166.7 20.7751C165.518 20.7369 164.41 21.3519 163.817 22.3757H163.783V20.8698H161.984V32.9186H163.843V28.4342H163.886C164.453 29.4645 165.56 30.0797 166.734 30.0182ZM166.21 22.3593C167.655 22.3593 168.603 23.5644 168.603 25.3974C168.603 27.247 167.655 28.4433 166.21 28.4433C164.79 28.4433 163.835 27.2217 163.835 25.3974C163.835 23.5898 164.79 22.3593 166.21 22.3593Z" fill="#212121"/>
<path d="M177.098 26.4659C177.235 27.6973 178.432 28.5059 180.067 28.5059C181.633 28.5059 182.76 27.6973 182.76 26.5869C182.76 25.6231 182.08 25.0459 180.471 24.6504L178.861 24.2627C176.581 23.7119 175.523 22.6455 175.523 20.9151C175.523 18.7725 177.39 17.3008 180.04 17.3008C182.665 17.3008 184.464 18.7725 184.525 20.9151H182.649C182.536 19.6758 181.512 18.9278 180.015 18.9278C178.518 18.9278 177.493 19.6846 177.493 20.7862C177.493 21.6641 178.148 22.1807 179.748 22.5762L181.116 22.9121C183.664 23.5146 184.722 24.5381 184.722 26.3545C184.722 28.6777 182.872 30.1328 179.929 30.1328C177.175 30.1328 175.315 28.7119 175.195 26.4658L177.098 26.4659Z" fill="#212121"/>
<path d="M188.738 18.7266V20.8692H190.46V22.3409H188.738V27.3321C188.738 28.1075 189.083 28.4688 189.84 28.4688C190.044 28.4652 190.248 28.4509 190.451 28.4258V29.8887C190.111 29.9523 189.765 29.9811 189.419 29.9746C187.586 29.9746 186.871 29.2861 186.871 27.5303V22.3409H185.555V20.8692H186.871V18.7266H188.738Z" fill="#212121"/>
<path fill-rule="evenodd" clip-rule="evenodd" d="M195.747 20.7617C193.131 20.7617 191.453 22.5517 191.453 25.4003C191.453 28.2568 193.114 30.039 195.747 30.039C198.381 30.039 200.042 28.2568 200.042 25.4003C200.042 22.5517 198.372 20.7617 195.747 20.7617ZM195.747 22.2929C197.253 22.2929 198.148 23.4462 198.148 25.4003C198.148 27.3622 197.253 28.5068 195.747 28.5068C194.241 28.5068 193.346 27.3622 193.346 25.4003C193.346 23.455 194.241 22.2929 195.747 22.2929Z" fill="#212121"/>
<path d="M201.578 20.8697H203.351V22.4107H203.394C203.641 21.4187 204.55 20.736 205.571 20.775C205.785 20.7742 205.999 20.7975 206.208 20.8443V22.5826C205.938 22.5 205.656 22.4621 205.373 22.4703C204.827 22.4481 204.298 22.6659 203.926 23.0664C203.553 23.4668 203.375 24.01 203.436 24.5533V29.9234H201.578V20.8697Z" fill="#212121"/>
<path fill-rule="evenodd" clip-rule="evenodd" d="M210.878 30.039C212.926 30.039 214.526 28.9111 214.776 27.2675H213.012C212.673 28.1076 211.823 28.6254 210.921 28.5409C210.245 28.5658 209.59 28.299 209.124 27.8084C208.658 27.3177 208.426 26.6505 208.485 25.9765V25.8642H214.88V25.2275C214.88 22.4824 213.305 20.7617 210.8 20.7617C208.253 20.7617 206.609 22.6035 206.609 25.4433C206.609 28.2743 208.244 30.039 210.878 30.039ZM213.02 24.5654H208.494C208.492 23.9541 208.735 23.3676 209.168 22.9361C209.601 22.5046 210.188 22.2639 210.8 22.2675C211.406 22.2545 211.991 22.4951 212.412 22.9313C212.834 23.3674 213.054 23.9597 213.02 24.5654Z" fill="#212121"/>
<path d="M143.132 8.68307H143.93C144.207 8.71767 144.487 8.63457 144.7 8.45387C144.914 8.27325 145.043 8.01148 145.055 7.73192C145.055 7.18163 144.641 6.82616 143.938 6.82616C143.654 6.78644 143.366 6.86331 143.139 7.03931C142.912 7.21531 142.766 7.47549 142.734 7.76073H141.858C141.889 7.24264 142.133 6.7605 142.533 6.42959C142.933 6.09867 143.452 5.94873 143.967 6.01561C145.142 6.01561 145.969 6.67332 145.969 7.6201C145.974 8.27371 145.523 8.84247 144.885 8.98487V9.05517C145.649 9.08907 146.242 9.73387 146.212 10.4981C146.157 11.0312 145.89 11.5197 145.47 11.8535C145.051 12.1872 144.515 12.3381 143.983 12.272C143.45 12.3447 142.911 12.1977 142.488 11.8648C142.065 11.5319 141.796 11.0416 141.742 10.5064H142.632C142.685 11.0772 143.21 11.4454 143.983 11.4454C144.757 11.4454 145.262 11.0318 145.262 10.4488C145.262 9.85747 144.786 9.49317 143.955 9.49317H143.132V8.68307Z" fill="#212121"/>
<path fill-rule="evenodd" clip-rule="evenodd" d="M148.894 9.51123C147.823 9.57763 147.219 10.0449 147.219 10.8554C147.22 11.2398 147.384 11.6055 147.67 11.8623C147.956 12.119 148.337 12.2428 148.72 12.2031C149.265 12.2283 149.782 11.9582 150.072 11.4961H150.143V12.1289H150.999V9.05223C150.999 8.10106 150.362 7.53906 149.233 7.53906C148.212 7.53906 147.483 8.03515 147.393 8.80863H148.253C148.352 8.49023 148.695 8.3081 149.191 8.3081C149.8 8.3081 150.113 8.57663 150.113 9.05223V9.44093L148.894 9.51123ZM150.113 10.0942V10.4707C150.094 10.7577 149.959 11.0245 149.739 11.2101C149.519 11.3956 149.233 11.484 148.947 11.455C148.464 11.455 148.112 11.2192 148.112 10.8139C148.112 10.417 148.393 10.206 149.014 10.1645L150.113 10.0942Z" fill="#212121"/>
<path d="M153.357 8.37305V12.128H152.469V7.625H155.434V8.373L153.357 8.37305Z" fill="#212121"/>
<path fill-rule="evenodd" clip-rule="evenodd" d="M158.962 12.1992C160.099 12.1992 160.822 11.3022 160.822 9.87152C160.822 8.44042 160.099 7.54732 158.953 7.54735C158.365 7.53288 157.819 7.8492 157.539 8.3662H157.473V7.62203H156.617V13.622H157.506V11.4428H157.576C157.852 11.943 158.392 12.2381 158.962 12.1992ZM158.705 8.3457C159.458 8.3457 159.908 8.92042 159.908 9.87162C159.908 10.8266 159.458 11.4013 158.701 11.4014C157.957 11.4014 157.489 10.814 157.489 9.87552C157.489 8.93262 157.957 8.3457 158.705 8.3457Z" fill="#212121"/>
<path d="M162.006 13.7408V12.9756C162.102 12.9879 162.199 12.9934 162.296 12.9922C162.688 13.0213 163.039 12.7504 163.11 12.3638L163.177 12.1446L161.547 7.625H162.515L163.644 11.2017H163.714L164.839 7.625H165.781L164.103 12.314C163.718 13.4097 163.292 13.7613 162.374 13.7613C162.3 13.7613 162.089 13.753 162.006 13.7408Z" fill="#212121"/>
<path d="M166.469 10.8503H167.354C167.44 11.2473 167.813 11.4543 168.333 11.4543C168.925 11.4543 169.288 11.1936 169.288 10.7883C169.288 10.3543 168.962 10.1472 168.333 10.1472H167.659V9.45685H168.321C168.858 9.45685 169.132 9.25035 169.132 8.87385C169.132 8.54325 168.867 8.29084 168.321 8.29084C167.824 8.29084 167.461 8.50175 167.403 8.85725H166.547C166.68 8.00752 167.469 7.42097 168.321 7.5384C169.392 7.5384 170.004 8.0223 170.004 8.78305C170.014 9.21965 169.718 9.60395 169.293 9.70495V9.77525C169.801 9.84075 170.18 10.2761 170.174 10.7884C170.174 11.6444 169.445 12.2107 168.333 12.2107C167.35 12.2107 166.551 11.76 166.469 10.8503Z" fill="#212121"/>
<path d="M171.453 12.128V7.625H172.334V10.7222H172.404L174.479 7.62501H175.36V12.128H174.479V9.01415H174.413L172.334 12.128H171.453Z" fill="#212121"/>
<path d="M180.218 8.373H178.8V12.1279H177.91V8.373H176.492V7.625H180.218V8.373Z" fill="#212121"/>
<path fill-rule="evenodd" clip-rule="evenodd" d="M183.052 12.2159C183.933 12.311 184.755 11.7624 185.005 10.9131H184.148C183.935 11.2953 183.512 11.511 183.078 11.459C182.742 11.4631 182.421 11.3253 182.192 11.0796C181.964 10.8339 181.85 10.5032 181.879 10.169V10.1192H185.058V9.80913C185.058 8.39514 184.301 7.53914 183.048 7.53914C182.447 7.53401 181.872 7.79032 181.474 8.24168C181.075 8.69303 180.892 9.29503 180.972 9.89163C180.89 10.4867 181.074 11.0877 181.474 11.5353C181.875 11.9828 182.452 12.2317 183.052 12.2159ZM184.152 9.46223H181.879C181.874 9.15153 181.996 8.85243 182.215 8.63273C182.435 8.41301 182.734 8.29145 183.045 8.29568C183.351 8.28887 183.646 8.41165 183.856 8.63373C184.067 8.85593 184.175 9.15673 184.152 9.46223Z" fill="#212121"/>
<path fill-rule="evenodd" clip-rule="evenodd" d="M188.773 7.625H190.804C191.685 7.625 192.201 8.07129 192.201 8.76995C192.204 9.22695 191.887 9.62355 191.44 9.72115V9.79145C191.987 9.82595 192.41 10.2824 192.403 10.8296C192.403 11.6153 191.813 12.128 190.824 12.128H188.773V7.625ZM189.654 8.30714V9.47315H190.535C191.072 9.47315 191.329 9.26655 191.329 8.88575C191.329 8.53465 191.106 8.30713 190.634 8.30713L189.654 8.30714ZM189.654 11.4459V10.1265H190.597C191.196 10.1265 191.515 10.3375 191.515 10.7881C191.515 11.2139 191.233 11.4459 190.708 11.4459H189.654Z" fill="#212121"/>
</svg>
