<svg width="194" height="42" viewBox="0 0 194 42" fill="none" xmlns="http://www.w3.org/2000/svg">
<path d="M186.693 1H7.30657C3.82355 1 1 2.96558 1 5.39024V36.6098C1 39.0344 3.82355 41 7.30657 41H186.693C190.176 41 193 39.0344 193 36.6098V5.39024C193 2.96558 190.176 1 186.693 1Z" fill="#F7F8F7" stroke="#D1D1D1"/>
<path d="M61.3877 20.3184C61.4104 18.5542 62.3353 16.9247 63.8383 16.0007C62.8858 14.6404 61.3477 13.8089 59.6879 13.7569C57.9416 13.5736 56.2487 14.8018 55.3589 14.8018C54.4518 14.8018 53.0817 13.7751 51.6064 13.8055C49.6653 13.8682 47.8994 14.9451 46.955 16.6422C44.9439 20.1242 46.444 25.2416 48.3705 28.0562C49.3344 29.4344 50.4609 30.9739 51.9349 30.9193C53.3773 30.8595 53.916 29.9996 55.6571 29.9996C57.3821 29.9996 57.8875 30.9193 59.3914 30.8846C60.9392 30.8595 61.9143 29.5003 62.8444 28.109C63.5369 27.1269 64.0699 26.0416 64.4234 24.8931C62.5851 24.1156 61.3898 22.3143 61.3877 20.3184Z" fill="#212121"/>
<path d="M58.548 11.9073C59.3919 10.8942 59.8077 9.59206 59.707 8.27734C58.4177 8.41275 57.2268 9.02895 56.3715 10.0032C55.5269 10.9644 55.099 12.2219 55.1821 13.4987C56.4887 13.5121 57.7293 12.9256 58.548 11.9073Z" fill="#212121"/>
<path fill-rule="evenodd" clip-rule="evenodd" d="M75.9619 27.5694H80.6953L81.831 30.9258H83.8701L79.3867 18.5078H77.3037L72.8203 30.9258H74.8251L75.9619 27.5694ZM80.2041 26.0205H76.4521L78.3027 20.5733H78.3545L80.2041 26.0205Z" fill="#212121"/>
<path fill-rule="evenodd" clip-rule="evenodd" d="M89.7734 31.0182C92.0458 31.0182 93.5517 29.2106 93.5517 26.3972C93.5517 23.5915 92.0371 21.7751 89.7392 21.7751C88.5568 21.7369 87.4492 22.3519 86.8564 23.3757H86.8222V21.8698H85.0234V33.9186H86.8818V29.4342H86.9248C87.4924 30.4645 88.5988 31.0797 89.7734 31.0182ZM89.249 23.3593C90.6943 23.3593 91.6416 24.5644 91.6416 26.3974H91.6415C91.6415 28.247 90.6943 29.4433 89.249 29.4433C87.8291 29.4433 86.874 28.2217 86.874 26.3974C86.874 24.5898 87.8291 23.3593 89.249 23.3593Z" fill="#212121"/>
<path fill-rule="evenodd" clip-rule="evenodd" d="M99.7344 31.0182C102.007 31.0182 103.513 29.2106 103.513 26.3972C103.513 23.5915 101.998 21.7751 99.7002 21.7751C98.5178 21.7369 97.4102 22.3519 96.8174 23.3757H96.7832V21.8698H94.9844V33.9186H96.8428V29.4342H96.8858C97.4534 30.4645 98.5598 31.0797 99.7344 31.0182ZM99.21 23.3593C100.655 23.3593 101.603 24.5644 101.603 26.3974C101.603 28.247 100.655 29.4433 99.21 29.4433C97.7901 29.4433 96.835 28.2217 96.835 26.3974C96.835 24.5898 97.7901 23.3593 99.21 23.3593Z" fill="#212121"/>
<path d="M110.098 27.4659C110.235 28.6973 111.432 29.5059 113.067 29.5059C114.633 29.5059 115.76 28.6973 115.76 27.5869C115.76 26.6231 115.08 26.0459 113.471 25.6504L111.861 25.2627C109.581 24.7119 108.523 23.6455 108.523 21.9151C108.523 19.7725 110.39 18.3008 113.04 18.3008C115.665 18.3008 117.464 19.7725 117.525 21.9151H115.649C115.536 20.6758 114.512 19.9278 113.015 19.9278C111.518 19.9278 110.493 20.6846 110.493 21.7862C110.493 22.6641 111.148 23.1807 112.748 23.5762L114.116 23.9121C116.664 24.5146 117.722 25.5381 117.722 27.3545C117.722 29.6777 115.872 31.1328 112.929 31.1328C110.175 31.1328 108.315 29.7119 108.195 27.4658L110.098 27.4659Z" fill="#212121"/>
<path d="M121.738 19.7266V21.8692H123.46V23.3409H121.738V28.3321C121.738 29.1075 122.083 29.4688 122.84 29.4688C123.044 29.4652 123.248 29.4509 123.451 29.4258V30.8887C123.111 30.9523 122.765 30.9811 122.419 30.9746C120.586 30.9746 119.871 30.2861 119.871 28.5303V23.3409H118.555V21.8692H119.871V19.7266H121.738Z" fill="#212121"/>
<path fill-rule="evenodd" clip-rule="evenodd" d="M128.747 21.7617C126.131 21.7617 124.453 23.5517 124.453 26.4003C124.453 29.2568 126.114 31.039 128.747 31.039C131.381 31.039 133.042 29.2568 133.042 26.4003C133.042 23.5517 131.372 21.7617 128.747 21.7617ZM128.747 23.2929C130.253 23.2929 131.148 24.4462 131.148 26.4003C131.148 28.3622 130.253 29.5068 128.747 29.5068C127.241 29.5068 126.346 28.3622 126.346 26.4003C126.346 24.455 127.241 23.2929 128.747 23.2929Z" fill="#212121"/>
<path d="M134.578 21.8697H136.351V23.4107H136.394C136.641 22.4187 137.55 21.736 138.571 21.775C138.785 21.7742 138.999 21.7975 139.208 21.8443V23.5826C138.938 23.5 138.656 23.4621 138.373 23.4703C137.827 23.4481 137.298 23.6659 136.926 24.0664C136.553 24.4668 136.375 25.01 136.436 25.5533V30.9234H134.578V21.8697Z" fill="#212121"/>
<path fill-rule="evenodd" clip-rule="evenodd" d="M143.878 31.039C145.926 31.039 147.526 29.9111 147.776 28.2675H146.012C145.673 29.1076 144.823 29.6254 143.921 29.5409C143.245 29.5658 142.59 29.299 142.124 28.8084C141.658 28.3177 141.426 27.6505 141.485 26.9765V26.8642H147.88V26.2275C147.88 23.4824 146.305 21.7617 143.8 21.7617C141.253 21.7617 139.609 23.6035 139.609 26.4433C139.609 29.2743 141.244 31.039 143.878 31.039ZM146.02 25.5654H141.494C141.492 24.9541 141.735 24.3676 142.168 23.9361C142.601 23.5046 143.188 23.2639 143.8 23.2675C144.406 23.2545 144.991 23.4951 145.412 23.9313C145.834 24.3674 146.054 24.9597 146.02 25.5654Z" fill="#212121"/>
<path d="M76.1318 9.68307H76.9297C77.2074 9.71767 77.4868 9.63457 77.7005 9.45387C77.9142 9.27325 78.0426 9.01148 78.0547 8.73192C78.0547 8.18163 77.6406 7.82616 76.9385 7.82616C76.6542 7.78644 76.3659 7.86331 76.1392 8.03931C75.9124 8.21531 75.7664 8.47549 75.7344 8.76073H74.8584C74.8888 8.24264 75.1332 7.7605 75.533 7.42959C75.9328 7.09867 76.4521 6.94873 76.9668 7.01561C78.1416 7.01561 78.9688 7.67332 78.9688 8.6201C78.9744 9.27371 78.5227 9.84247 77.8848 9.98487V10.0552C78.6488 10.0891 79.2419 10.7339 79.2119 11.4981C79.1571 12.0312 78.8898 12.5197 78.4705 12.8535C78.0512 13.1872 77.5152 13.3381 76.9834 13.272C76.4504 13.3447 75.9107 13.1977 75.4881 12.8648C75.0655 12.5319 74.7963 12.0416 74.7422 11.5064H75.6318C75.6855 12.0772 76.21 12.4454 76.9834 12.4454C77.7568 12.4454 78.2617 12.0318 78.2617 11.4488C78.2617 10.8575 77.7861 10.4932 76.9551 10.4932H76.1318V9.68307Z" fill="#212121"/>
<path fill-rule="evenodd" clip-rule="evenodd" d="M81.8936 10.5112C80.8232 10.5776 80.2188 11.0449 80.2188 11.8554C80.2203 12.2398 80.3842 12.6055 80.6702 12.8623C80.9561 13.119 81.3375 13.2428 81.7197 13.2031C82.265 13.2283 82.7817 12.9582 83.0723 12.4961H83.1426V13.1289H83.999V10.0522C83.999 9.10106 83.3622 8.53906 82.2333 8.53906C81.2118 8.53906 80.4834 9.03515 80.3926 9.80863H81.2528C81.3524 9.49023 81.6952 9.3081 82.1913 9.3081C82.7997 9.3081 83.1133 9.57663 83.1133 10.0522V10.4409L81.8936 10.5112ZM83.1133 11.0942V11.4707C83.0938 11.7577 82.9587 12.0245 82.7389 12.2101C82.5191 12.3956 82.2335 12.484 81.9473 12.455C81.4638 12.455 81.1123 12.2192 81.1123 11.8139C81.1123 11.417 81.3934 11.206 82.0135 11.1645L83.1133 11.0942Z" fill="#212121"/>
<path d="M86.3573 9.37305V13.128H85.4688V8.625H88.4336V9.373L86.3573 9.37305Z" fill="#212121"/>
<path fill-rule="evenodd" clip-rule="evenodd" d="M91.9619 13.1992C93.0986 13.1992 93.8222 12.3022 93.8222 10.8715C93.8222 9.44042 93.0986 8.54732 91.9531 8.54735C91.3653 8.53288 90.8191 8.8492 90.539 9.3662H90.4726V8.62203H89.6172V14.622H90.5058V12.4428H90.5762C90.8516 12.943 91.3922 13.2381 91.9619 13.1992ZM91.7051 9.3457C92.458 9.3457 92.9082 9.92042 92.9082 10.8716C92.9082 11.8266 92.458 12.4013 91.7012 12.4014C90.957 12.4014 90.4893 11.814 90.4893 10.8755C90.4893 9.93262 90.9571 9.3457 91.7051 9.3457Z" fill="#212121"/>
<path d="M95.0059 14.7408V13.9756C95.102 13.9879 95.1989 13.9934 95.2959 13.9922C95.6879 14.0213 96.039 13.7504 96.1103 13.3638L96.1767 13.1446L94.5469 8.625H95.5146L96.6436 12.2017H96.7139L97.8389 8.625H98.7813L97.1026 13.314C96.7178 14.4097 96.292 14.7613 95.3741 14.7613C95.2998 14.7613 95.0889 14.753 95.0059 14.7408Z" fill="#212121"/>
<path d="M99.4688 11.8503H100.354C100.44 12.2473 100.813 12.4543 101.333 12.4543C101.925 12.4543 102.288 12.1936 102.288 11.7883C102.288 11.3543 101.962 11.1472 101.333 11.1472H100.659V10.4568H101.321C101.858 10.4568 102.132 10.2503 102.132 9.87385C102.132 9.54325 101.867 9.29084 101.321 9.29084C100.824 9.29084 100.461 9.50175 100.403 9.85725H99.5468C99.68 9.00752 100.469 8.42097 101.321 8.5384C102.392 8.5384 103.004 9.0223 103.004 9.78305C103.014 10.2196 102.718 10.6039 102.293 10.7049V10.7752C102.801 10.8407 103.18 11.2761 103.174 11.7884C103.174 12.6444 102.445 13.2107 101.333 13.2107C100.35 13.2107 99.5508 12.76 99.4688 11.8503Z" fill="#212121"/>
<path d="M104.453 13.128V8.625H105.334V11.7222H105.404L107.479 8.62501H108.36V13.128H107.479V10.0142H107.413L105.334 13.128H104.453Z" fill="#212121"/>
<path d="M113.218 9.373H111.8V13.1279H110.91V9.373H109.492V8.625H113.218V9.373Z" fill="#212121"/>
<path fill-rule="evenodd" clip-rule="evenodd" d="M116.052 13.2159C116.933 13.311 117.755 12.7624 118.005 11.9131H117.148C116.935 12.2953 116.512 12.511 116.078 12.459C115.742 12.4631 115.421 12.3253 115.192 12.0796C114.964 11.8339 114.85 11.5032 114.879 11.169V11.1192H118.058V10.8091C118.058 9.39514 117.301 8.53914 116.048 8.53914C115.447 8.53401 114.872 8.79032 114.474 9.24168C114.075 9.69303 113.892 10.295 113.972 10.8916C113.89 11.4867 114.074 12.0877 114.474 12.5353C114.875 12.9828 115.452 13.2317 116.052 13.2159ZM117.152 10.4622H114.879C114.874 10.1515 114.996 9.85243 115.215 9.63273C115.435 9.41301 115.734 9.29145 116.045 9.29568C116.351 9.28887 116.646 9.41165 116.856 9.63373C117.067 9.85593 117.175 10.1567 117.152 10.4622Z" fill="#212121"/>
<path fill-rule="evenodd" clip-rule="evenodd" d="M121.773 8.625H123.804C124.685 8.625 125.201 9.07129 125.201 9.76995C125.204 10.227 124.887 10.6236 124.44 10.7212V10.7915C124.987 10.826 125.41 11.2824 125.403 11.8296C125.403 12.6153 124.813 13.128 123.824 13.128H121.773V8.625ZM122.654 9.30714V10.4732H123.535C124.072 10.4732 124.329 10.2666 124.329 9.88575C124.329 9.53465 124.106 9.30713 123.634 9.30713L122.654 9.30714ZM122.654 12.4459V11.1265H123.597C124.196 11.1265 124.515 11.3375 124.515 11.7881C124.515 12.2139 124.233 12.4459 123.708 12.4459H122.654Z" fill="#212121"/>
</svg>
