<svg width="24" height="24" viewBox="0 0 24 24" fill="none" xmlns="http://www.w3.org/2000/svg">
<mask id="mask0_4_1387" style="mask-type:alpha" maskUnits="userSpaceOnUse" x="3" y="3" width="18" height="18">
<path d="M13.5874 11.9864L19.9157 5.64528C20.3287 5.20123 20.3165 4.50926 19.8882 4.08009C19.4599 3.65091 18.7693 3.6387 18.3262 4.05247L11.9978 10.3936L5.66945 4.05247C5.2263 3.6387 4.53573 3.65091 4.10742 4.08009C3.67912 4.50926 3.66693 5.20123 4.07986 5.64528L10.4082 11.9864L4.07986 18.3276C3.86739 18.5379 3.7478 18.8247 3.7478 19.124C3.7478 19.4233 3.86739 19.7101 4.07986 19.9204C4.51897 20.3599 5.23034 20.3599 5.66945 19.9204L11.9978 13.5792L18.3262 19.9204C18.7653 20.3599 19.4766 20.3599 19.9157 19.9204C20.1282 19.7101 20.2478 19.4233 20.2478 19.124C20.2478 18.8247 20.1282 18.5379 19.9157 18.3276L13.5874 11.9864Z" fill="black"/>
</mask>
<g mask="url(#mask0_4_1387)">
<path d="M13.5848 11.9726L19.9115 5.6203C20.3244 5.17547 20.3122 4.48228 19.884 4.05235C19.4558 3.62242 18.7654 3.61019 18.3224 4.02468L11.9957 10.377L5.66895 4.02468C5.22591 3.61019 4.53552 3.62242 4.10733 4.05235C3.67913 4.48228 3.66695 5.17547 4.07978 5.6203L10.4065 11.9726L4.07978 18.325C3.86736 18.5357 3.7478 18.823 3.7478 19.1228C3.7478 19.4226 3.86736 19.7099 4.07978 19.9206C4.51877 20.3608 5.22995 20.3608 5.66895 19.9206L11.9957 13.5683L18.3224 19.9206C18.7614 20.3608 19.4725 20.3608 19.9115 19.9206C20.124 19.7099 20.2435 19.4226 20.2435 19.1228C20.2435 18.823 20.124 18.5357 19.9115 18.325L13.5848 11.9726Z" fill="black"/>
</g>
</svg>
