<svg width="328" height="40" viewBox="0 0 328 40" fill="none" xmlns="http://www.w3.org/2000/svg">
<rect x="0.5" y="0.5" width="327" height="39" rx="5.5" fill="#F7F8F7" stroke="#D1D1D1"/>
<path fill-rule="evenodd" clip-rule="evenodd" d="M121.891 17.0994C122.692 16.3145 122.516 14.98 121.538 14.4303C119.821 13.4646 118.128 15.7301 119.54 17.1036C120.195 17.7402 121.238 17.7384 121.891 17.0994Z" fill="#212121"/>
<path fill-rule="evenodd" clip-rule="evenodd" d="M109.311 8.40118C109.195 8.28804 109 8.32179 109 8.48407V29.5058C109.001 29.5925 109.103 29.6203 109.165 29.5596L115.811 23.0516C118.151 20.7601 118.145 16.9908 115.796 14.7075L109.311 8.40118Z" fill="#212121"/>
<path fill-rule="evenodd" clip-rule="evenodd" d="M121.963 20.7025C121.271 20.0308 120.17 20.0329 119.482 20.7073L109.959 30.0292C109.942 30.0454 109.958 30.0694 109.979 30.0583L121.596 23.5263C122.631 22.9442 122.815 21.53 121.963 20.7025Z" fill="#212121"/>
<path fill-rule="evenodd" clip-rule="evenodd" d="M-nan -nanL128.672 18.4406L125.822 16.8382C124.922 16.3322 123.796 16.4811 123.059 17.2036C122.126 18.1168 122.129 19.6187 123.065 20.5284L123.164 20.6244C123.944 21.3833 125.131 21.5378 126.081 21.0043L128.672 19.547C128.772 19.491 128.855 19.4105 128.912 19.3133C128.97 19.2162 129 19.106 129 18.9938C129 18.8816 128.97 18.7713 128.912 18.6742C128.855 18.5771 128.772 18.4965 128.672 18.4406L-nan -nanZ" fill="#212121"/>
<path fill-rule="evenodd" clip-rule="evenodd" d="M142.672 23.1016C142.175 23.1016 141.772 23.5045 141.772 24.0016C141.772 24.4986 142.175 24.9016 142.672 24.9016H143.815C145.023 24.9016 146.031 26.039 145.271 26.9792C145.207 27.0588 145.14 27.133 145.072 27.2016C144.472 27.8016 143.472 28.5016 141.772 28.5016C139.072 28.5016 137.072 26.4016 137.072 23.7016C137.072 21.0016 139.172 18.9016 141.772 18.9016C142.805 18.9016 143.674 19.2281 144.38 19.6804C144.791 19.9434 145.34 19.9336 145.685 19.5886C146.059 19.2146 146.048 18.5972 145.618 18.2901C144.642 17.5944 143.442 17.1016 141.872 17.1016C138.272 17.1016 135.172 20.1016 135.172 23.7016C135.172 27.3016 138.272 30.3016 141.872 30.3016C143.872 30.3016 145.272 29.7016 146.472 28.4016C147.672 27.2016 148.072 25.5016 148.072 24.2016C148.072 23.5393 147.525 23.1016 146.863 23.1016H142.672ZM152.872 21.8018C150.472 21.8018 148.572 23.6018 148.572 26.1018C148.572 28.5018 150.472 30.4018 152.872 30.4018C155.272 30.4018 157.172 28.6018 157.172 26.1018C157.172 23.5018 155.272 21.8018 152.872 21.8018ZM157.872 26.1018C157.872 23.6018 159.772 21.8018 162.172 21.8018C164.572 21.8018 166.472 23.5018 166.472 26.1018C166.472 28.6018 164.572 30.4018 162.172 30.4018C159.772 30.4018 157.872 28.5018 157.872 26.1018ZM159.772 26.0014C159.772 27.5014 160.872 28.6014 162.172 28.6014C163.472 28.6014 164.572 27.5014 164.572 26.0014C164.572 24.4014 163.472 23.4014 162.172 23.4014C160.872 23.4014 159.772 24.5014 159.772 26.0014ZM150.472 26.0014C150.472 27.5014 151.572 28.6014 152.872 28.6014C154.172 28.6014 155.272 27.5014 155.272 26.0014C155.272 24.4014 154.172 23.4014 152.872 23.4014C151.572 23.4014 150.472 24.5014 150.472 26.0014ZM183.572 21.8018C185.772 21.8018 186.772 23.5018 187.172 24.5018C187.283 24.7794 187.151 25.0947 186.876 25.2107L184.086 26.3854C182.797 26.928 182.374 28.7018 183.772 28.7018C184.407 28.7018 184.881 28.4999 185.27 28.1732C185.653 27.8523 186.201 27.7369 186.607 28.0271C186.985 28.2966 187.098 28.8139 186.774 29.1459C186.172 29.7631 185.158 30.4018 183.772 30.4018C181.372 30.4018 179.572 28.5018 179.572 26.1018C179.572 23.5018 181.372 21.8018 183.572 21.8018ZM183.672 24.9329C182.58 25.3928 181.493 24.4389 182.475 23.7744C182.836 23.5293 183.233 23.4014 183.572 23.4014C183.674 23.4014 183.776 23.4099 183.876 23.4259C184.769 23.5685 184.505 24.5823 183.672 24.9329ZM178.572 29.0515C178.572 29.5761 178.147 30.0015 177.622 30.0015C177.097 30.0015 176.672 29.5761 176.672 29.0515V18.4515C176.672 17.9268 177.097 17.5015 177.622 17.5015C178.147 17.5015 178.572 17.9268 178.572 18.4515V29.0515ZM173.672 22.2067C173.672 22.3893 173.445 22.4871 173.299 22.3767C172.81 22.0057 172.152 21.7017 171.372 21.7017C169.272 21.7017 167.272 23.6017 167.272 26.0017C167.272 28.4017 169.172 30.2017 171.372 30.2017C172.355 30.2017 173.145 29.7182 173.552 29.2267C173.565 29.2109 173.584 29.2017 173.604 29.2017C173.642 29.2017 173.672 29.2319 173.672 29.2692V29.8017C173.672 31.4017 172.772 32.3017 171.372 32.3017C170.688 32.3017 170.12 31.9924 169.74 31.5903C169.404 31.2341 168.873 30.9763 168.424 31.1727C168.01 31.3536 167.82 31.8429 168.078 32.2135C168.711 33.1246 169.81 34.0017 171.472 34.0017C173.672 34.0017 175.472 32.7017 175.472 29.6017V22.9017C175.472 22.4046 175.069 22.0017 174.572 22.0017H173.877C173.764 22.0017 173.672 22.0935 173.672 22.2067ZM169.072 26.0014C169.072 27.5014 170.172 28.6014 171.472 28.6014C172.772 28.6014 173.772 27.5014 173.772 26.0014C173.772 24.5014 172.772 23.4014 171.472 23.4014C170.172 23.4014 169.072 24.5014 169.072 26.0014ZM195.872 17.5015C193.387 17.5015 191.372 19.5162 191.372 22.0015V29.0515C191.372 29.5761 191.797 30.0015 192.322 30.0015C192.847 30.0015 193.272 29.5761 193.272 29.0515V27.6515C193.272 26.3536 194.324 25.3015 195.622 25.3015H195.872C197.972 25.3015 199.972 23.8015 199.972 21.4015C199.972 19.0015 197.972 17.5015 195.872 17.5015ZM193.272 21.3517C193.272 22.5391 194.234 23.5017 195.422 23.5017H195.972C197.272 23.5017 198.072 22.4017 198.172 21.3017C198.172 20.4017 197.372 19.2017 195.972 19.2017H195.422C194.234 19.2017 193.272 20.1642 193.272 21.3517ZM207.472 21.7017C206.409 21.7017 205.346 22.0475 204.677 22.7828C204.315 23.1808 204.569 23.7652 205.067 23.9701C205.527 24.1597 206.036 23.9338 206.459 23.6712C206.782 23.4711 207.16 23.4017 207.572 23.4017C208.572 23.4017 209.472 24.0017 209.572 25.0017C209.572 25.0444 209.524 25.0708 209.487 25.0498C209.139 24.8537 208.405 24.6017 207.672 24.6017C205.872 24.6017 204.072 25.6017 204.072 27.4017C204.072 29.1017 205.572 30.2017 207.172 30.2017C208.454 30.2017 209.055 29.6178 209.551 29.0261C209.564 29.0106 209.584 29.0017 209.604 29.0017C209.641 29.0017 209.672 29.0322 209.672 29.0698V29.5017C209.672 29.7778 209.896 30.0017 210.172 30.0017H210.572C211.069 30.0017 211.472 29.5987 211.472 29.1017V25.2017C211.272 23.0017 209.572 21.7017 207.472 21.7017ZM205.772 27.5017C205.772 28.3017 206.672 28.6017 207.272 28.6017C208.248 28.6017 209.224 27.8398 209.456 26.6878C209.466 26.6377 209.438 26.5881 209.391 26.569C209.368 26.5598 209.345 26.5506 209.323 26.5415C209.323 26.5415 209.323 26.5414 209.323 26.5414C209.323 26.5413 209.323 26.5412 209.323 26.5412C208.887 26.3632 208.491 26.2017 207.772 26.2017C206.872 26.2017 205.772 26.5017 205.772 27.5017ZM218.392 22.0015C218.018 22.0015 217.683 22.231 217.547 22.5796L215.69 27.3545C215.679 27.3828 215.652 27.4015 215.621 27.4015C215.591 27.4015 215.564 27.3833 215.553 27.3556L213.603 22.5684C213.463 22.2256 213.13 22.0015 212.76 22.0015C212.104 22.0015 211.664 22.6732 211.925 23.2745L214.264 28.6611C214.524 29.2599 214.518 29.9407 214.249 30.5355L213.322 32.5858C213.064 33.1556 213.481 33.8015 214.106 33.8015C214.45 33.8015 214.76 33.5974 214.896 33.2821L219.224 23.268C219.483 22.6693 219.044 22.0015 218.392 22.0015ZM202.872 29.0515C202.872 29.5761 202.447 30.0015 201.922 30.0015C201.397 30.0015 200.972 29.5761 200.972 29.0515V18.4515C200.972 17.9268 201.397 17.5015 201.922 17.5015C202.447 17.5015 202.872 17.9268 202.872 18.4515V29.0515Z" fill="#212121"/>
<path opacity="0.2" fill-rule="evenodd" clip-rule="evenodd" d="M124.733 22.2266L111.393 29.4804C110.681 29.908 110.056 29.8395 109.599 29.5148C109.572 29.4955 109.535 29.4974 109.511 29.5204C109.484 29.5469 109.484 29.5908 109.511 29.6173L109.553 29.6573C110.013 30.0112 110.657 30.0996 111.393 29.6573L124.733 22.2266Z" fill="white"/>
<path opacity="0.12" fill-rule="evenodd" clip-rule="evenodd" d="M109.488 29.4806C109.471 29.4806 109.455 29.4741 109.443 29.462C109.182 29.1949 109.094 28.7607 109.094 28.2422V28.3306C109.094 28.8329 109.259 29.256 109.51 29.5249C109.526 29.5419 109.554 29.5303 109.554 29.507C109.554 29.4924 109.542 29.4806 109.527 29.4806H109.488Z" fill="white"/>
<path opacity="0.12" fill-rule="evenodd" clip-rule="evenodd" d="M129.334 19.7516L124.808 22.1891C124.771 22.2085 124.765 22.2576 124.794 22.2861C124.813 22.3044 124.842 22.3083 124.865 22.2955L129.334 19.8401C129.978 19.4862 130.254 19.0439 130.254 18.6016C130.254 19.0439 129.886 19.3978 129.334 19.7516Z" fill="white"/>
<path opacity="0.25" fill-rule="evenodd" clip-rule="evenodd" d="M111.394 7.6325L129.334 17.4518C129.886 17.8056 130.254 18.1595 130.254 18.6018C130.254 18.1595 129.978 17.7172 129.334 17.3633L111.394 7.54404C110.106 6.83635 109.094 7.45558 109.094 8.87096V8.95946C109.094 7.54404 110.106 6.92481 111.394 7.6325Z" fill="white"/>
<path fill-rule="evenodd" clip-rule="evenodd" d="M135.57 12.7016C135.57 13.0882 135.884 13.4016 136.27 13.4016C136.326 13.4016 136.37 13.3568 136.37 13.3016V12.7516C136.37 12.3926 136.661 12.1016 137.02 12.1016H140.32C140.679 12.1016 140.97 12.3926 140.97 12.7516V13.0516C140.97 13.2449 141.127 13.4016 141.32 13.4016C141.514 13.4016 141.67 13.2449 141.67 13.0516V11.7516C141.67 11.5583 141.514 11.4016 141.32 11.4016C141.127 11.4016 140.97 11.2449 140.97 11.0516V8.10156C140.97 6.99699 140.075 6.10156 138.97 6.10156C137.866 6.10156 136.97 6.99699 136.97 8.10156V9.10157C136.97 10.1136 136.716 10.8716 136.286 11.2979C136.215 11.3689 136.115 11.4016 136.015 11.4016C135.769 11.4016 135.57 11.6004 135.57 11.8458V12.7016ZM138.641 11.4014C137.969 11.4014 137.504 10.6019 137.608 9.93874C137.647 9.68763 137.668 9.42425 137.67 9.15144C137.67 9.12383 137.648 9.10137 137.62 9.10137C137.593 9.10137 137.57 9.07899 137.57 9.05137V8.00137C137.57 7.39385 138.063 6.90136 138.67 6.90136H138.82C139.511 6.90136 140.07 7.46101 140.07 8.15136V10.3555C140.07 10.9331 139.602 11.4014 139.024 11.4014H138.641Z" fill="#212121"/>
<path fill-rule="evenodd" clip-rule="evenodd" d="M145.373 12.2C146.273 12.2 146.973 11.9 147.573 11.3C148.173 10.7 148.473 10 148.473 9.10001C148.473 8.20001 148.173 7.5 147.573 6.9C146.973 6.3 146.273 6 145.373 6C144.473 6 143.773 6.3 143.173 6.9C142.573 7.5 142.273 8.20001 142.273 9.10001C142.273 10 142.573 10.7 143.173 11.3C143.773 11.9 144.473 12.2 145.373 12.2ZM145.373 11.5002C144.773 11.5002 144.173 11.2002 143.773 10.8002C143.273 10.4002 143.073 9.80021 143.073 9.10021C143.073 8.40021 143.373 7.8002 143.773 7.4002C144.173 6.9002 144.773 6.7002 145.373 6.7002C145.973 6.7002 146.573 7.0002 146.973 7.4002C147.473 7.8002 147.673 8.40021 147.673 9.10021C147.673 9.80021 147.373 10.4002 146.973 10.8002C146.573 11.3002 145.973 11.5002 145.373 11.5002Z" fill="#212121"/>
<path fill-rule="evenodd" clip-rule="evenodd" d="M152.373 12.2C151.473 12.2 150.773 11.9 150.173 11.3C149.573 10.7 149.273 10 149.273 9.10001C149.273 8.20001 149.573 7.5 150.173 6.9C150.773 6.3 151.473 6 152.373 6C153.166 6 153.804 6.23267 154.354 6.76631C154.484 6.89215 154.475 7.09874 154.347 7.2266C154.201 7.37245 153.962 7.35661 153.806 7.22128C153.426 6.89065 152.931 6.7 152.373 6.7C151.673 6.7 151.173 6.9 150.673 7.4C150.173 7.8 149.973 8.40001 149.973 9.10001C149.973 9.80001 150.173 10.4 150.673 10.8C151.073 11.2 151.673 11.5 152.373 11.5C152.959 11.5 153.475 11.2899 153.921 10.8696C154.065 10.7335 154.294 10.721 154.435 10.8613C154.567 10.9932 154.568 11.2081 154.433 11.3368C154.207 11.5521 153.967 11.753 153.673 11.9C153.273 12.1 152.873 12.2 152.373 12.2Z" fill="#212121"/>
<path fill-rule="evenodd" clip-rule="evenodd" d="M157.875 12.1016C157.433 12.1016 157.075 11.7434 157.075 11.3016V7.65156C157.075 7.18212 156.694 6.80156 156.225 6.80156H155.725C155.532 6.80156 155.375 6.64486 155.375 6.45156C155.375 6.25826 155.532 6.10156 155.725 6.10156H159.125C159.318 6.10156 159.475 6.25826 159.475 6.45156C159.475 6.64486 159.318 6.80156 159.125 6.80156H158.625C158.156 6.80156 157.775 7.18212 157.775 7.65156V12.0016C157.775 12.0568 157.82 12.1016 157.875 12.1016Z" fill="#212121"/>
<path fill-rule="evenodd" clip-rule="evenodd" d="M164.769 6.18386C164.769 6.1648 164.743 6.15921 164.735 6.17659L162.469 11.2016C162.169 11.9016 161.669 12.3016 161.069 12.3016C160.944 12.3016 160.819 12.3016 160.695 12.2773C160.559 12.2509 160.496 12.1051 160.534 11.9719L160.553 11.9077C160.605 11.7255 160.879 11.6016 161.069 11.6016C161.269 11.6016 161.369 11.6016 161.469 11.5016C161.569 11.4016 161.669 11.3016 161.769 11.1016C161.897 10.7822 161.888 10.4245 161.746 10.1113L160.231 6.77867C160.108 6.50841 160.306 6.20156 160.603 6.20156C160.764 6.20156 160.911 6.29703 160.976 6.44499L161.214 6.9847C161.648 7.96768 163.049 7.95026 163.458 6.95679L163.616 6.57244C163.708 6.34803 163.927 6.20156 164.17 6.20156H164.751C164.761 6.20156 164.769 6.19364 164.769 6.18386Z" fill="#212121"/>
<path fill-rule="evenodd" clip-rule="evenodd" d="M166.022 12.1016C165.829 12.1016 165.672 11.9449 165.672 11.7516V8.25156C165.672 7.06415 166.634 6.10156 167.822 6.10156C169.009 6.10156 169.972 7.06415 169.972 8.25156V11.7016C169.972 11.9225 169.793 12.1016 169.572 12.1016C169.351 12.1016 169.172 11.9225 169.172 11.7016V8.20157C169.172 7.42837 168.545 6.80156 167.772 6.80156C166.999 6.80156 166.372 7.42836 166.372 8.20156V11.7516C166.372 11.9449 166.215 12.1016 166.022 12.1016Z" fill="#212121"/>
<path fill-rule="evenodd" clip-rule="evenodd" d="M171.775 12.1016C171.554 12.1016 171.375 11.9225 171.375 11.7016V6.50156C171.375 6.28065 171.554 6.10156 171.775 6.10156C171.996 6.10156 172.175 6.28065 172.175 6.50156V7.40157C172.175 8.11954 172.757 8.70157 173.475 8.70157H173.875C174.593 8.70157 175.175 8.11954 175.175 7.40157V6.50156C175.175 6.28065 175.354 6.10156 175.575 6.10156C175.796 6.10156 175.975 6.28065 175.975 6.50156V11.7016C175.975 11.9225 175.796 12.1016 175.575 12.1016C175.354 12.1016 175.175 11.9225 175.175 11.7016V10.7516C175.175 10.006 174.571 9.40157 173.825 9.40157H173.525C172.779 9.40157 172.175 10.006 172.175 10.7516V11.7016C172.175 11.9225 171.996 12.1016 171.775 12.1016Z" fill="#212121"/>
<path fill-rule="evenodd" clip-rule="evenodd" d="M180.069 12.2C180.969 12.2 181.669 11.9 182.269 11.3C182.769 10.7 183.069 10 183.169 9.10001C183.169 8.20001 182.869 7.5 182.269 6.9C181.669 6.3 180.969 6 180.069 6C179.169 6 178.469 6.3 177.869 6.9C177.269 7.5 176.969 8.20001 176.969 9.10001C176.969 10 177.269 10.7 177.869 11.3C178.469 11.9 179.169 12.2 180.069 12.2ZM179.969 11.5002C179.369 11.5002 178.769 11.2002 178.369 10.8002C177.969 10.4002 177.669 9.80021 177.669 9.10021C177.669 8.40021 177.969 7.8002 178.369 7.4002C178.769 6.9002 179.369 6.7002 179.969 6.7002C180.569 6.7002 181.169 7.0002 181.569 7.4002C182.069 7.8002 182.269 8.40021 182.269 9.10021C182.269 9.80021 181.969 10.4002 181.569 10.8002C181.169 11.3002 180.569 11.5002 179.969 11.5002Z" fill="#212121"/>
<path fill-rule="evenodd" clip-rule="evenodd" d="M186.273 12.1016V8.30156C186.273 7.08653 187.258 6.10156 188.473 6.10156C188.973 6.10156 189.373 6.30156 189.673 6.60156C189.973 6.90156 190.173 7.30156 190.173 7.80156C190.173 8.03894 190.111 8.21367 190.035 8.42497C190.015 8.48067 189.994 8.53897 189.973 8.60157C189.859 8.83113 189.843 9.37275 190.025 9.55366C190.041 9.56959 190.057 9.58558 190.073 9.60157C190.273 9.80157 190.373 10.1016 190.373 10.5016C190.373 10.8346 190.285 11.1233 190.137 11.3675C189.99 11.6104 189.765 11.797 189.519 11.9375C189.23 12.1018 188.927 12.2016 188.573 12.2016H186.373C186.318 12.2016 186.273 12.1568 186.273 12.1016ZM187.073 7.80137C187.073 8.29843 187.476 8.70137 187.973 8.70137H188.473C188.773 8.70137 188.973 8.60137 189.173 8.40137C189.373 8.20137 189.473 8.00136 189.473 7.80136C189.473 7.60136 189.373 7.40136 189.173 7.20136C188.973 7.00136 188.773 6.90136 188.473 6.90136H187.973C187.476 6.90136 187.073 7.30431 187.073 7.80137ZM188.673 11.4014H188.173C187.621 11.4014 187.173 10.9537 187.173 10.4014C187.173 9.84909 187.621 9.40137 188.173 9.40137H188.673C188.973 9.40137 189.173 9.50137 189.373 9.70137C189.573 9.90137 189.673 10.2014 189.673 10.4014C189.673 10.7014 189.573 10.9014 189.373 11.1014C189.173 11.3014 188.973 11.4014 188.673 11.4014Z" fill="#212121"/>
</svg>
