<svg width="194" height="42" viewBox="0 0 194 42" fill="none" xmlns="http://www.w3.org/2000/svg">
<path d="M186.693 1H7.30657C3.82355 1 1 2.96558 1 5.39024V36.6098C1 39.0344 3.82355 41 7.30657 41H186.693C190.176 41 193 39.0344 193 36.6098V5.39024C193 2.96558 190.176 1 186.693 1Z" fill="#F7F8F7" stroke="#D1D1D1"/>
<path fill-rule="evenodd" clip-rule="evenodd" d="M56.4936 16.5297L43.282 9.10156L53.7175 19.2482L56.4936 16.5297Z" fill="#212121"/>
<path fill-rule="evenodd" clip-rule="evenodd" d="M42.0812 9.17773C42.0278 9.27138 41.9998 9.37686 42 9.48407V30.5058C42.0004 30.5689 42.0103 30.6317 42.0293 30.692L53.0794 19.8721L42.0812 9.17773Z" fill="#212121"/>
<path fill-rule="evenodd" clip-rule="evenodd" d="M53.7198 20.4951L42.8851 31.1013C42.9173 31.089 42.9485 31.0747 42.9787 31.0583L56.6695 23.3602L53.7198 20.4951Z" fill="#212121"/>
<path fill-rule="evenodd" clip-rule="evenodd" d="M61.6724 19.4406L57.3032 16.9844L54.358 19.8693L57.4802 22.904L61.6724 20.547C61.772 20.491 61.8547 20.4105 61.9122 20.3133C61.9697 20.2162 62 20.106 62 19.9938C62 19.8816 61.9697 19.7713 61.9122 19.6742C61.8547 19.5771 61.772 19.4965 61.6724 19.4406Z" fill="#212121"/>
<path fill-rule="evenodd" clip-rule="evenodd" d="M74.7719 24.1016V25.9016H79.0719C78.9719 26.9016 78.5719 27.7016 78.0719 28.2016C77.4719 28.8016 76.4719 29.5016 74.7719 29.5016C72.0719 29.5016 70.0719 27.4016 70.0719 24.7016C70.0719 22.0016 72.1719 19.9016 74.7719 19.9016C76.1719 19.9016 77.2719 20.5016 78.0719 21.2016L79.3719 19.9016C78.2719 18.9016 76.8719 18.1016 74.8719 18.1016C71.2719 18.1016 68.1719 21.1016 68.1719 24.7016C68.1719 28.3016 71.2719 31.3016 74.8719 31.3016C76.8719 31.3016 78.2719 30.7016 79.4719 29.4016C80.6719 28.2016 81.0719 26.5016 81.0719 25.2016C81.0719 24.8016 81.0719 24.4016 80.9719 24.1016H74.7719ZM85.8719 22.8018C83.4719 22.8018 81.5719 24.6018 81.5719 27.1018C81.5719 29.5018 83.4719 31.4018 85.8719 31.4018C88.2719 31.4018 90.1719 29.6018 90.1719 27.1018C90.1719 24.5018 88.2719 22.8018 85.8719 22.8018ZM90.8719 27.1018C90.8719 24.6018 92.7719 22.8018 95.1719 22.8018C97.5719 22.8018 99.4719 24.5018 99.4719 27.1018C99.4719 29.6018 97.5719 31.4018 95.1719 31.4018C92.7719 31.4018 90.8719 29.5018 90.8719 27.1018ZM92.7719 27.0014C92.7719 28.5014 93.8719 29.6014 95.1719 29.6014C96.4719 29.6014 97.5719 28.5014 97.5719 27.0014C97.5719 25.4014 96.4719 24.4014 95.1719 24.4014C93.8719 24.4014 92.7719 25.5014 92.7719 27.0014ZM83.4719 27.0014C83.4719 28.5014 84.5719 29.6014 85.8719 29.6014C87.1719 29.6014 88.2719 28.5014 88.2719 27.0014C88.2719 25.4014 87.1719 24.4014 85.8719 24.4014C84.5719 24.4014 83.4719 25.5014 83.4719 27.0014ZM116.572 22.8018C118.772 22.8018 119.772 24.5018 120.172 25.5018L120.372 26.0018L114.672 28.4018C115.172 29.3018 115.772 29.7018 116.772 29.7018C117.772 29.7018 118.372 29.2018 118.872 28.5018L120.272 29.5018C119.872 30.2018 118.672 31.4018 116.772 31.4018C114.372 31.4018 112.572 29.5018 112.572 27.1018C112.572 24.5018 114.372 22.8018 116.572 22.8018ZM114.372 26.9014C114.372 25.3014 115.672 24.4014 116.572 24.4014C117.272 24.4014 117.972 24.8014 118.172 25.3014L114.372 26.9014ZM111.572 31.0015H109.672V18.5015H111.572V31.0015ZM106.672 23.7017C106.172 23.2017 105.372 22.7017 104.372 22.7017C102.272 22.7017 100.272 24.6017 100.272 27.0017C100.272 29.4017 102.172 31.2017 104.372 31.2017C105.372 31.2017 106.172 30.7017 106.572 30.2017H106.672V30.8017C106.672 32.4017 105.772 33.3017 104.372 33.3017C103.272 33.3017 102.472 32.5017 102.272 31.8017L100.672 32.5017C101.172 33.6017 102.372 35.0017 104.472 35.0017C106.672 35.0017 108.472 33.7017 108.472 30.6017V23.0017H106.672V23.7017ZM102.072 27.0014C102.072 28.5014 103.172 29.6014 104.472 29.6014C105.772 29.6014 106.772 28.5014 106.772 27.0014C106.772 25.5014 105.772 24.4014 104.472 24.4014C103.172 24.4014 102.072 25.5014 102.072 27.0014ZM128.872 18.5015H124.372V31.0015H126.272V26.3015H128.872C130.972 26.3015 132.972 24.8015 132.972 22.4015C132.972 20.0015 130.972 18.5015 128.872 18.5015ZM126.272 24.5017H128.972C130.272 24.5017 131.072 23.4017 131.172 22.3017C131.172 21.4017 130.372 20.2017 128.972 20.2017H126.272V24.5017ZM140.472 22.7017C139.072 22.7017 137.672 23.3017 137.172 24.6017L138.872 25.3017C139.272 24.6017 139.872 24.4017 140.572 24.4017C141.572 24.4017 142.472 25.0017 142.572 26.0017V26.1017C142.272 25.9017 141.472 25.6017 140.672 25.6017C138.872 25.6017 137.072 26.6017 137.072 28.4017C137.072 30.1017 138.572 31.2017 140.172 31.2017C141.472 31.2017 142.072 30.6017 142.572 30.0017H142.672V31.0017H144.472V26.2017C144.272 24.0017 142.572 22.7017 140.472 22.7017ZM138.772 28.5017C138.772 29.3017 139.672 29.6017 140.272 29.6017C141.272 29.6017 142.272 28.8017 142.472 27.6017C142.422 27.5816 142.372 27.5614 142.323 27.5415V27.5413C141.887 27.3633 141.491 27.2017 140.772 27.2017C139.872 27.2017 138.772 27.5017 138.772 28.5017ZM150.772 23.0015L148.672 28.4015H148.572L146.372 23.0015H144.372L147.672 30.6015L145.772 34.8015H147.672L152.772 23.0015H150.772ZM135.872 31.0015H133.972V18.5015H135.872V31.0015Z" fill="#212121"/>
<path opacity="0.2" fill-rule="evenodd" clip-rule="evenodd" d="M57.7329 23.2266L44.3929 30.4804C43.6569 30.9227 43.0129 30.8342 42.5529 30.4804L42.4609 30.5689L42.5529 30.6573C43.0129 31.0112 43.6569 31.0996 44.3929 30.6573L57.7329 23.2266Z" fill="white"/>
<path opacity="0.12" fill-rule="evenodd" clip-rule="evenodd" d="M42.4618 30.4806C42.1858 30.2153 42.0938 29.7729 42.0938 29.2422V29.3306C42.0938 29.8614 42.2778 30.3037 42.5538 30.5691V30.4806H42.4618Z" fill="white"/>
<path opacity="0.12" fill-rule="evenodd" clip-rule="evenodd" d="M62.3344 20.7516L57.7344 23.2285L57.8264 23.317L62.3344 20.8401C62.9784 20.4862 63.2544 20.0439 63.2544 19.6016C63.2544 20.0439 62.8864 20.3978 62.3344 20.7516Z" fill="white"/>
<path opacity="0.25" fill-rule="evenodd" clip-rule="evenodd" d="M44.3938 8.6325L62.3338 18.4518C62.8858 18.8056 63.2537 19.1595 63.2537 19.6018C63.2537 19.1595 62.9778 18.7172 62.3338 18.3633L44.3938 8.54404C43.1058 7.83635 42.0938 8.45558 42.0938 9.87096V9.95946C42.0938 8.54404 43.1058 7.92481 44.3938 8.6325Z" fill="white"/>
<path fill-rule="evenodd" clip-rule="evenodd" d="M68.5703 14.4016H69.2703H69.3703V13.1016H73.9703V14.4016H74.6703V12.4016H73.9703V7.10156H69.9703V10.1016C69.9703 11.2016 69.6703 12.0016 69.1703 12.4016H68.5703V14.4016ZM70.0703 12.4014C70.4703 11.8014 70.6703 11.0014 70.6703 10.1014H70.5703V7.90136H73.0703V12.4014H70.0703Z" fill="#212121"/>
<path fill-rule="evenodd" clip-rule="evenodd" d="M78.3734 13.2C79.2734 13.2 79.9734 12.9 80.5734 12.3C81.1734 11.7 81.4734 11 81.4734 10.1C81.4734 9.20001 81.1734 8.5 80.5734 7.9C79.9734 7.3 79.2734 7 78.3734 7C77.4734 7 76.7734 7.3 76.1734 7.9C75.5734 8.5 75.2734 9.20001 75.2734 10.1C75.2734 11 75.5734 11.7 76.1734 12.3C76.7734 12.9 77.4734 13.2 78.3734 13.2ZM78.3734 12.5002C77.7734 12.5002 77.1734 12.2002 76.7734 11.8002C76.2734 11.4002 76.0734 10.8002 76.0734 10.1002C76.0734 9.40021 76.3734 8.8002 76.7734 8.4002C77.1734 7.9002 77.7734 7.7002 78.3734 7.7002C78.9734 7.7002 79.5734 8.0002 79.9734 8.4002C80.4734 8.8002 80.6734 9.40021 80.6734 10.1002C80.6734 10.8002 80.3734 11.4002 79.9734 11.8002C79.5734 12.3002 78.9734 12.5002 78.3734 12.5002Z" fill="#212121"/>
<path fill-rule="evenodd" clip-rule="evenodd" d="M85.3734 13.2C84.4734 13.2 83.7734 12.9 83.1734 12.3C82.5734 11.7 82.2734 11 82.2734 10.1C82.2734 9.20001 82.5734 8.5 83.1734 7.9C83.7734 7.3 84.4734 7 85.3734 7C86.2734 7 86.9734 7.3 87.5734 8L87.0734 8.5C86.6734 8 86.0734 7.7 85.3734 7.7C84.6734 7.7 84.1734 7.9 83.6734 8.4C83.1734 8.8 82.9734 9.40001 82.9734 10.1C82.9734 10.8 83.1734 11.4 83.6734 11.8C84.0734 12.2 84.6734 12.5 85.3734 12.5C86.0734 12.5 86.6734 12.2 87.1734 11.6L87.6734 12.1C87.3734 12.4 87.0734 12.7 86.6734 12.9C86.2734 13.1 85.8734 13.2 85.3734 13.2Z" fill="#212121"/>
<path fill-rule="evenodd" clip-rule="evenodd" d="M90.875 13.1016H90.075V7.80156H88.375V7.10156H92.475V7.80156H90.775V13.1016H90.875Z" fill="#212121"/>
<path fill-rule="evenodd" clip-rule="evenodd" d="M97.7688 7.10156L95.4688 12.2016C95.1688 12.9016 94.6687 13.3016 94.0687 13.3016C93.8687 13.3016 93.6687 13.3016 93.4688 13.2016L93.6687 12.5016C93.7687 12.6016 93.9687 12.6016 94.0687 12.6016C94.2687 12.6016 94.3687 12.6016 94.4688 12.5016C94.5688 12.4016 94.6688 12.3016 94.7688 12.1016L94.9688 11.6016L92.9688 7.20156H93.8688L95.3688 10.6016L96.7688 7.20156H97.7688V7.10156Z" fill="#212121"/>
<path fill-rule="evenodd" clip-rule="evenodd" d="M98.6719 13.1016V7.10156H102.972V13.1016H102.172V7.80156H99.3719V13.1016H98.6719Z" fill="#212121"/>
<path fill-rule="evenodd" clip-rule="evenodd" d="M104.375 13.1016V7.10156H105.175V9.70157H108.175V7.10156H108.975V13.1016H108.175V10.4016H105.175V13.1016H104.375Z" fill="#212121"/>
<path fill-rule="evenodd" clip-rule="evenodd" d="M113.069 13.2C113.969 13.2 114.669 12.9 115.269 12.3C115.769 11.7 116.069 11 116.169 10.1C116.169 9.20001 115.869 8.5 115.269 7.9C114.669 7.3 113.969 7 113.069 7C112.169 7 111.469 7.3 110.869 7.9C110.269 8.5 109.969 9.20001 109.969 10.1C109.969 11 110.269 11.7 110.869 12.3C111.469 12.9 112.169 13.2 113.069 13.2ZM112.969 12.5002C112.369 12.5002 111.769 12.2002 111.369 11.8002C110.969 11.4002 110.669 10.8002 110.669 10.1002C110.669 9.40021 110.969 8.8002 111.369 8.4002C111.769 7.9002 112.369 7.7002 112.969 7.7002C113.569 7.7002 114.169 8.0002 114.569 8.4002C115.069 8.8002 115.269 9.40021 115.269 10.1002C115.269 10.8002 114.969 11.4002 114.569 11.8002C114.169 12.3002 113.569 12.5002 112.969 12.5002Z" fill="#212121"/>
<path fill-rule="evenodd" clip-rule="evenodd" d="M119.273 13.1016V7.10156H121.473C121.973 7.10156 122.373 7.30156 122.673 7.60156C122.973 7.90156 123.173 8.30156 123.173 8.80156C123.173 9.03894 123.111 9.21367 123.035 9.42497C123.015 9.48067 122.994 9.53897 122.973 9.60157C122.873 9.80157 122.673 10.0016 122.373 10.1016C122.673 10.2016 122.873 10.4016 123.073 10.6016C123.273 10.8016 123.373 11.1016 123.373 11.5016C123.373 12.0016 123.173 12.4016 122.873 12.7016C122.473 13.0016 122.073 13.2016 121.573 13.2016H119.273V13.1016ZM120.073 9.70137H121.473C121.773 9.70137 121.973 9.60137 122.173 9.40137C122.373 9.20137 122.473 9.00136 122.473 8.80136C122.473 8.60136 122.373 8.40136 122.173 8.20136C121.973 8.00136 121.773 7.90136 121.473 7.90136H120.073V9.70137ZM121.673 12.4014H120.173V10.4014H121.673C121.973 10.4014 122.173 10.5014 122.373 10.7014C122.573 10.9014 122.673 11.2014 122.673 11.4014C122.673 11.7014 122.573 11.9014 122.373 12.1014C122.173 12.3014 121.973 12.4014 121.673 12.4014Z" fill="#212121"/>
</svg>
