<svg width="328" height="40" viewBox="0 0 328 40" fill="none" xmlns="http://www.w3.org/2000/svg">
<rect x="0.5" y="0.5" width="327" height="39" rx="5.5" fill="#F7F8F7" stroke="#D1D1D1"/>
<path fill-rule="evenodd" clip-rule="evenodd" d="M123.494 15.5297L110.282 8.10156L120.718 18.2482L123.494 15.5297Z" fill="#212121"/>
<path fill-rule="evenodd" clip-rule="evenodd" d="M109.081 8.17773C109.028 8.27138 109 8.37686 109 8.48407V29.5058C109 29.5689 109.01 29.6317 109.029 29.692L120.079 18.8721L109.081 8.17773Z" fill="#212121"/>
<path fill-rule="evenodd" clip-rule="evenodd" d="M120.72 19.4951L109.885 30.1013C109.917 30.089 109.949 30.0747 109.979 30.0583L123.67 22.3602L120.72 19.4951Z" fill="#212121"/>
<path fill-rule="evenodd" clip-rule="evenodd" d="M128.672 18.4406L124.303 15.9844L121.358 18.8693L124.48 21.904L128.672 19.547C128.772 19.491 128.855 19.4105 128.912 19.3133C128.97 19.2162 129 19.106 129 18.9938C129 18.8816 128.97 18.7713 128.912 18.6742C128.855 18.5771 128.772 18.4965 128.672 18.4406Z" fill="#212121"/>
<path fill-rule="evenodd" clip-rule="evenodd" d="M141.772 23.1016V24.9016H146.072C145.972 25.9016 145.572 26.7016 145.072 27.2016C144.472 27.8016 143.472 28.5016 141.772 28.5016C139.072 28.5016 137.072 26.4016 137.072 23.7016C137.072 21.0016 139.172 18.9016 141.772 18.9016C143.172 18.9016 144.272 19.5016 145.072 20.2016L146.372 18.9016C145.272 17.9016 143.872 17.1016 141.872 17.1016C138.272 17.1016 135.172 20.1016 135.172 23.7016C135.172 27.3016 138.272 30.3016 141.872 30.3016C143.872 30.3016 145.272 29.7016 146.472 28.4016C147.672 27.2016 148.072 25.5016 148.072 24.2016C148.072 23.8016 148.072 23.4016 147.972 23.1016H141.772ZM152.872 21.8018C150.472 21.8018 148.572 23.6018 148.572 26.1018C148.572 28.5018 150.472 30.4018 152.872 30.4018C155.272 30.4018 157.172 28.6018 157.172 26.1018C157.172 23.5018 155.272 21.8018 152.872 21.8018ZM157.872 26.1018C157.872 23.6018 159.772 21.8018 162.172 21.8018C164.572 21.8018 166.472 23.5018 166.472 26.1018C166.472 28.6018 164.572 30.4018 162.172 30.4018C159.772 30.4018 157.872 28.5018 157.872 26.1018ZM159.772 26.0014C159.772 27.5014 160.872 28.6014 162.172 28.6014C163.472 28.6014 164.572 27.5014 164.572 26.0014C164.572 24.4014 163.472 23.4014 162.172 23.4014C160.872 23.4014 159.772 24.5014 159.772 26.0014ZM150.472 26.0014C150.472 27.5014 151.572 28.6014 152.872 28.6014C154.172 28.6014 155.272 27.5014 155.272 26.0014C155.272 24.4014 154.172 23.4014 152.872 23.4014C151.572 23.4014 150.472 24.5014 150.472 26.0014ZM183.572 21.8018C185.772 21.8018 186.772 23.5018 187.172 24.5018L187.372 25.0018L181.672 27.4018C182.172 28.3018 182.772 28.7018 183.772 28.7018C184.772 28.7018 185.372 28.2018 185.872 27.5018L187.272 28.5018C186.872 29.2018 185.672 30.4018 183.772 30.4018C181.372 30.4018 179.572 28.5018 179.572 26.1018C179.572 23.5018 181.372 21.8018 183.572 21.8018ZM181.372 25.9014C181.372 24.3014 182.672 23.4014 183.572 23.4014C184.272 23.4014 184.972 23.8014 185.172 24.3014L181.372 25.9014ZM178.572 30.0015H176.672V17.5015H178.572V30.0015ZM173.672 22.7017C173.172 22.2017 172.372 21.7017 171.372 21.7017C169.272 21.7017 167.272 23.6017 167.272 26.0017C167.272 28.4017 169.172 30.2017 171.372 30.2017C172.372 30.2017 173.172 29.7017 173.572 29.2017H173.672V29.8017C173.672 31.4017 172.772 32.3017 171.372 32.3017C170.272 32.3017 169.472 31.5017 169.272 30.8017L167.672 31.5017C168.172 32.6017 169.372 34.0017 171.472 34.0017C173.672 34.0017 175.472 32.7017 175.472 29.6017V22.0017H173.672V22.7017ZM169.072 26.0014C169.072 27.5014 170.172 28.6014 171.472 28.6014C172.772 28.6014 173.772 27.5014 173.772 26.0014C173.772 24.5014 172.772 23.4014 171.472 23.4014C170.172 23.4014 169.072 24.5014 169.072 26.0014ZM195.872 17.5015H191.372V30.0015H193.272V25.3015H195.872C197.972 25.3015 199.972 23.8015 199.972 21.4015C199.972 19.0015 197.972 17.5015 195.872 17.5015ZM193.272 23.5017H195.972C197.272 23.5017 198.072 22.4017 198.172 21.3017C198.172 20.4017 197.372 19.2017 195.972 19.2017H193.272V23.5017ZM207.472 21.7017C206.072 21.7017 204.672 22.3017 204.172 23.6017L205.872 24.3017C206.272 23.6017 206.872 23.4017 207.572 23.4017C208.572 23.4017 209.472 24.0017 209.572 25.0017V25.1017C209.272 24.9017 208.472 24.6017 207.672 24.6017C205.872 24.6017 204.072 25.6017 204.072 27.4017C204.072 29.1017 205.572 30.2017 207.172 30.2017C208.472 30.2017 209.072 29.6017 209.572 29.0017H209.672V30.0017H211.472V25.2017C211.272 23.0017 209.572 21.7017 207.472 21.7017ZM205.772 27.5017C205.772 28.3017 206.672 28.6017 207.272 28.6017C208.272 28.6017 209.272 27.8017 209.472 26.6017C209.422 26.5816 209.372 26.5614 209.323 26.5415V26.5413C208.887 26.3633 208.491 26.2017 207.772 26.2017C206.872 26.2017 205.772 26.5017 205.772 27.5017ZM217.772 22.0015L215.672 27.4015H215.572L213.372 22.0015H211.372L214.672 29.6015L212.772 33.8015H214.672L219.772 22.0015H217.772ZM202.872 30.0015H200.972V17.5015H202.872V30.0015Z" fill="#212121"/>
<path opacity="0.2" fill-rule="evenodd" clip-rule="evenodd" d="M124.733 22.2266L111.393 29.4804C110.657 29.9227 110.013 29.8342 109.553 29.4804L109.461 29.5689L109.553 29.6573C110.013 30.0112 110.657 30.0996 111.393 29.6573L124.733 22.2266Z" fill="white"/>
<path opacity="0.12" fill-rule="evenodd" clip-rule="evenodd" d="M109.462 29.4806C109.186 29.2153 109.094 28.7729 109.094 28.2422V28.3306C109.094 28.8614 109.278 29.3037 109.554 29.5691V29.4806H109.462Z" fill="white"/>
<path opacity="0.12" fill-rule="evenodd" clip-rule="evenodd" d="M129.334 19.7516L124.734 22.2285L124.826 22.317L129.334 19.8401C129.978 19.4862 130.254 19.0439 130.254 18.6016C130.254 19.0439 129.886 19.3978 129.334 19.7516Z" fill="white"/>
<path opacity="0.25" fill-rule="evenodd" clip-rule="evenodd" d="M111.394 7.6325L129.334 17.4518C129.886 17.8056 130.254 18.1595 130.254 18.6018C130.254 18.1595 129.978 17.7172 129.334 17.3633L111.394 7.54404C110.106 6.83635 109.094 7.45558 109.094 8.87096V8.95946C109.094 7.54404 110.106 6.92481 111.394 7.6325Z" fill="white"/>
<path fill-rule="evenodd" clip-rule="evenodd" d="M135.57 13.4016H136.27H136.37V12.1016H140.97V13.4016H141.67V11.4016H140.97V6.10156H136.97V9.10157C136.97 10.2016 136.67 11.0016 136.17 11.4016H135.57V13.4016ZM137.07 11.4014C137.47 10.8014 137.67 10.0014 137.67 9.10137H137.57V6.90136H140.07V11.4014H137.07Z" fill="#212121"/>
<path fill-rule="evenodd" clip-rule="evenodd" d="M145.373 12.2C146.273 12.2 146.973 11.9 147.573 11.3C148.173 10.7 148.473 10 148.473 9.10001C148.473 8.20001 148.173 7.5 147.573 6.9C146.973 6.3 146.273 6 145.373 6C144.473 6 143.773 6.3 143.173 6.9C142.573 7.5 142.273 8.20001 142.273 9.10001C142.273 10 142.573 10.7 143.173 11.3C143.773 11.9 144.473 12.2 145.373 12.2ZM145.373 11.5002C144.773 11.5002 144.173 11.2002 143.773 10.8002C143.273 10.4002 143.073 9.80021 143.073 9.10021C143.073 8.40021 143.373 7.8002 143.773 7.4002C144.173 6.9002 144.773 6.7002 145.373 6.7002C145.973 6.7002 146.573 7.0002 146.973 7.4002C147.473 7.8002 147.673 8.40021 147.673 9.10021C147.673 9.80021 147.373 10.4002 146.973 10.8002C146.573 11.3002 145.973 11.5002 145.373 11.5002Z" fill="#212121"/>
<path fill-rule="evenodd" clip-rule="evenodd" d="M152.373 12.2C151.473 12.2 150.773 11.9 150.173 11.3C149.573 10.7 149.273 10 149.273 9.10001C149.273 8.20001 149.573 7.5 150.173 6.9C150.773 6.3 151.473 6 152.373 6C153.273 6 153.973 6.3 154.573 7L154.073 7.5C153.673 7 153.073 6.7 152.373 6.7C151.673 6.7 151.173 6.9 150.673 7.4C150.173 7.8 149.973 8.40001 149.973 9.10001C149.973 9.80001 150.173 10.4 150.673 10.8C151.073 11.2 151.673 11.5 152.373 11.5C153.073 11.5 153.673 11.2 154.173 10.6L154.673 11.1C154.373 11.4 154.073 11.7 153.673 11.9C153.273 12.1 152.873 12.2 152.373 12.2Z" fill="#212121"/>
<path fill-rule="evenodd" clip-rule="evenodd" d="M157.875 12.1016H157.075V6.80156H155.375V6.10156H159.475V6.80156H157.775V12.1016H157.875Z" fill="#212121"/>
<path fill-rule="evenodd" clip-rule="evenodd" d="M164.769 6.10156L162.469 11.2016C162.169 11.9016 161.669 12.3016 161.069 12.3016C160.869 12.3016 160.669 12.3016 160.469 12.2016L160.669 11.5016C160.769 11.6016 160.969 11.6016 161.069 11.6016C161.269 11.6016 161.369 11.6016 161.469 11.5016C161.569 11.4016 161.669 11.3016 161.769 11.1016L161.969 10.6016L159.969 6.20156H160.869L162.369 9.60157L163.769 6.20156H164.769V6.10156Z" fill="#212121"/>
<path fill-rule="evenodd" clip-rule="evenodd" d="M165.672 12.1016V6.10156H169.972V12.1016H169.172V6.80156H166.372V12.1016H165.672Z" fill="#212121"/>
<path fill-rule="evenodd" clip-rule="evenodd" d="M171.375 12.1016V6.10156H172.175V8.70157H175.175V6.10156H175.975V12.1016H175.175V9.40157H172.175V12.1016H171.375Z" fill="#212121"/>
<path fill-rule="evenodd" clip-rule="evenodd" d="M180.069 12.2C180.969 12.2 181.669 11.9 182.269 11.3C182.769 10.7 183.069 10 183.169 9.10001C183.169 8.20001 182.869 7.5 182.269 6.9C181.669 6.3 180.969 6 180.069 6C179.169 6 178.469 6.3 177.869 6.9C177.269 7.5 176.969 8.20001 176.969 9.10001C176.969 10 177.269 10.7 177.869 11.3C178.469 11.9 179.169 12.2 180.069 12.2ZM179.969 11.5002C179.369 11.5002 178.769 11.2002 178.369 10.8002C177.969 10.4002 177.669 9.80021 177.669 9.10021C177.669 8.40021 177.969 7.8002 178.369 7.4002C178.769 6.9002 179.369 6.7002 179.969 6.7002C180.569 6.7002 181.169 7.0002 181.569 7.4002C182.069 7.8002 182.269 8.40021 182.269 9.10021C182.269 9.80021 181.969 10.4002 181.569 10.8002C181.169 11.3002 180.569 11.5002 179.969 11.5002Z" fill="#212121"/>
<path fill-rule="evenodd" clip-rule="evenodd" d="M186.273 12.1016V6.10156H188.473C188.973 6.10156 189.373 6.30156 189.673 6.60156C189.973 6.90156 190.173 7.30156 190.173 7.80156C190.173 8.03894 190.111 8.21367 190.035 8.42497C190.015 8.48067 189.994 8.53897 189.973 8.60157C189.873 8.80157 189.673 9.00157 189.373 9.10157C189.673 9.20157 189.873 9.40157 190.073 9.60157C190.273 9.80157 190.373 10.1016 190.373 10.5016C190.373 11.0016 190.173 11.4016 189.873 11.7016C189.473 12.0016 189.073 12.2016 188.573 12.2016H186.273V12.1016ZM187.073 8.70137H188.473C188.773 8.70137 188.973 8.60137 189.173 8.40137C189.373 8.20137 189.473 8.00136 189.473 7.80136C189.473 7.60136 189.373 7.40136 189.173 7.20136C188.973 7.00136 188.773 6.90136 188.473 6.90136H187.073V8.70137ZM188.673 11.4014H187.173V9.40137H188.673C188.973 9.40137 189.173 9.50137 189.373 9.70137C189.573 9.90137 189.673 10.2014 189.673 10.4014C189.673 10.7014 189.573 10.9014 189.373 11.1014C189.173 11.3014 188.973 11.4014 188.673 11.4014Z" fill="#212121"/>
</svg>
