<svg width="32" height="32" viewBox="0 0 32 32" fill="none" xmlns="http://www.w3.org/2000/svg">
<path fill-rule="evenodd" clip-rule="evenodd" d="M9.99467 4H22.0067C25.316 4 28 6.68267 28 9.99467V22.0067C28 25.316 25.3173 28 22.0053 28H9.99467C6.684 28 4 25.3173 4 22.0053V9.99467C4 6.684 6.68267 4 9.99467 4V4Z" stroke="#212121" stroke-width="2" stroke-linecap="round" stroke-linejoin="round"/>
<path d="M22.5957 8.95104C22.3477 8.95237 22.1464 9.15371 22.1464 9.40171C22.1464 9.64971 22.349 9.85104 22.597 9.85104C22.845 9.85104 23.0464 9.64971 23.0464 9.40171C23.0477 9.15238 22.845 8.95104 22.5957 8.95104" stroke="#212121" stroke-width="2" stroke-linecap="round" stroke-linejoin="round"/>
<path d="M19.3972 12.609C21.2718 14.4835 21.2718 17.5227 19.3972 19.3972C17.5227 21.2718 14.4835 21.2718 12.609 19.3972C10.7345 17.5227 10.7345 14.4835 12.609 12.609C14.4835 10.7345 17.5227 10.7345 19.3972 12.609" stroke="#212121" stroke-width="2" stroke-linecap="round" stroke-linejoin="round"/>
</svg>
