<svg width="72" height="36" viewBox="0 0 72 36" fill="none" xmlns="http://www.w3.org/2000/svg">
<path d="M61.2312 18.0069C61.2609 17.9928 61.2731 17.9804 61.2835 17.9822C63.3999 17.9998 65.5338 17.7333 67.6241 18.171C69.7492 18.6157 71.2642 20.0769 71.7331 22.3886C72.0434 23.9257 71.9702 25.4239 71.381 26.8833C70.783 28.3551 69.7178 29.3275 68.2621 29.7792C67.4811 30.0228 66.6408 30.141 65.8232 30.1763C64.3884 30.238 62.9449 30.1957 61.5049 30.1957C61.4213 30.1957 61.3376 30.1851 61.2277 30.1745V18.0069H61.2312ZM63.7608 24.0598C63.7608 25.2139 63.7626 26.3663 63.7608 27.5222C63.7608 27.7233 63.7521 27.8945 64.0345 27.8857C64.8138 27.8628 65.6 27.9104 66.3741 27.8345C67.5212 27.7233 68.4539 27.1975 68.9351 26.0575C69.3674 25.0375 69.3953 23.9663 69.1809 22.8863C68.8828 21.3775 67.8751 20.4404 66.3845 20.3204C65.6332 20.2586 64.8748 20.2869 64.1217 20.248C63.8201 20.2339 63.7521 20.3486 63.7573 20.6363C63.7678 21.7798 63.7608 22.9198 63.7608 24.0598ZM46.9167 30.1975C45.9107 30.1975 45.0025 30.201 44.0942 30.1886C44.007 30.1886 43.9007 30.0951 43.8397 30.0157C42.8738 28.738 41.9237 27.4533 40.9492 26.1845C40.8411 26.0451 40.6197 25.941 40.4419 25.9251C40.0427 25.8863 38.9008 25.9057 38.9008 25.9057C38.9008 25.9057 38.8868 26.0045 38.8903 26.2745C38.9008 27.4163 38.8938 28.5563 38.8938 29.698V30.171H36.3642V17.9857C36.4636 17.9751 36.5473 17.9575 36.6309 17.9575C38.3743 17.961 40.1176 17.9486 41.8627 17.9786C42.7361 17.991 43.5659 18.2328 44.3295 18.6951C45.3633 19.3216 45.8602 20.2904 45.9421 21.4798C45.9805 22.0075 45.9352 22.5633 45.8236 23.0804C45.576 24.2151 44.8403 24.951 43.8205 25.4063C43.6897 25.4645 43.559 25.5263 43.3899 25.6039C44.5597 27.1286 45.7103 28.6251 46.9184 30.1992L46.9167 30.1975ZM38.8903 23.7139C39.7114 23.7139 40.4907 23.7157 41.2665 23.7122C41.4705 23.7122 41.6814 23.7139 41.8836 23.6716C42.8965 23.4669 43.409 22.8457 43.3672 21.8945C43.3254 20.9839 42.7553 20.3822 41.7407 20.3045C40.8777 20.2392 40.0113 20.271 39.1431 20.2533C38.9513 20.2463 38.8868 20.3292 38.8886 20.518C38.8955 20.9945 38.8886 21.4728 38.8886 21.9492V23.7122L38.8903 23.7139ZM60.0492 30.1939C59.1985 30.1939 58.3948 30.2028 57.5929 30.1851C57.504 30.1833 57.3784 30.0369 57.3366 29.931C57.1065 29.3645 56.8921 28.7928 56.6898 28.2175C56.6131 28.0004 56.5068 27.9086 56.2679 27.9086C54.6571 27.9192 53.048 27.9192 51.4371 27.9104C51.1896 27.9086 51.0728 27.9898 50.9891 28.2351C50.7851 28.8228 50.5445 29.3998 50.3057 29.9751C50.2656 30.0651 50.154 30.1833 50.0704 30.1869C49.2667 30.2045 48.4647 30.1957 47.6053 30.1957C47.8807 29.488 48.13 28.8298 48.3933 28.1733C49.706 24.8716 51.0257 21.5733 52.3315 18.2698C52.4239 18.0351 52.5372 17.9469 52.7813 17.9557C53.5013 17.9698 54.223 17.9645 54.9413 17.9592C55.126 17.9592 55.2481 17.9892 55.3318 18.201C56.8781 22.1204 58.4314 26.038 59.9847 29.9557C60.0022 30.0122 60.0144 30.0722 60.051 30.1975L60.0492 30.1939ZM53.8325 20.6204C53.1979 22.318 52.5703 23.9998 51.9305 25.7186H55.7502C55.1034 24.0033 54.4723 22.3163 53.8307 20.6204H53.8325ZM14.2151 30.2028H11.6785V17.9963C12.4595 17.9963 13.2248 17.9892 13.9849 18.0051C14.0651 18.0069 14.1575 18.1251 14.2185 18.2098C15.8015 20.481 17.3792 22.7575 18.9569 25.0322C19.147 25.3039 19.3405 25.5722 19.5776 25.9057V18.0104H22.0915V30.2204C21.3227 30.2204 20.5591 30.2292 19.7972 30.2098C19.7101 30.208 19.6072 30.0704 19.541 29.9751C17.8464 27.538 16.1554 25.0992 14.4644 22.6604C14.4068 22.5757 14.3353 22.498 14.2185 22.3569L14.2151 30.2028ZM5.73718 18.0086H8.24759V30.1922H5.73718V18.0086ZM33.7492 29.4528C33.7492 29.5551 33.6184 29.7157 33.5121 29.758C32.1279 30.5116 29.75 30.7357 27.8027 30.1975C25.5293 29.5692 24.0301 28.1098 23.5768 25.708C23.1776 23.6063 23.4408 21.5963 24.8826 19.9092C25.7507 18.8963 26.8804 18.3369 28.1461 18.0475C29.8615 17.6592 31.5229 17.8745 33.1547 18.5028C33.411 18.6016 33.4947 18.7428 33.4842 19.0216C33.4633 19.6869 33.4755 20.3539 33.4755 21.0757C33.3378 21.0122 33.2558 20.9786 33.1739 20.938C31.6903 20.1722 30.1509 19.9339 28.5453 20.4492C26.863 20.9892 25.8902 22.5086 26 24.3245C26.0611 25.2739 26.2459 26.1704 26.8682 26.908C27.576 27.748 28.5244 28.0869 29.5617 28.1751C30.0516 28.2157 30.3915 28.2139 30.6896 28.1575C31.0941 28.078 31.3294 28.0763 31.3399 27.418C31.3277 26.8551 31.3259 26.2428 31.3259 25.6286H29.2793V23.2639H31.3294V23.2569C31.9239 23.2569 32.4957 23.2551 33.0588 23.2639H33.3761V23.2657C33.4406 23.2692 33.5051 23.2675 33.5696 23.2692C33.7283 23.2692 33.7474 23.4245 33.7474 23.511C33.7579 25.3622 33.7579 27.5963 33.7457 29.451L33.7492 29.4528Z" fill="black"/>
<path d="M2.5139 33.4552V13.6888L19.5795 4.41877V14.7423H22.0916V0.164062L0 12.1641V35.9982H22.0916V33.4535L2.5139 33.4552Z" fill="#FFCF33"/>
</svg>
