<svg width="32" height="32" viewBox="0 0 32 32" fill="none" xmlns="http://www.w3.org/2000/svg">
<path fill-rule="evenodd" clip-rule="evenodd" d="M10 4H22.0053C25.316 4 28 6.684 28 9.99467V22.0067C28 25.316 25.316 28 22.0053 28H9.99467C6.684 28 4 25.316 4 22.0053V10C4 6.68667 6.68667 4 10 4V4Z" stroke="#212121" stroke-width="2" stroke-linecap="round" stroke-linejoin="round"/>
<path d="M14.2453 12.8589H15.8653V20.9602H15.8627C14.1947 20.9602 12.3613 19.9469 11.0613 18.0802C9.10932 15.3442 8.57599 13.2762 8.57599 12.8602" stroke="#212121" stroke-width="2" stroke-linecap="round" stroke-linejoin="round"/>
<path d="M22.2107 20.9599C22.2107 20.9599 21.6213 19.7172 20.4253 18.3505C19.628 17.4159 18.5053 16.9105 17.484 16.9105C18.5053 16.9105 19.628 16.4039 20.4253 15.4705C21.6213 14.1025 22.2107 12.8599 22.2107 12.8599" stroke="#212121" stroke-width="2" stroke-linecap="round" stroke-linejoin="round"/>
<path d="M17.484 16.9118H15.8627" stroke="#212121" stroke-width="2" stroke-linecap="round" stroke-linejoin="round"/>
</svg>
