<svg width="32" height="32" viewBox="0 0 32 32" fill="none" xmlns="http://www.w3.org/2000/svg">
<path fill-rule="evenodd" clip-rule="evenodd" d="M24.2748 7.68144C22.0801 5.48544 19.1615 4.27477 16.0521 4.27344C9.64279 4.27344 4.42813 9.48544 4.42679 15.8921C4.42413 17.9308 4.95879 19.9348 5.97746 21.7014L4.32812 27.7228L10.4908 26.1068C12.1961 27.0348 14.1055 27.5214 16.0468 27.5214H16.0521C22.4588 27.5214 27.6735 22.3081 27.6761 15.9014C27.6775 12.7974 26.4695 9.87877 24.2748 7.68144Z" stroke="#212121" stroke-width="2" stroke-linecap="round" stroke-linejoin="round"/>
<path d="M17.4609 18.0799L18.0023 17.5425C18.4996 17.0492 19.2863 16.9865 19.8596 17.3892C20.4143 17.7785 20.9156 18.1279 21.3823 18.4532C22.1236 18.9679 22.2129 20.0239 21.5743 20.6612L21.0956 21.1399" stroke="#212121" stroke-width="2" stroke-linecap="round" stroke-linejoin="round"/>
<path d="M10.8594 10.9045L11.338 10.4259C11.9754 9.78854 13.0314 9.87788 13.546 10.6179C13.87 11.0845 14.2194 11.5859 14.61 12.1405C15.0127 12.7139 14.9514 13.5005 14.4567 13.9979L13.9194 14.5392" stroke="#212121" stroke-width="2" stroke-linecap="round" stroke-linejoin="round"/>
<path d="M21.093 21.1378C19.1184 23.1032 15.7997 21.4338 13.1797 18.8125" stroke="#212121" stroke-width="2" stroke-linecap="round" stroke-linejoin="round"/>
<path d="M13.1841 18.8196C10.5641 16.1983 8.89476 12.8809 10.8601 10.9062" stroke="#212121" stroke-width="2" stroke-linecap="round" stroke-linejoin="round"/>
<path d="M13.9219 14.5391C14.3472 15.2097 14.8925 15.8737 15.5085 16.4897L15.5112 16.4924C16.1272 17.1084 16.7912 17.6537 17.4619 18.0791" stroke="#212121" stroke-width="2" stroke-linecap="round" stroke-linejoin="round"/>
</svg>
