<?xml version="1.0" standalone="no"?>
<!DOCTYPE svg PUBLIC "-//W3C//DTD SVG 1.1//EN" "http://www.w3.org/Graphics/SVG/1.1/DTD/svg11.dtd" >
<svg xmlns="http://www.w3.org/2000/svg" xmlns:xlink="http://www.w3.org/1999/xlink" version="1.1">
<metadata>
Created by FontForge 20201107 at Tue May  2 01:01:05 2017
 By Jimmy Wärting
Copyright \\\(C\\\)2017 Commercial Type.
</metadata>
<defs>
<font id="DrukTextWideCy-Heavy" horiz-adv-x="920" >
  <font-face 
    font-family="Druk Text Wide Cy Heavy"
    font-weight="900"
    font-stretch="normal"
    units-per-em="1000"
    panose-1="0 0 0 0 0 0 0 0 0 0"
    ascent="805"
    descent="-195"
    x-height="558"
    cap-height="744"
    bbox="-72 -300 2408 1246"
    underline-thickness="84"
    underline-position="-20"
    stemh="168"
    stemv="257"
    unicode-range="U+0020-FB02"
  />
<missing-glyph horiz-adv-x="500" 
 />
    <glyph glyph-name="f_f" unicode="ff" horiz-adv-x="1034" 
d="M628 0v391h-224v-391h-253v391h-114v167h114v29c0 110 39 170 186 170h182v-136h-76c-28 0 -39 -12 -39 -40v-23h224v29c0 110 40 170 186 170h182v-136h-75c-28 0 -39 -12 -39 -40v-23h114v-167h-114v-391h-254z" />
    <glyph glyph-name="f_f_t" unicode="fft" horiz-adv-x="1525" 
d="M628 391h-224v-391h-253v391h-114v167h114v29c0 110 39 170 186 170h182v-136h-76c-28 0 -39 -12 -39 -40v-23h224v29c0 110 40 170 186 170h177v-136h-70c-28 0 -39 -12 -39 -40v-23h224v168h254v-168h114v-167h-114v-154c0 -41 10 -57 54 -57h60v-180h-216
c-88 0 -152 49 -152 148v243h-224v-391h-254v391z" />
    <glyph glyph-name="f_i" unicode="fi" horiz-adv-x="958" 
d="M884 761v-151h-257v151h257zM884 558v-558h-257v558h257zM517 757v-136h-74c-28 0 -39 -12 -39 -40v-23h113v-167h-113v-391h-253v391h-114v167h114v29c0 110 39 170 186 170h180z" />
    <glyph glyph-name="f_l" unicode="fl" horiz-adv-x="958" 
d="M517 757v-136h-74c-28 0 -39 -12 -39 -40v-23h113v-167h-113v-391h-253v391h-114v167h114v29c0 110 39 170 186 170h180zM884 757v-757h-257v757h257z" />
    <glyph glyph-name="f_t" unicode="ft" horiz-adv-x="1047" 
d="M628 391h-224v-391h-253v391h-114v167h114v29c0 110 39 170 186 170h177v-136h-71c-28 0 -39 -12 -39 -40v-23h224v168h254v-168h115v-167h-115v-154c0 -41 10 -57 55 -57h60v-180h-216c-88 0 -153 49 -153 148v243z" />
    <glyph glyph-name="emdash.alt" unicode="&#x2014;&#x2014;" horiz-adv-x="2473" 
d="M2408 380v-159h-2343v159h2343z" />
    <glyph glyph-name=".notdef" horiz-adv-x="500" 
 />
    <glyph glyph-name="exclam" unicode="!" horiz-adv-x="432" 
d="M53 744h326l-100 -475h-125zM353 215v-215h-274v215h274z" />
    <glyph glyph-name="quotedbl" unicode="&#x22;" horiz-adv-x="647" 
d="M279 744v-323h-206v323h206zM575 744v-323h-206v323h206z" />
    <glyph glyph-name="numbersign" unicode="#" horiz-adv-x="861" 
d="M410 0l43 194h-133l-43 -194h-170l42 194h-123l29 130h122l29 131h-124l30 130h123l34 159h173l-35 -159h133l35 159h174l-36 -159h122l-29 -130h-122l-30 -131h123l-29 -130h-123l-43 -194h-172zM349 324h133l29 131h-133z" />
    <glyph glyph-name="dollar" unicode="$" horiz-adv-x="1007" 
d="M954 226c0 -119 -59 -232 -403 -238v-77h-96v77c-366 10 -405 159 -405 256v6h281c2 -26 10 -84 124 -96v145l-39 1c-287 6 -356 111 -356 232v9c0 120 77 209 395 213v77h96v-78c340 -6 390 -126 390 -230v-6h-274c-4 26 -20 67 -116 77v-126l40 -1
c294 -7 363 -95 363 -229v-12zM332 536c0 -31 18 -59 123 -65v125c-108 -4 -123 -27 -123 -58v-2zM679 231c0 34 -14 59 -128 66v-144c115 7 128 43 128 75v3z" />
    <glyph glyph-name="percent" unicode="%" horiz-adv-x="1428" 
d="M328 321h-19c-228 0 -270 127 -270 210v16c0 84 42 205 270 205h19c230 0 274 -121 274 -205v-16c0 -83 -44 -210 -274 -210zM964 744h201l-703 -744h-202zM414 538v5c0 49 -32 82 -94 82s-93 -33 -93 -84v-3c0 -49 31 -84 93 -84s94 35 94 84zM1116 -8h-19
c-228 0 -270 128 -270 211v15c0 83 42 205 270 205h19c230 0 273 -122 273 -205v-15c0 -83 -43 -211 -273 -211zM1108 296c-63 0 -93 -33 -93 -83v-3c0 -50 31 -85 93 -85s94 35 94 85v4c0 49 -32 82 -94 82z" />
    <glyph glyph-name="ampersand" unicode="&#x26;" horiz-adv-x="1115" 
d="M1031 -11c-143 0 -218 17 -277 47c-75 -31 -168 -50 -280 -50c-340 0 -442 97 -442 209v10c0 103 83 159 232 185c-75 64 -101 114 -101 174v7c0 82 59 186 330 186h43c259 0 307 -102 307 -184v-5c0 -93 -86 -156 -246 -182l181 -133c42 60 51 130 52 179h234
c-2 -98 -43 -185 -113 -257c38 -5 84 -6 149 -5zM419 560c0 -32 24 -57 86 -103c75 23 106 55 106 93c0 37 -23 68 -96 68c-68 0 -96 -21 -96 -58zM309 244c0 -49 45 -105 175 -105c42 0 78 2 110 7l-240 176c-22 -15 -45 -39 -45 -76v-2z" />
    <glyph glyph-name="quotesingle" unicode="'" horiz-adv-x="354" 
d="M281 744v-324h-208v324h208z" />
    <glyph glyph-name="parenleft" unicode="(" horiz-adv-x="408" 
d="M256 343c0 -187 63 -349 135 -474h-139c-92 99 -201 259 -201 474c0 211 107 372 201 465h139c-77 -119 -135 -280 -135 -465z" />
    <glyph glyph-name="parenright" unicode=")" horiz-adv-x="408" 
d="M152 343c0 185 -58 346 -135 465h139c95 -93 202 -254 202 -465c0 -215 -110 -375 -202 -474h-139c72 125 135 287 135 474z" />
    <glyph glyph-name="asterisk" unicode="*" horiz-adv-x="534" 
d="M308 470l40 -141h-162l41 141l-120 -94l-60 122l153 39l-153 39l60 122l120 -93l-41 139h162l-40 -139l119 93l60 -122l-154 -39l154 -39l-60 -122z" />
    <glyph glyph-name="plus" unicode="+" horiz-adv-x="684" 
d="M619 247h-187v-192h-179v192h-188v152h188v191h179v-191h187v-152z" />
    <glyph glyph-name="comma" unicode="," horiz-adv-x="406" 
d="M281 -154h-160c27 43 59 110 70 154h-128v222h280v-175c0 -76 -36 -157 -62 -201z" />
    <glyph glyph-name="hyphen" unicode="-" horiz-adv-x="485" 
d="M65 401h355v-200h-355v200z" />
    <glyph glyph-name="period" unicode="." horiz-adv-x="406" 
d="M343 223v-223h-280v223h280z" />
    <glyph glyph-name="slash" unicode="/" horiz-adv-x="481" 
d="M476 808l-321 -939h-176l318 939h179z" />
    <glyph glyph-name="zero" unicode="0" horiz-adv-x="1075" 
d="M516 757h44c392 0 461 -225 461 -368v-30c0 -141 -70 -372 -461 -372h-44c-390 0 -462 231 -462 372v30c0 144 72 368 462 368zM739 382c0 62 -26 173 -202 173c-177 0 -201 -111 -201 -173v-11c0 -64 29 -178 202 -178c174 0 201 114 201 178v11z" />
    <glyph glyph-name="one" unicode="1" horiz-adv-x="588" 
d="M232 443h-183v176c160 1 212 32 247 125h204v-744h-268v443z" />
    <glyph glyph-name="two" unicode="2" horiz-adv-x="970" 
d="M919 199v-199h-863v130c0 113 37 218 329 290l108 26c113 25 131 42 131 70v2c0 31 -20 59 -135 59c-134 0 -142 -63 -144 -95h-276v7c0 99 42 265 391 265h55c307 0 391 -101 391 -237v-8c0 -138 -104 -193 -347 -228c-38 -5 -80 -13 -113 -19
c-144 -24 -166 -47 -166 -63h639z" />
    <glyph glyph-name="three" unicode="3" horiz-adv-x="982" 
d="M934 247c0 -113 -60 -258 -430 -258h-51c-369 0 -413 179 -413 260v14h275c3 -23 14 -82 168 -82c152 0 169 40 169 69v2c0 27 -13 49 -85 49h-219v169h218c64 0 76 22 76 44v1c0 26 -11 59 -165 59c-153 0 -155 -51 -158 -67h-269v12c0 71 35 236 392 236h59
c358 0 407 -106 407 -189v-7c0 -79 -60 -118 -122 -134c73 -15 148 -64 148 -172v-6z" />
    <glyph glyph-name="four" unicode="4" horiz-adv-x="1006" 
d="M45 141v158l420 450h333v-421h171v-187h-171v-141h-265v141h-488zM297 328h236v254z" />
    <glyph glyph-name="five" unicode="5" horiz-adv-x="947" 
d="M900 248c0 -103 -54 -259 -395 -259h-42c-363 0 -398 161 -398 229v11h281c4 -12 17 -48 141 -48c112 0 145 35 145 75v5c0 42 -33 72 -145 72c-122 0 -138 -34 -142 -46h-268v457h772v-187h-506v-123c12 11 74 58 228 58h12c263 0 317 -127 317 -232v-12z" />
    <glyph glyph-name="six" unicode="6" horiz-adv-x="1016" 
d="M969 247c0 -108 -59 -258 -421 -258h-52c-392 0 -442 246 -442 370v24c0 115 52 370 433 370h41c347 0 410 -139 410 -235v-1h-269c-6 16 -24 57 -153 57c-161 0 -184 -100 -184 -160v-7c22 17 85 64 266 64h13c281 0 358 -101 358 -207v-17zM353 243
c0 -35 22 -74 171 -74c152 0 167 41 167 74v2c0 34 -26 72 -167 72c-149 0 -171 -38 -171 -72v-2z" />
    <glyph glyph-name="seven" unicode="7" horiz-adv-x="929" 
d="M62 744h817v-178c-32 -42 -87 -122 -151 -219c-101 -157 -108 -225 -108 -338v-9h-291v75c0 118 17 178 157 316c86 85 153 147 153 162h-312v-121h-265v312z" />
    <glyph glyph-name="eight" unicode="8" horiz-adv-x="1002" 
d="M478 -12c-391 0 -430 142 -430 225v9c0 91 80 151 176 168c-85 12 -157 72 -157 151v8c0 78 29 202 411 202h45c382 0 411 -124 411 -202v-8c0 -85 -65 -138 -153 -151c101 -17 173 -77 173 -168v-9c0 -83 -41 -225 -431 -225h-45zM651 527c0 28 -16 59 -151 59
c-134 0 -151 -31 -151 -59v-1c0 -28 20 -59 151 -59c134 0 151 31 151 59v1zM671 238c0 31 -20 67 -171 67c-152 0 -170 -36 -170 -67v-1c0 -30 20 -71 170 -71c151 0 171 41 171 71v1z" />
    <glyph glyph-name="nine" unicode="9" horiz-adv-x="1016" 
d="M962 364c0 -120 -48 -375 -427 -375h-43c-352 0 -413 143 -413 234v1h270c3 -13 19 -56 151 -56c161 0 184 100 184 160v7c-21 -17 -85 -64 -265 -64h-14c-279 0 -358 103 -358 219v16c0 106 61 247 418 247h55c389 0 442 -237 442 -365v-24zM663 499
c0 34 -21 74 -170 74c-153 0 -168 -42 -168 -74v-2c0 -34 26 -72 168 -72c149 0 170 38 170 72v2z" />
    <glyph glyph-name="colon" unicode=":" horiz-adv-x="416" 
d="M348 223v-223h-280v223h280zM348 549v-223h-280v223h280z" />
    <glyph glyph-name="semicolon" unicode=";" horiz-adv-x="416" 
d="M286 -154h-160c27 43 59 110 70 154h-128v222h280v-175c0 -76 -36 -157 -62 -201zM348 549v-223h-280v223h280z" />
    <glyph glyph-name="less" unicode="&#x3c;" horiz-adv-x="610" 
d="M543 71l-476 167v171l476 168v-165l-305 -89l305 -88v-164z" />
    <glyph glyph-name="equal" unicode="=" horiz-adv-x="667" 
d="M70 502h527v-141h-527v141zM70 288h527v-142h-527v142z" />
    <glyph glyph-name="greater" unicode="&#x3e;" horiz-adv-x="610" 
d="M67 577l476 -168v-171l-476 -167v164l306 88l-306 89v165z" />
    <glyph glyph-name="question" unicode="?" horiz-adv-x="886" 
d="M539 274v-5h-253v39c0 76 21 126 148 160l59 16c59 16 75 27 75 51c0 27 -20 45 -121 45c-127 0 -131 -54 -132 -80h-277v14c0 87 29 239 381 239h42c325 -1 385 -109 385 -215v-10c0 -97 -60 -158 -207 -193l-51 -13c-41 -11 -49 -23 -49 -48zM549 215v-215h-273v215
h273z" />
    <glyph glyph-name="at" unicode="@" horiz-adv-x="1336" 
d="M1190 -88c-35 -24 -174 -83 -536 -83c-517 0 -603 247 -603 465v13c0 236 127 448 626 448h10c566 0 599 -242 599 -396v-8c0 -156 -75 -313 -321 -313h-9c-152 0 -183 56 -195 77c-20 -21 -72 -77 -200 -77h-9c-173 0 -241 118 -236 236c0 12 1 44 3 60
c13 111 83 211 241 211h11c127 0 179 -51 201 -71l7 63h254l-38 -346c-3 -28 3 -45 35 -45c73 0 121 88 121 206v3c0 123 -6 291 -464 291h-10c-388 0 -482 -151 -482 -341v-12c0 -174 67 -355 459 -355c332 0 466 60 503 82zM755 299l1 6c1 54 -21 91 -80 91h-3
c-67 0 -94 -48 -96 -107v-8c-2 -48 14 -96 77 -96h2c68 0 97 53 99 114z" />
    <glyph glyph-name="A" unicode="A" horiz-adv-x="1041" 
d="M759 0l-55 121h-385l-54 -121h-269l344 744h353l352 -744h-286zM398 295h228l-115 254z" />
    <glyph glyph-name="B" unicode="B" horiz-adv-x="1066" 
d="M84 0v744h620c213 0 278 -80 278 -174v-7c0 -101 -88 -143 -144 -151c78 -11 185 -55 185 -183v-10c0 -122 -75 -219 -318 -219h-621zM629 570h-275v-108h275c57 0 75 22 75 53v2c0 32 -19 53 -75 53zM649 301h-295v-119h295c71 0 84 32 84 60v4c0 29 -13 55 -84 55z" />
    <glyph glyph-name="C" unicode="C" horiz-adv-x="1073" 
d="M562 -12h-45c-386 0 -466 225 -466 371v30c0 147 79 367 466 367h45c390 0 461 -180 461 -306v-8h-279c-2 18 -19 112 -204 112c-173 0 -207 -100 -207 -172v-12c0 -71 36 -177 208 -177c184 0 201 95 203 111h279v-8c0 -116 -70 -308 -461 -308z" />
    <glyph glyph-name="D" unicode="D" horiz-adv-x="1068" 
d="M84 0v744h438c406 0 496 -183 496 -351v-30c0 -170 -82 -363 -496 -363h-438zM354 553v-361h136c222 0 246 104 246 179v6c0 72 -25 176 -246 176h-136z" />
    <glyph glyph-name="E" unicode="E" horiz-adv-x="900" 
d="M84 744h743v-180h-474v-95h459v-185h-459v-102h481v-182h-750v744z" />
    <glyph glyph-name="F" unicode="F" horiz-adv-x="881" 
d="M84 744h735v-184h-465v-110h451v-187h-451v-263h-270v744z" />
    <glyph glyph-name="G" unicode="G" horiz-adv-x="1112" 
d="M813 95c-24 -26 -112 -106 -303 -106h-17c-342 0 -442 206 -442 376v20c0 164 96 371 478 371h35c388 0 467 -166 467 -274v-4h-283c-7 19 -35 79 -201 79c-172 0 -216 -89 -216 -177v-10c0 -84 48 -183 216 -183c161 0 200 67 204 90h-213v139h502v-416h-191
c-4 25 -22 72 -36 95z" />
    <glyph glyph-name="H" unicode="H" horiz-adv-x="1084" 
d="M731 0v282h-377v-282h-270v744h270v-262h377v262h269v-744h-269z" />
    <glyph glyph-name="I" unicode="I" horiz-adv-x="438" 
d="M354 744v-744h-270v744h270z" />
    <glyph glyph-name="J" unicode="J" horiz-adv-x="931" 
d="M850 345c0 -146 -60 -358 -388 -358h-40c-330 0 -388 204 -388 343v5h271c3 -41 19 -136 133 -136h3c106 0 139 72 139 157v388h270v-399z" />
    <glyph glyph-name="K" unicode="K" horiz-adv-x="986" 
d="M660 0l-307 332v-332h-269v744h269v-288l306 288h317l-362 -336l387 -408h-341z" />
    <glyph glyph-name="L" unicode="L" horiz-adv-x="848" 
d="M84 744h270v-533h445v-211h-715v744z" />
    <glyph glyph-name="M" unicode="M" horiz-adv-x="1302" 
d="M84 0v744h372l201 -425l205 425h356v-744h-264v465l-221 -465h-170l-219 465v-465h-260z" />
    <glyph glyph-name="N" unicode="N" horiz-adv-x="1107" 
d="M764 0l-417 429v-429h-263v744h275l401 -416v416h263v-744h-259z" />
    <glyph glyph-name="O" unicode="O" horiz-adv-x="1105" 
d="M530 757h45c397 0 479 -214 479 -368v-30c0 -152 -81 -372 -479 -372h-45c-396 0 -479 220 -479 372v30c1 154 83 368 479 368zM772 381c0 71 -31 174 -220 174c-188 0 -219 -103 -219 -174v-11c0 -72 34 -178 220 -178c187 0 219 106 219 178v11z" />
    <glyph glyph-name="P" unicode="P" horiz-adv-x="1022" 
d="M627 222h-273v-222h-270v744h543c277 0 349 -104 349 -251v-13c0 -148 -75 -258 -349 -258zM354 554v-142h248c73 0 94 32 94 71v2c0 36 -21 69 -94 69h-248z" />
    <glyph glyph-name="Q" unicode="Q" horiz-adv-x="1105" 
d="M1054 359c0 -132 -61 -321 -355 -362l131 -152h-381v147c-330 28 -398 229 -398 367v30c0 151 77 368 478 368h46c402 0 479 -218 479 -368v-30zM772 381c0 69 -31 175 -220 175c-190 0 -220 -104 -220 -175v-11c0 -71 34 -180 221 -180c188 0 219 108 219 180v11z" />
    <glyph glyph-name="R" unicode="R" horiz-adv-x="1064" 
d="M829 358c96 -15 173 -62 173 -177v-115c0 -39 5 -51 11 -61v-5h-277c-3 4 -7 18 -7 46v63c0 96 -33 124 -139 124h-236v-233h-270v744h601c272 0 311 -106 311 -203v-7c0 -106 -82 -159 -167 -176zM354 554v-127h275c71 0 87 31 87 64v2c0 32 -16 61 -87 61h-275z" />
    <glyph glyph-name="S" unicode="S" horiz-adv-x="988" 
d="M935 235c0 -121 -57 -247 -424 -247h-25c-396 0 -436 155 -436 254v6h290c3 -28 14 -88 153 -88h6c135 0 154 36 154 68c0 35 -20 60 -141 63l-104 3c-275 6 -348 108 -348 227v8c0 128 82 225 406 225h43c357 0 414 -124 414 -233v-5h-285c-4 29 -24 71 -148 71h-8
c-120 0 -143 -23 -143 -56c0 -32 22 -54 133 -58l107 -2c290 -8 356 -92 356 -224v-12z" />
    <glyph glyph-name="T" unicode="T" horiz-adv-x="957" 
d="M46 539v205h865v-205h-298v-539h-269v539h-298z" />
    <glyph glyph-name="U" unicode="U" horiz-adv-x="1094" 
d="M534 -11c-424 0 -453 253 -453 400v355h268v-353c0 -85 29 -183 198 -183h4c167 0 194 98 194 183v353h268v-355c0 -147 -40 -400 -448 -400h-31z" />
    <glyph glyph-name="V" unicode="V" horiz-adv-x="1044" 
d="M1045 744l-347 -744h-334l-365 744h313l225 -498l225 498h283z" />
    <glyph glyph-name="W" unicode="W" horiz-adv-x="1424" 
d="M858 0l-143 465l-144 -465h-314l-255 744h289l146 -491l144 491h288l144 -491l146 491h263l-248 -744h-316z" />
    <glyph glyph-name="X" unicode="X" horiz-adv-x="1010" 
d="M692 0l-190 238l-189 -238h-318l303 386l-291 358h334l173 -219l174 219h307l-285 -358l305 -386h-323z" />
    <glyph glyph-name="Y" unicode="Y" horiz-adv-x="1002" 
d="M641 265v-265h-268v266l-388 478h328l205 -264l208 264h291z" />
    <glyph glyph-name="Z" unicode="Z" horiz-adv-x="960" 
d="M893 206v-206h-825v169l432 371h-428v204h817v-168l-451 -370h455z" />
    <glyph glyph-name="bracketleft" unicode="[" horiz-adv-x="442" 
d="M77 -131v939h324v-130h-131v-679h131v-130h-324z" />
    <glyph glyph-name="backslash" unicode="\" horiz-adv-x="481" 
d="M502 -131h-177l-320 939h178z" />
    <glyph glyph-name="bracketright" unicode="]" horiz-adv-x="442" 
d="M41 678v130h324v-939h-324v130h132v679h-132z" />
    <glyph glyph-name="asciicircum" unicode="^" horiz-adv-x="744" 
d="M19 393l226 351h255l225 -351h-232l-121 199l-121 -199h-232z" />
    <glyph glyph-name="underscore" unicode="_" horiz-adv-x="721" 
d="M7 -188v158h707v-158h-707z" />
    <glyph glyph-name="grave" unicode="`" horiz-adv-x="700" 
d="M440 772l99 -159h-247l-131 159h279z" />
    <glyph glyph-name="a" unicode="a" horiz-adv-x="837" 
d="M508 70c-19 -21 -79 -82 -217 -82h-17c-156 0 -231 76 -231 180v5c0 103 64 157 261 170l158 9c29 2 39 12 39 32v1c0 24 -12 45 -93 45h-4c-87 0 -93 -38 -94 -52h-253v1c0 75 31 193 330 193h34c305 0 332 -107 332 -194v-172c0 -20 6 -29 27 -29h31v-177h-208
c-56 0 -84 39 -95 70zM374 128c91 0 127 56 127 100v27c-18 -4 -58 -11 -101 -18c-82 -13 -103 -27 -103 -59v-2c0 -29 25 -48 77 -48z" />
    <glyph glyph-name="b" unicode="b" horiz-adv-x="901" 
d="M543 -11c-129 0 -195 57 -216 79c-7 -21 -12 -48 -15 -68h-239v757h257v-264c26 23 95 76 228 76h11c215 0 286 -139 286 -278v-15c0 -134 -66 -287 -301 -287h-11zM587 279v4c0 48 -25 119 -125 119h-6c-99 0 -127 -70 -127 -118v-6c0 -52 28 -121 127 -121h6
c99 0 125 71 125 122z" />
    <glyph glyph-name="c" unicode="c" horiz-adv-x="861" 
d="M817 231c0 -84 -36 -246 -358 -246h-49c-317 0 -366 177 -366 292v14c0 113 53 282 365 282h39c339 0 369 -160 369 -236v-1h-268c-2 18 -20 72 -112 72h-8c-90 0 -117 -62 -117 -123v-1c0 -63 28 -131 118 -131h8c94 0 109 61 111 79h268v-1z" />
    <glyph glyph-name="d" unicode="d" horiz-adv-x="901" 
d="M570 757h257v-757h-256v66c-20 -21 -82 -77 -212 -77h-12c-223 0 -301 145 -301 277v24c0 130 73 279 300 279h11c126 0 190 -42 213 -60v248zM438 402c-97 0 -124 -68 -124 -120v-3c0 -52 29 -122 124 -122h9c95 0 125 68 125 121v5c0 51 -30 119 -125 119h-9z" />
    <glyph glyph-name="e" unicode="e" horiz-adv-x="878" 
d="M832 182c-4 -66 -50 -196 -366 -196h-44c-314 0 -378 162 -378 286v14c0 128 66 286 367 286h45c320 0 378 -157 378 -317v-21h-524c11 -60 49 -95 142 -95c89 0 106 34 110 43h270zM438 431c-82 0 -114 -31 -126 -85h249c-1 43 -24 85 -123 85z" />
    <glyph glyph-name="f" unicode="f" horiz-adv-x="556" 
d="M519 757v-136h-76c-28 0 -39 -12 -39 -40v-23h115v-167h-115v-391h-253v391h-114v167h114v29c0 110 39 170 186 170h182z" />
    <glyph glyph-name="g" unicode="g" horiz-adv-x="903" 
d="M830 63c0 -154 -87 -268 -362 -268h-29c-326 0 -360 119 -360 187v3h283c5 -11 20 -31 96 -31h7c75 0 108 42 108 101v36c-19 -21 -78 -72 -209 -72h-13c-230 0 -305 135 -305 266v18c0 134 77 267 298 267h11c134 0 195 -45 218 -64v52h257v-495zM440 407
c-97 0 -126 -60 -126 -112v-2c0 -51 30 -113 126 -113h8c97 0 126 61 126 111v5c0 47 -31 111 -126 111h-8z" />
    <glyph glyph-name="h" unicode="h" horiz-adv-x="886" 
d="M73 0v757h257v-284c30 34 101 100 236 100h10c167 0 239 -106 239 -212v-361h-258v279c0 58 -30 106 -111 106c-78 0 -116 -50 -116 -115v-270h-257z" />
    <glyph glyph-name="i" unicode="i" horiz-adv-x="404" 
d="M330 761v-151h-257v151h257zM330 558v-558h-257v558h257z" />
    <glyph glyph-name="j" unicode="j" horiz-adv-x="404" 
d="M330 761v-151h-257v151h257zM-15 -25h53c28 0 35 13 35 39v544h257v-593c0 -95 -47 -154 -140 -154h-205v164z" />
    <glyph glyph-name="k" unicode="k" horiz-adv-x="794" 
d="M509 0l-179 244v-244h-257v757h257v-408l163 209h282l-208 -250l233 -308h-291z" />
    <glyph glyph-name="l" unicode="l" horiz-adv-x="404" 
d="M330 757v-757h-257v757h257z" />
    <glyph glyph-name="m" unicode="m" horiz-adv-x="1330" 
d="M330 274v-274h-257v558h255v-88c23 32 96 103 226 103h4c114 0 180 -50 212 -112c45 54 126 112 245 112h8c178 0 235 -113 235 -211v-362h-256v287c0 48 -25 98 -102 98c-72 0 -106 -48 -106 -111v-274h-256v287c0 48 -24 98 -103 98c-72 0 -105 -47 -105 -111z" />
    <glyph glyph-name="n" unicode="n" horiz-adv-x="886" 
d="M73 0v558h255v-87c31 36 103 102 238 102h10c167 0 239 -106 239 -212v-361h-258v279c0 58 -30 106 -111 106c-78 0 -116 -50 -116 -115v-270h-257z" />
    <glyph glyph-name="o" unicode="o" horiz-adv-x="886" 
d="M426 -15c-343 0 -382 186 -382 285v14c0 98 39 289 381 289h35c354 0 382 -191 382 -288v-16c0 -98 -28 -284 -383 -284h-33zM447 153c100 0 127 77 127 128c0 56 -27 127 -127 127h-8c-103 0 -127 -71 -127 -127c0 -52 23 -128 127 -128h8z" />
    <glyph glyph-name="p" unicode="p" horiz-adv-x="901" 
d="M73 -189v747h257v-68c26 26 95 79 225 79h8c224 0 293 -139 293 -279v-17c0 -129 -71 -284 -303 -284h-9c-129 0 -191 53 -214 73v-251h-257zM587 276v5c0 51 -28 121 -126 121h-4c-98 0 -128 -70 -128 -120v-6c0 -54 30 -119 128 -119h4c98 0 126 67 126 119z" />
    <glyph glyph-name="q" unicode="q" horiz-adv-x="901" 
d="M354 569c141 0 205 -54 228 -75c7 20 12 45 14 64h231v-747h-256v255c-18 -19 -82 -77 -210 -77h-13c-226 0 -302 150 -302 283v17c0 129 74 280 298 280h10zM439 402c-94 0 -124 -68 -124 -119v-5c0 -53 29 -121 124 -121h8c96 0 125 66 125 120v6
c0 51 -28 119 -125 119h-8z" />
    <glyph glyph-name="r" unicode="r" horiz-adv-x="771" 
d="M330 288v-288h-257v558h255v-91c18 30 74 104 197 104h8c154 0 198 -109 198 -225c0 -37 -2 -60 -3 -81h-256v27c0 61 -18 92 -67 92c-50 0 -75 -33 -75 -96z" />
    <glyph glyph-name="s" unicode="s" horiz-adv-x="804" 
d="M759 174c0 -91 -43 -187 -352 -187h-28c-319 0 -341 126 -341 190v3h275c2 -16 13 -48 89 -48h2c70 0 88 19 88 41c0 24 -16 36 -94 41l-88 7c-215 12 -261 90 -261 177v6c0 93 65 166 334 166h23c295 0 344 -90 344 -178v-1h-266c-4 16 -14 44 -87 44h-5
c-67 0 -84 -14 -84 -38s20 -37 89 -40l90 -3c222 -10 272 -75 272 -171v-9z" />
    <glyph glyph-name="t" unicode="t" horiz-adv-x="569" 
d="M518 180v-180h-216c-88 0 -152 49 -152 148v243h-113v167h113v168h254v-168h114v-167h-114v-154c0 -41 10 -57 54 -57h60z" />
    <glyph glyph-name="u" unicode="u" horiz-adv-x="881" 
d="M807 558v-558h-255v87c-29 -34 -103 -102 -235 -102h-10c-166 0 -236 106 -236 213v360h258v-279c0 -56 28 -105 108 -105c75 0 113 49 113 114v270h257z" />
    <glyph glyph-name="v" unicode="v" horiz-adv-x="826" 
d="M822 558l-237 -558h-333l-248 558h287l131 -365l132 365h268z" />
    <glyph glyph-name="w" unicode="w" horiz-adv-x="1218" 
d="M712 0l-102 314l-95 -314h-307l-199 558h272l98 -348l103 348h275l106 -347l94 347h252l-185 -558h-312z" />
    <glyph glyph-name="x" unicode="x" horiz-adv-x="804" 
d="M519 0l-120 162l-119 -162h-282l217 286l-217 272h296l115 -153l114 153h277l-210 -271l218 -287h-289z" />
    <glyph glyph-name="y" unicode="y" horiz-adv-x="803" 
d="M552 -46c-39 -96 -98 -143 -205 -143h-237v162h129c16 0 24 5 24 17c0 9 -5 20 -16 44l-244 524h283l132 -364l119 364h263z" />
    <glyph glyph-name="z" unicode="z" horiz-adv-x="779" 
d="M723 174v-174h-664v158l329 231h-325v169h648v-157l-340 -227h352z" />
    <glyph glyph-name="braceleft" unicode="{" horiz-adv-x="444" 
d="M403 -7v-124h-165c-110 0 -168 35 -168 114c0 78 83 209 83 257c0 26 -12 38 -40 38h-76v125h76c28 0 40 12 40 31c0 53 -83 176 -83 253c0 78 50 121 168 121h165v-124h-88c-28 0 -44 -9 -44 -32c0 -41 65 -149 65 -210c0 -58 -32 -89 -109 -100c76 -11 109 -38 109 -87
c0 -66 -65 -182 -65 -220c0 -28 21 -42 65 -42h67z" />
    <glyph glyph-name="bar" unicode="|" horiz-adv-x="375" 
d="M275 808v-939h-175v939h175z" />
    <glyph glyph-name="braceright" unicode="}" horiz-adv-x="445" 
d="M375 -17c0 -79 -59 -114 -168 -114h-166v124h68c44 0 64 14 64 42c0 38 -65 154 -65 220c0 49 34 76 110 87c-77 11 -110 42 -110 100c0 61 65 168 65 210c0 23 -15 32 -43 32h-89v124h166c117 0 168 -43 168 -121c0 -77 -84 -200 -84 -253c0 -19 12 -31 41 -31h77v-125
h-77c-29 0 -41 -12 -41 -38c0 -48 84 -179 84 -257z" />
    <glyph glyph-name="asciitilde" unicode="~" horiz-adv-x="716" 
d="M524 220c-75 0 -109 22 -175 69c-52 38 -67 50 -89 50c-18 0 -25 -13 -25 -33v-101h-198v184c0 72 32 172 163 172c80 0 125 -30 182 -74c38 -29 58 -45 75 -45c16 0 24 14 24 33v104h198v-194c0 -87 -57 -165 -155 -165z" />
    <glyph glyph-name="exclamdown" unicode="&#xa1;" horiz-adv-x="432" 
d="M378 -186h-326l100 475h125zM78 343v215h274v-215h-274z" />
    <glyph glyph-name="cent" unicode="&#xa2;" horiz-adv-x="871" 
d="M828 232c0 -79 -31 -239 -343 -246v-79h-91v79c-305 7 -351 180 -351 292v14c0 108 51 275 351 282v78h91v-79c315 -9 343 -162 343 -235v-1h-262c-2 20 -16 63 -81 76v-265c67 15 79 64 81 85h262v-1zM306 284c0 -58 19 -119 88 -135v264c-70 -15 -88 -71 -88 -128v-1z
" />
    <glyph glyph-name="sterling" unicode="&#xa3;" horiz-adv-x="976" 
d="M918 275v-275h-870v173h59c55 0 82 23 82 67v3c0 25 -7 53 -16 83h-125v95h95c-8 31 -14 63 -14 95v8c0 105 63 229 360 229h38c346 0 376 -153 376 -276v-3h-281c-1 39 -13 101 -108 101c-89 0 -108 -47 -108 -93c0 -17 2 -38 6 -61h319v-95h-305c1 -10 1 -21 1 -30
c0 -68 -42 -111 -84 -123h297v102h278z" />
    <glyph glyph-name="yen" unicode="&#xa5;" horiz-adv-x="918" 
d="M808 156h-212v-156h-263v156h-213v85h213v53h-213v84h173l-302 366h314l169 -232l172 232h281l-292 -366h173v-84h-212v-53h212v-85z" />
    <glyph glyph-name="brokenbar" unicode="&#xa6;" horiz-adv-x="375" 
d="M275 808v-400h-175v400h175zM275 305v-436h-175v436h175z" />
    <glyph glyph-name="section" unicode="&#xa7;" horiz-adv-x="926" 
d="M841 4c0 -116 -71 -212 -357 -212h-44c-345 0 -376 141 -376 226v4h274c1 -26 9 -85 125 -85h7c92 0 108 29 108 55v2c0 29 -12 49 -101 61l-173 22c-199 26 -266 91 -266 187v9c0 78 70 116 140 130c-54 31 -90 79 -90 152v9c0 117 83 193 355 193h43
c336 0 362 -118 362 -213l-1 -3h-268c-2 24 -12 72 -118 72h-6c-96 0 -110 -21 -110 -46v-2c0 -24 14 -45 101 -57l174 -22c221 -27 268 -84 268 -181v-9c0 -82 -73 -122 -131 -137c57 -32 84 -81 84 -147v-8zM591 209c18 4 43 18 43 46c0 29 -11 57 -95 69l-208 32
c-16 -4 -42 -16 -42 -47c0 -25 12 -55 96 -68z" />
    <glyph glyph-name="dieresis" unicode="&#xa8;" horiz-adv-x="700" 
d="M616 761v-151h-240v151h240zM324 761v-151h-240v151h240z" />
    <glyph glyph-name="copyright" unicode="&#xa9;" horiz-adv-x="1104" 
d="M1053 365c0 -189 -103 -379 -493 -379h-16c-391 0 -493 190 -493 379v14c0 187 102 377 493 377h16c390 0 493 -190 493 -377v-14zM546 80h12c283 0 367 130 367 285v13c0 161 -83 285 -367 285h-12c-284 0 -368 -124 -368 -285v-13c0 -155 84 -285 368 -285zM843 340
c0 -63 -31 -183 -275 -183h-13c-247 0 -290 116 -290 208v20c0 94 42 205 290 205h13c245 0 275 -113 275 -177v-2h-199c-2 13 -12 54 -88 54c-72 0 -91 -39 -91 -83v-7c0 -46 20 -90 91 -90c78 0 86 45 88 60h199v-5z" />
    <glyph glyph-name="ordfeminine" unicode="&#xaa;" horiz-adv-x="733" 
d="M435 353c-15 -20 -70 -67 -184 -67h-6c-136 0 -195 63 -195 147v2c0 91 62 128 206 138l145 10c23 1 30 10 30 24c0 15 -8 34 -72 34h-6c-64 0 -73 -22 -74 -36h-219v1c0 51 17 155 280 155h30c261 0 280 -88 280 -153v-138c0 -18 6 -26 25 -26h24v-150h-183
c-41 0 -69 26 -81 59zM272 443c0 -25 20 -42 61 -42c68 0 98 43 98 82v19l-92 -15c-49 -8 -67 -18 -67 -44z" />
    <glyph glyph-name="guillemotleft" unicode="&#xab;" horiz-adv-x="677" 
d="M227 292l123 -188h-189l-124 188l122 188h191zM516 292l122 -188h-189l-123 188l123 188h191z" />
    <glyph glyph-name="registered" unicode="&#xae;" horiz-adv-x="906" 
d="M476 175h-44c-314 0 -382 155 -382 280v32c0 119 60 279 382 279h46c322 0 379 -159 379 -274v-37c0 -122 -86 -280 -381 -280zM152 466c0 -95 19 -213 299 -213h6c273 0 298 119 298 214v13c0 88 -22 208 -296 208h-8c-278 0 -299 -111 -299 -212v-10zM408 415v-91h-158
v302h284c107 0 134 -36 134 -77v-3c0 -40 -31 -65 -74 -72c50 -7 79 -27 79 -68v-46c0 -17 2 -26 6 -32v-4h-159c-4 5 -7 11 -7 25v30c0 23 -9 36 -35 36h-70zM408 495h70c27 0 35 13 35 29c0 15 -8 28 -35 28h-70v-57z" />
    <glyph glyph-name="macron" unicode="&#xaf;" horiz-adv-x="700" 
d="M139 621v133h422v-133h-422z" />
    <glyph glyph-name="degree" unicode="&#xb0;" horiz-adv-x="557" 
d="M279 319c-140 0 -232 90 -232 219c0 128 92 217 232 217c138 0 231 -89 231 -217c0 -129 -93 -219 -231 -219zM279 450c52 0 89 34 89 88c0 53 -37 87 -89 87c-54 0 -90 -34 -90 -87c0 -54 36 -88 90 -88z" />
    <glyph glyph-name="acute" unicode="&#xb4;" horiz-adv-x="700" 
d="M161 613l98 159h280l-131 -159h-247z" />
    <glyph glyph-name="paragraph" unicode="&#xb6;" horiz-adv-x="866" 
d="M43 522c0 121 54 222 281 222h522v-139h-83v-605h-162v605h-82v-605h-162v289h-32c-203 0 -282 97 -282 217v16z" />
    <glyph glyph-name="periodcentered" unicode="&#xb7;" horiz-adv-x="403" 
d="M341 455v-221h-279v221h279z" />
    <glyph glyph-name="cedilla" unicode="&#xb8;" horiz-adv-x="700" 
d="M528 -176c0 -62 -27 -124 -204 -124h-152v110h130c31 0 38 10 38 24s-7 24 -38 24h-96v142h138v-53h3c154 0 181 -53 181 -120v-3z" />
    <glyph glyph-name="ordmasculine" unicode="&#xba;" horiz-adv-x="750" 
d="M360 761h31c286 0 311 -149 312 -234v-10c0 -86 -26 -231 -313 -231h-30c-273 0 -313 145 -313 232v8c0 86 40 235 313 235zM472 525c0 48 -19 100 -97 100c-75 0 -96 -52 -96 -100v-1c0 -43 19 -98 96 -98c79 0 97 56 97 98v1z" />
    <glyph glyph-name="guillemotright" unicode="&#xbb;" horiz-adv-x="676" 
d="M639 292l-123 -188h-190l123 188l-122 188h191zM350 292l-122 -188h-189l122 188l-124 188h191z" />
    <glyph glyph-name="onequarter" unicode="&#xbc;" horiz-adv-x="1279" 
d="M671 74v114l254 241h228v-228h87v-127h-87v-74h-199v74h-283zM847 744h205l-744 -744h-200zM158 543h-117v121c112 0 139 25 160 81h158v-430h-201v228zM954 322l-127 -121h127v121z" />
    <glyph glyph-name="onehalf" unicode="&#xbd;" horiz-adv-x="1339" 
d="M1294 0h-554v72c0 65 20 140 269 187c62 11 77 22 77 39c0 18 -13 31 -67 31c-62 0 -71 -31 -72 -49h-200v5c0 64 26 152 259 152h25c219 0 261 -60 261 -136v-4c0 -84 -74 -115 -249 -135c-105 -12 -132 -23 -136 -34h387v-128zM847 744h205l-744 -744h-200zM158 543
h-117v121c112 0 139 25 160 81h158v-430h-201v228z" />
    <glyph glyph-name="threequarters" unicode="&#xbe;" horiz-adv-x="1475" 
d="M613 455c0 -68 -38 -148 -281 -148h-25c-241 0 -269 103 -269 156v6h203c1 -14 9 -46 81 -46c69 0 81 20 81 37c0 16 -8 30 -49 30h-109v98h109c36 0 44 12 44 26c0 15 -9 31 -78 31c-71 0 -75 -27 -76 -36h-200v5c0 48 23 138 260 138h29c240 0 263 -64 263 -111v-3
c0 -42 -36 -70 -89 -77c58 -7 106 -40 106 -104v-2zM867 74v114l254 241h228v-228h87v-127h-87v-74h-199v74h-283zM1043 744h205l-744 -744h-200zM1150 322l-127 -121h127v121z" />
    <glyph glyph-name="questiondown" unicode="&#xbf;" horiz-adv-x="882" 
d="M347 284v5h253v-39c0 -76 -21 -126 -148 -160l-59 -16c-59 -16 -75 -27 -75 -51c0 -27 20 -45 121 -45c127 0 131 54 132 80h277v-14c0 -87 -29 -239 -381 -239h-42c-325 1 -385 109 -385 215v10c0 97 60 158 207 193l51 13c41 11 49 23 49 48zM337 343v215h273v-215
h-273z" />
    <glyph glyph-name="Agrave" unicode="&#xc0;" horiz-adv-x="1041" 
d="M759 0l-55 121h-385l-54 -121h-269l344 744h353l352 -744h-286zM398 295h228l-115 254zM390 798l-126 156h282l97 -156h-253z" />
    <glyph glyph-name="Aacute" unicode="&#xc1;" horiz-adv-x="1041" 
d="M759 0l-55 121h-385l-54 -121h-269l344 744h353l352 -744h-286zM398 295h228l-115 254zM642 798h-252l96 156h282z" />
    <glyph glyph-name="Acircumflex" unicode="&#xc2;" horiz-adv-x="1041" 
d="M759 0l-55 121h-385l-54 -121h-269l344 744h353l352 -744h-286zM398 295h228l-115 254zM665 954l146 -158h-235l-61 66l-60 -66h-231l143 158h298z" />
    <glyph glyph-name="Atilde" unicode="&#xc3;" horiz-adv-x="1041" 
d="M759 0l-55 121h-385l-54 -121h-269l344 744h353l352 -744h-286zM398 295h228l-115 254zM429 833v-39h-137v90c0 51 24 105 99 105h2c42 0 77 -13 139 -37c33 -13 45 -18 56 -18c12 0 16 10 16 21v39h137v-89c0 -52 -25 -106 -99 -106h-3c-42 0 -76 13 -139 37
c-33 13 -45 18 -56 18s-15 -10 -15 -21z" />
    <glyph glyph-name="Adieresis" unicode="&#xc4;" horiz-adv-x="1041" 
d="M759 0l-55 121h-385l-54 -121h-269l344 744h353l352 -744h-286zM398 295h228l-115 254zM786 949v-151h-243v151h243zM489 949v-151h-243v151h243z" />
    <glyph glyph-name="Aring" unicode="&#xc5;" horiz-adv-x="1041" 
d="M759 0l-55 121h-385l-54 -121h-269l344 744h353l352 -744h-286zM398 295h228l-115 254zM326 925c0 67 40 135 190 135c151 0 190 -68 190 -135s-38 -137 -190 -137c-153 0 -190 71 -190 137zM581 925c0 28 -17 52 -65 52c-47 0 -65 -24 -65 -52s18 -54 65 -54
c48 0 65 26 65 54z" />
    <glyph glyph-name="AE" unicode="&#xc6;" horiz-adv-x="1387" 
d="M611 0v125h-276l-76 -125h-281l463 744h873v-180h-434v-95h419v-185h-419v-102h441v-182h-710zM437 294h174v288z" />
    <glyph glyph-name="Ccedilla" unicode="&#xc7;" horiz-adv-x="1073" 
d="M745 -176c0 -62 -27 -124 -204 -124h-153v110h130c32 0 39 10 39 24s-7 24 -39 24h-96v135c-304 34 -371 233 -371 366v30c0 147 79 367 466 367h45c390 0 461 -180 461 -306v-8h-279c-2 18 -19 112 -204 112c-173 0 -207 -100 -207 -172v-12c0 -71 36 -177 208 -177
c184 0 201 95 203 111h279v-8c0 -116 -70 -308 -461 -308h-1v-41h3c154 0 181 -53 181 -120v-3z" />
    <glyph glyph-name="Egrave" unicode="&#xc8;" horiz-adv-x="900" 
d="M339 798l-126 156h282l97 -156h-253zM84 744h743v-180h-474v-95h459v-185h-459v-102h481v-182h-750v744z" />
    <glyph glyph-name="Eacute" unicode="&#xc9;" horiz-adv-x="900" 
d="M582 798h-252l96 156h282zM84 744h743v-180h-474v-95h459v-185h-459v-102h481v-182h-750v744z" />
    <glyph glyph-name="Ecircumflex" unicode="&#xca;" horiz-adv-x="900" 
d="M606 954l146 -158h-235l-61 66l-60 -66h-231l143 158h298zM84 744h743v-180h-474v-95h459v-185h-459v-102h481v-182h-750v744z" />
    <glyph glyph-name="Edieresis" unicode="&#xcb;" horiz-adv-x="900" 
d="M84 744h743v-180h-474v-95h459v-185h-459v-102h481v-182h-750v744zM726 949v-151h-243v151h243zM429 949v-151h-243v151h243z" />
    <glyph glyph-name="Igrave" unicode="&#xcc;" horiz-adv-x="438" 
d="M354 744v-744h-270v744h270zM94 798l-126 156h282l97 -156h-253z" />
    <glyph glyph-name="Iacute" unicode="&#xcd;" horiz-adv-x="438" 
d="M354 744v-744h-270v744h270zM345 798h-252l96 156h282z" />
    <glyph glyph-name="Icircumflex" unicode="&#xce;" horiz-adv-x="438" 
d="M354 744v-744h-270v744h270zM369 954l146 -158h-235l-61 66l-60 -66h-231l143 158h298z" />
    <glyph glyph-name="Idieresis" unicode="&#xcf;" horiz-adv-x="438" 
d="M354 744v-744h-270v744h270zM489 949v-151h-243v151h243zM192 949v-151h-243v151h243z" />
    <glyph glyph-name="Eth" unicode="&#xd0;" horiz-adv-x="1095" 
d="M111 0v307h-96v136h96v301h438c406 0 496 -183 496 -351v-30c0 -170 -82 -363 -496 -363h-438zM381 553v-110h227v-136h-227v-115h136c222 0 246 104 246 179v6c0 72 -25 176 -246 176h-136z" />
    <glyph glyph-name="Ntilde" unicode="&#xd1;" horiz-adv-x="1107" 
d="M470 833v-39h-137v90c0 51 24 105 99 105h2c42 0 77 -13 139 -37c33 -13 45 -18 56 -18c12 0 16 10 16 21v39h137v-89c0 -52 -25 -106 -99 -106h-3c-42 0 -76 13 -139 37c-33 13 -45 18 -56 18s-15 -10 -15 -21zM764 0l-417 429v-429h-263v744h275l401 -416v416h263v-744
h-259z" />
    <glyph glyph-name="Ograve" unicode="&#xd2;" horiz-adv-x="1105" 
d="M426 798l-126 156h282l97 -156h-253zM530 757h45c397 0 479 -214 479 -368v-30c0 -152 -81 -372 -479 -372h-45c-396 0 -479 220 -479 372v30c1 154 83 368 479 368zM772 381c0 71 -31 174 -220 174c-188 0 -219 -103 -219 -174v-11c0 -72 34 -178 220 -178
c187 0 219 106 219 178v11z" />
    <glyph glyph-name="Oacute" unicode="&#xd3;" horiz-adv-x="1105" 
d="M678 798h-252l96 156h282zM530 757h45c397 0 479 -214 479 -368v-30c0 -152 -81 -372 -479 -372h-45c-396 0 -479 220 -479 372v30c1 154 83 368 479 368zM772 381c0 71 -31 174 -220 174c-188 0 -219 -103 -219 -174v-11c0 -72 34 -178 220 -178c187 0 219 106 219 178
v11z" />
    <glyph glyph-name="Ocircumflex" unicode="&#xd4;" horiz-adv-x="1105" 
d="M701 954l146 -158h-235l-61 66l-60 -66h-231l143 158h298zM530 757h45c397 0 479 -214 479 -368v-30c0 -152 -81 -372 -479 -372h-45c-396 0 -479 220 -479 372v30c1 154 83 368 479 368zM772 381c0 71 -31 174 -220 174c-188 0 -219 -103 -219 -174v-11
c0 -72 34 -178 220 -178c187 0 219 106 219 178v11z" />
    <glyph glyph-name="Otilde" unicode="&#xd5;" horiz-adv-x="1105" 
d="M465 833v-39h-137v90c0 51 24 105 99 105h2c42 0 77 -13 139 -37c33 -13 45 -18 56 -18c12 0 16 10 16 21v39h137v-89c0 -52 -25 -106 -99 -106h-3c-42 0 -76 13 -139 37c-33 13 -45 18 -56 18s-15 -10 -15 -21zM530 757h45c397 0 479 -214 479 -368v-30
c0 -152 -81 -372 -479 -372h-45c-396 0 -479 220 -479 372v30c1 154 83 368 479 368zM772 381c0 71 -31 174 -220 174c-188 0 -219 -103 -219 -174v-11c0 -72 34 -178 220 -178c187 0 219 106 219 178v11z" />
    <glyph glyph-name="Odieresis" unicode="&#xd6;" horiz-adv-x="1105" 
d="M822 949v-151h-243v151h243zM525 949v-151h-243v151h243zM530 757h45c397 0 479 -214 479 -368v-30c0 -152 -81 -372 -479 -372h-45c-396 0 -479 220 -479 372v30c1 154 83 368 479 368zM772 381c0 71 -31 174 -220 174c-188 0 -219 -103 -219 -174v-11
c0 -72 34 -178 220 -178c187 0 219 106 219 178v11z" />
    <glyph glyph-name="multiply" unicode="&#xd7;" horiz-adv-x="619" 
d="M570 176l-112 -115l-150 146l-150 -146l-109 111l146 144l-146 142l117 117l146 -144l147 145l111 -112l-146 -143z" />
    <glyph glyph-name="Oslash" unicode="&#xd8;" horiz-adv-x="1097" 
d="M1047 359c0 -147 -73 -372 -478 -372h-40c-114 0 -200 19 -267 48c-25 -21 -41 -35 -41 -35h-219s59 51 138 119c-70 74 -89 166 -89 240v30c-1 149 75 368 478 368h40c112 0 198 -18 265 -45c23 19 38 32 38 32h220s-57 -49 -134 -115c70 -73 89 -165 89 -240v-30z
M316 371c0 -33 7 -65 20 -93l322 275c-27 6 -62 10 -110 10c-195 0 -232 -104 -232 -180v-12zM781 383c0 33 -5 62 -16 88l-323 -275c26 -5 61 -9 107 -9c194 0 232 107 232 184v12z" />
    <glyph glyph-name="Ugrave" unicode="&#xd9;" horiz-adv-x="1094" 
d="M422 798l-126 156h282l97 -156h-253zM534 -11c-424 0 -453 253 -453 400v355h268v-353c0 -85 29 -183 198 -183h4c167 0 194 98 194 183v353h268v-355c0 -147 -40 -400 -448 -400h-31z" />
    <glyph glyph-name="Uacute" unicode="&#xda;" horiz-adv-x="1094" 
d="M673 798h-252l96 156h282zM534 -11c-424 0 -453 253 -453 400v355h268v-353c0 -85 29 -183 198 -183h4c167 0 194 98 194 183v353h268v-355c0 -147 -40 -400 -448 -400h-31z" />
    <glyph glyph-name="Ucircumflex" unicode="&#xdb;" horiz-adv-x="1094" 
d="M697 954l146 -158h-235l-61 66l-60 -66h-231l143 158h298zM534 -11c-424 0 -453 253 -453 400v355h268v-353c0 -85 29 -183 198 -183h4c167 0 194 98 194 183v353h268v-355c0 -147 -40 -400 -448 -400h-31z" />
    <glyph glyph-name="Udieresis" unicode="&#xdc;" horiz-adv-x="1094" 
d="M534 -11c-424 0 -453 253 -453 400v355h268v-353c0 -85 29 -183 198 -183h4c167 0 194 98 194 183v353h268v-355c0 -147 -40 -400 -448 -400h-31zM817 949v-151h-243v151h243zM520 949v-151h-243v151h243z" />
    <glyph glyph-name="Yacute" unicode="&#xdd;" horiz-adv-x="1002" 
d="M641 265v-265h-268v266l-388 478h328l205 -264l208 264h291zM644 798h-252l96 156h282z" />
    <glyph glyph-name="Thorn" unicode="&#xde;" horiz-adv-x="1012" 
d="M625 124h-271v-124h-270v744h270v-108h271c277 0 344 -108 344 -245v-14c0 -139 -72 -253 -344 -253zM354 450v-140h247c70 0 88 38 88 70v3c0 30 -18 67 -88 67h-247z" />
    <glyph glyph-name="germandbls" unicode="&#xdf;" horiz-adv-x="903" 
d="M658 446c84 -10 202 -59 202 -203v-9c0 -120 -63 -234 -330 -234h-141v174h114c74 0 89 36 89 71v1c0 35 -15 68 -90 68h-113v172h83c70 0 82 35 82 61v1c0 28 -12 60 -106 60h-7c-94 0 -111 -35 -111 -87v-521h-257v539c0 98 26 234 358 234h29c297 0 347 -101 347 -180
v-5c0 -82 -71 -131 -149 -142z" />
    <glyph glyph-name="agrave" unicode="&#xe0;" horiz-adv-x="837" 
d="M508 70c-19 -21 -79 -82 -217 -82h-17c-156 0 -231 76 -231 180v5c0 103 64 157 261 170l158 9c29 2 39 12 39 32v1c0 24 -12 45 -93 45h-4c-87 0 -93 -38 -94 -52h-253v1c0 75 31 193 330 193h34c305 0 332 -107 332 -194v-172c0 -20 6 -29 27 -29h31v-177h-208
c-56 0 -84 39 -95 70zM374 128c91 0 127 56 127 100v27c-18 -4 -58 -11 -101 -18c-82 -13 -103 -27 -103 -59v-2c0 -29 25 -48 77 -48zM431 772l99 -159h-247l-131 159h279z" />
    <glyph glyph-name="aacute" unicode="&#xe1;" horiz-adv-x="837" 
d="M508 70c-19 -21 -79 -82 -217 -82h-17c-156 0 -231 76 -231 180v5c0 103 64 157 261 170l158 9c29 2 39 12 39 32v1c0 24 -12 45 -93 45h-4c-87 0 -93 -38 -94 -52h-253v1c0 75 31 193 330 193h34c305 0 332 -107 332 -194v-172c0 -20 6 -29 27 -29h31v-177h-208
c-56 0 -84 39 -95 70zM374 128c91 0 127 56 127 100v27c-18 -4 -58 -11 -101 -18c-82 -13 -103 -27 -103 -59v-2c0 -29 25 -48 77 -48zM277 613l98 159h280l-131 -159h-247z" />
    <glyph glyph-name="acircumflex" unicode="&#xe2;" horiz-adv-x="837" 
d="M508 70c-19 -21 -79 -82 -217 -82h-17c-156 0 -231 76 -231 180v5c0 103 64 157 261 170l158 9c29 2 39 12 39 32v1c0 24 -12 45 -93 45h-4c-87 0 -93 -38 -94 -52h-253v1c0 75 31 193 330 193h34c305 0 332 -107 332 -194v-172c0 -20 6 -29 27 -29h31v-177h-208
c-56 0 -84 39 -95 70zM374 128c91 0 127 56 127 100v27c-18 -4 -58 -11 -101 -18c-82 -13 -103 -27 -103 -59v-2c0 -29 25 -48 77 -48zM557 772l140 -160h-236l-57 66l-56 -66h-233l139 160h303z" />
    <glyph glyph-name="atilde" unicode="&#xe3;" horiz-adv-x="837" 
d="M508 70c-19 -21 -79 -82 -217 -82h-17c-156 0 -231 76 -231 180v5c0 103 64 157 261 170l158 9c29 2 39 12 39 32v1c0 24 -12 45 -93 45h-4c-87 0 -93 -38 -94 -52h-253v1c0 75 31 193 330 193h34c305 0 332 -107 332 -194v-172c0 -20 6 -29 27 -29h31v-177h-208
c-56 0 -84 39 -95 70zM374 128c91 0 127 56 127 100v27c-18 -4 -58 -11 -101 -18c-82 -13 -103 -27 -103 -59v-2c0 -29 25 -48 77 -48zM624 810v-92c0 -51 -25 -106 -97 -106h-4c-42 0 -69 11 -131 38c-31 14 -44 20 -55 20c-12 0 -15 -9 -15 -21v-41h-137v92
c0 51 25 106 97 106h3c43 0 70 -11 132 -38c30 -14 44 -20 54 -20c12 0 16 9 16 21v41h137z" />
    <glyph glyph-name="adieresis" unicode="&#xe4;" horiz-adv-x="837" 
d="M508 70c-19 -21 -79 -82 -217 -82h-17c-156 0 -231 76 -231 180v5c0 103 64 157 261 170l158 9c29 2 39 12 39 32v1c0 24 -12 45 -93 45h-4c-87 0 -93 -38 -94 -52h-253v1c0 75 31 193 330 193h34c305 0 332 -107 332 -194v-172c0 -20 6 -29 27 -29h31v-177h-208
c-56 0 -84 39 -95 70zM374 128c91 0 127 56 127 100v27c-18 -4 -58 -11 -101 -18c-82 -13 -103 -27 -103 -59v-2c0 -29 25 -48 77 -48zM670 761v-151h-240v151h240zM378 761v-151h-240v151h240z" />
    <glyph glyph-name="aring" unicode="&#xe5;" horiz-adv-x="837" 
d="M508 70c-19 -21 -79 -82 -217 -82h-17c-156 0 -231 76 -231 180v5c0 103 64 157 261 170l158 9c29 2 39 12 39 32v1c0 24 -12 45 -93 45h-4c-87 0 -93 -38 -94 -52h-253v1c0 75 31 193 330 193h34c305 0 332 -107 332 -194v-172c0 -20 6 -29 27 -29h31v-177h-208
c-56 0 -84 39 -95 70zM374 128c91 0 127 56 127 100v27c-18 -4 -58 -11 -101 -18c-82 -13 -103 -27 -103 -59v-2c0 -29 25 -48 77 -48zM218 741c0 66 39 134 187 134c150 0 187 -68 187 -134c0 -67 -36 -137 -187 -137s-187 70 -187 137zM343 741c0 -28 18 -55 62 -55
c45 0 62 27 62 55c0 27 -17 51 -62 51c-44 0 -62 -24 -62 -51z" />
    <glyph glyph-name="ae" unicode="&#xe6;" horiz-adv-x="1326" 
d="M1281 180c-3 -64 -49 -194 -364 -194h-44c-163 1 -252 48 -298 107c-33 -45 -104 -104 -256 -104h-19c-179 0 -257 76 -257 179v5c0 102 65 155 260 169l153 10c30 3 39 12 39 31v1c0 23 -12 44 -91 44h-3c-85 0 -90 -37 -91 -52h-253v2c0 76 27 192 327 192h36
c125 0 193 -26 231 -60c41 37 108 62 212 62h45c317 0 375 -157 375 -317v-21h-519c11 -60 47 -95 138 -95c88 0 106 34 109 41h270zM890 431c-81 0 -113 -32 -124 -86h245c-2 44 -26 86 -121 86zM371 128c89 0 124 56 124 100v27c-18 -4 -57 -12 -98 -19
c-80 -13 -100 -27 -100 -58v-2c0 -28 23 -48 74 -48z" />
    <glyph glyph-name="ccedilla" unicode="&#xe7;" horiz-adv-x="861" 
d="M635 -176c0 -62 -26 -124 -203 -124h-153v110h130c31 0 38 10 38 24s-7 24 -38 24h-96v133c-230 33 -269 184 -269 286v14c0 113 53 282 365 282h39c339 0 369 -160 369 -236v-1h-268c-2 18 -20 72 -112 72h-8c-90 0 -117 -62 -117 -123v-1c0 -63 28 -131 118 -131h8
c94 0 109 61 111 79h268v-1c0 -84 -36 -246 -358 -246h-7v-38h3c154 0 180 -53 180 -120v-3z" />
    <glyph glyph-name="egrave" unicode="&#xe8;" horiz-adv-x="878" 
d="M832 182c-4 -66 -50 -196 -366 -196h-44c-314 0 -378 162 -378 286v14c0 128 66 286 367 286h45c320 0 378 -157 378 -317v-21h-524c11 -60 49 -95 142 -95c89 0 106 34 110 43h270zM438 431c-82 0 -114 -31 -126 -85h249c-1 43 -24 85 -123 85zM460 772l99 -159h-247
l-131 159h279z" />
    <glyph glyph-name="eacute" unicode="&#xe9;" horiz-adv-x="878" 
d="M311 613l98 159h280l-131 -159h-247zM832 182c-4 -66 -50 -196 -366 -196h-44c-314 0 -378 162 -378 286v14c0 128 66 286 367 286h45c320 0 378 -157 378 -317v-21h-524c11 -60 49 -95 142 -95c89 0 106 34 110 43h270zM438 431c-82 0 -114 -31 -126 -85h249
c-1 43 -24 85 -123 85z" />
    <glyph glyph-name="ecircumflex" unicode="&#xea;" horiz-adv-x="878" 
d="M588 772l140 -160h-236l-57 66l-56 -66h-233l139 160h303zM832 182c-4 -66 -50 -196 -366 -196h-44c-314 0 -378 162 -378 286v14c0 128 66 286 367 286h45c320 0 378 -157 378 -317v-21h-524c11 -60 49 -95 142 -95c89 0 106 34 110 43h270zM438 431
c-82 0 -114 -31 -126 -85h249c-1 43 -24 85 -123 85z" />
    <glyph glyph-name="edieresis" unicode="&#xeb;" horiz-adv-x="878" 
d="M834 234h-524c11 -60 49 -95 142 -95c89 0 106 34 110 43h270c-4 -66 -50 -196 -366 -196h-44c-314 0 -378 162 -378 286v14c0 128 66 286 367 286h45c320 0 378 -157 378 -317v-21zM409 761v-151h-240v151h240zM701 761v-151h-240v151h240zM438 431
c-82 0 -114 -31 -126 -85h249c-1 43 -24 85 -123 85z" />
    <glyph glyph-name="igrave" unicode="&#xec;" horiz-adv-x="404" 
d="M233 772l92 -159h-247l-114 159h269zM330 558v-558h-257v558h257z" />
    <glyph glyph-name="iacute" unicode="&#xed;" horiz-adv-x="404" 
d="M81 613l88 159h269l-111 -159h-246zM330 558v-558h-257v558h257z" />
    <glyph glyph-name="icircumflex" unicode="&#xee;" horiz-adv-x="404" 
d="M349 772l117 -160h-217l-47 68l-47 -68h-214l115 160h293zM330 558v-558h-257v558h257z" />
    <glyph glyph-name="idieresis" unicode="&#xef;" horiz-adv-x="404" 
d="M430 761v-151h-203v151h203zM176 761v-151h-202v151h202zM330 558v-558h-257v558h257z" />
    <glyph glyph-name="eth" unicode="&#xf0;" horiz-adv-x="886" 
d="M842 289c0 -132 -46 -304 -383 -304h-33c-305 0 -382 148 -382 278v15c0 143 73 272 280 272h9c79 0 132 -17 173 -40l-111 93l-238 -26v82l152 17l-97 81h298l65 -53l205 23v-81l-117 -13l12 -10c122 -101 167 -195 167 -318v-16zM574 280v1c0 54 -25 127 -127 127h-8
c-104 0 -126 -73 -126 -127v-1c0 -49 21 -127 126 -127h8c102 0 127 79 127 127z" />
    <glyph glyph-name="ntilde" unicode="&#xf1;" horiz-adv-x="886" 
d="M73 0v558h255v-87c31 36 103 102 238 102h10c167 0 239 -106 239 -212v-361h-258v279c0 58 -30 106 -111 106c-78 0 -116 -50 -116 -115v-270h-257zM664 810v-92c0 -51 -25 -106 -97 -106h-4c-42 0 -69 11 -131 38c-31 14 -44 20 -55 20c-12 0 -15 -9 -15 -21v-41h-137
v92c0 51 25 106 97 106h3c43 0 70 -11 132 -38c30 -14 44 -20 54 -20c12 0 16 9 16 21v41h137z" />
    <glyph glyph-name="ograve" unicode="&#xf2;" horiz-adv-x="886" 
d="M426 -15c-343 0 -382 186 -382 285v14c0 98 39 289 381 289h35c354 0 382 -191 382 -288v-16c0 -98 -28 -284 -383 -284h-33zM447 153c100 0 127 77 127 128c0 56 -27 127 -127 127h-8c-103 0 -127 -71 -127 -127c0 -52 23 -128 127 -128h8zM468 772l99 -159h-247
l-131 159h279z" />
    <glyph glyph-name="oacute" unicode="&#xf3;" horiz-adv-x="886" 
d="M319 613l98 159h280l-131 -159h-247zM426 -15c-343 0 -382 186 -382 285v14c0 98 39 289 381 289h35c354 0 382 -191 382 -288v-16c0 -98 -28 -284 -383 -284h-33zM447 153c100 0 127 77 127 128c0 56 -27 127 -127 127h-8c-103 0 -127 -71 -127 -127
c0 -52 23 -128 127 -128h8z" />
    <glyph glyph-name="ocircumflex" unicode="&#xf4;" horiz-adv-x="886" 
d="M595 772l140 -160h-236l-57 66l-56 -66h-233l139 160h303zM426 -15c-343 0 -382 186 -382 285v14c0 98 39 289 381 289h35c354 0 382 -191 382 -288v-16c0 -98 -28 -284 -383 -284h-33zM447 153c100 0 127 77 127 128c0 56 -27 127 -127 127h-8
c-103 0 -127 -71 -127 -127c0 -52 23 -128 127 -128h8z" />
    <glyph glyph-name="otilde" unicode="&#xf5;" horiz-adv-x="886" 
d="M426 -15c-343 0 -382 186 -382 285v14c0 98 39 289 381 289h35c354 0 382 -191 382 -288v-16c0 -98 -28 -284 -383 -284h-33zM447 153c100 0 127 77 127 128c0 56 -27 127 -127 127h-8c-103 0 -127 -71 -127 -127c0 -52 23 -128 127 -128h8zM662 810v-92
c0 -51 -25 -106 -97 -106h-4c-42 0 -69 11 -131 38c-31 14 -44 20 -55 20c-12 0 -15 -9 -15 -21v-41h-137v92c0 51 25 106 97 106h3c43 0 70 -11 132 -38c30 -14 44 -20 54 -20c12 0 16 9 16 21v41h137z" />
    <glyph glyph-name="odieresis" unicode="&#xf6;" horiz-adv-x="886" 
d="M708 761v-151h-240v151h240zM416 761v-151h-240v151h240zM426 -15c-343 0 -382 186 -382 285v14c0 98 39 289 381 289h35c354 0 382 -191 382 -288v-16c0 -98 -28 -284 -383 -284h-33zM447 153c100 0 127 77 127 128c0 56 -27 127 -127 127h-8c-103 0 -127 -71 -127 -127
c0 -52 23 -128 127 -128h8z" />
    <glyph glyph-name="divide" unicode="&#xf7;" horiz-adv-x="677" 
d="M441 622v-167h-205v167h205zM65 400h547v-154h-547v154zM441 188v-169h-205v169h205z" />
    <glyph glyph-name="oslash" unicode="&#xf8;" horiz-adv-x="884" 
d="M840 269c0 -95 -26 -284 -381 -284h-33c-89 0 -162 13 -217 40l-31 -25h-156l102 83c-64 56 -80 133 -80 187v14c0 95 33 289 381 289h35c93 0 163 -15 213 -39l30 24h156l-99 -80c65 -55 80 -141 80 -193v-16zM290 281c0 -20 3 -39 8 -55l224 185c-16 4 -40 9 -76 9h-10
c-123 -1 -146 -77 -146 -137v-2zM436 143h10c124 0 149 78 149 135v2c0 26 -2 44 -6 58l-226 -187c16 -4 40 -8 73 -8z" />
    <glyph glyph-name="ugrave" unicode="&#xf9;" horiz-adv-x="881" 
d="M807 558v-558h-255v87c-29 -34 -103 -102 -235 -102h-10c-166 0 -236 106 -236 213v360h258v-279c0 -56 28 -105 108 -105c75 0 113 49 113 114v270h257zM464 772l99 -159h-247l-131 159h279z" />
    <glyph glyph-name="uacute" unicode="&#xfa;" horiz-adv-x="881" 
d="M315 613l98 159h280l-131 -159h-247zM807 558v-558h-255v87c-29 -34 -103 -102 -235 -102h-10c-166 0 -236 106 -236 213v360h258v-279c0 -56 28 -105 108 -105c75 0 113 49 113 114v270h257z" />
    <glyph glyph-name="ucircumflex" unicode="&#xfb;" horiz-adv-x="881" 
d="M592 772l140 -160h-236l-57 66l-56 -66h-233l139 160h303zM807 558v-558h-255v87c-29 -34 -103 -102 -235 -102h-10c-166 0 -236 106 -236 213v360h258v-279c0 -56 28 -105 108 -105c75 0 113 49 113 114v270h257z" />
    <glyph glyph-name="udieresis" unicode="&#xfc;" horiz-adv-x="881" 
d="M705 761v-151h-240v151h240zM413 761v-151h-240v151h240zM807 558v-558h-255v87c-29 -34 -103 -102 -235 -102h-10c-166 0 -236 106 -236 213v360h258v-279c0 -56 28 -105 108 -105c75 0 113 49 113 114v270h257z" />
    <glyph glyph-name="yacute" unicode="&#xfd;" horiz-adv-x="803" 
d="M552 -46c-39 -96 -98 -143 -205 -143h-237v162h129c16 0 24 5 24 17c0 9 -5 20 -16 44l-244 524h283l132 -364l119 364h263zM288 613l98 159h280l-131 -159h-247z" />
    <glyph glyph-name="thorn" unicode="&#xfe;" horiz-adv-x="899" 
d="M73 -189v946h255v-268c24 25 92 80 220 80h8c233 0 297 -138 297 -279v-17c0 -128 -67 -284 -308 -284h-8c-127 0 -189 53 -209 72v-250h-255zM585 276v5c0 52 -29 121 -126 121h-5c-97 0 -126 -70 -126 -120v-6c0 -54 28 -119 126 -119h5c97 0 126 66 126 119z" />
    <glyph glyph-name="ydieresis" unicode="&#xff;" horiz-adv-x="803" 
d="M552 -46c-39 -96 -98 -143 -205 -143h-237v162h129c16 0 24 5 24 17c0 9 -5 20 -16 44l-244 524h283l132 -364l119 364h263zM386 761v-151h-240v151h240zM678 761v-151h-240v151h240z" />
    <glyph glyph-name="dotlessi" unicode="&#x131;" horiz-adv-x="404" 
d="M330 558v-558h-257v558h257z" />
    <glyph glyph-name="Lslash" unicode="&#x141;" horiz-adv-x="871" 
d="M107 744h270v-285l274 98v-141l-274 -95v-110h445v-211h-715v227l-98 -34v134l98 35v382z" />
    <glyph glyph-name="lslash" unicode="&#x142;" horiz-adv-x="461" 
d="M358 757v-230l90 37v-136l-90 -37v-391h-257v286l-88 -36v135l88 36v336h257z" />
    <glyph glyph-name="OE" unicode="&#x152;" horiz-adv-x="1451" 
d="M546 744h831v-179h-434v-96h419v-185h-419v-102h442v-182h-839c-410 0 -496 189 -496 360v30c0 171 91 354 496 354zM578 181h96v384h-96c-220 0 -246 -110 -246 -187v-6c0 -80 27 -191 246 -191z" />
    <glyph glyph-name="oe" unicode="&#x153;" horiz-adv-x="1406" 
d="M961 -14c-120 0 -198 33 -247 81c-48 -47 -130 -82 -272 -82h-38c-326 0 -360 188 -360 285v14c0 97 34 289 359 289h40c141 0 221 -35 269 -82c47 48 121 81 240 81h43c308 0 367 -157 367 -317v-21h-521c11 -60 48 -95 140 -95c88 0 105 34 109 41h270
c-3 -64 -51 -194 -355 -194h-44zM967 431c-81 0 -113 -31 -124 -86h246c-1 44 -25 86 -122 86zM569 280v1c0 53 -21 126 -125 126h-7c-105 0 -124 -73 -124 -126v-1c0 -48 18 -127 124 -127h7c104 0 125 80 125 127z" />
    <glyph glyph-name="Scaron" unicode="&#x160;" horiz-adv-x="988" 
d="M339 798l-145 156h235l61 -66l60 66h231l-143 -156h-299zM935 235c0 -121 -57 -247 -424 -247h-25c-396 0 -436 155 -436 254v6h290c3 -28 14 -88 153 -88h6c135 0 154 36 154 68c0 35 -20 60 -141 63l-104 3c-275 6 -348 108 -348 227v8c0 128 82 225 406 225h43
c357 0 414 -124 414 -233v-5h-285c-4 29 -24 71 -148 71h-8c-120 0 -143 -23 -143 -56c0 -32 22 -54 133 -58l107 -2c290 -8 356 -92 356 -224v-12z" />
    <glyph glyph-name="scaron" unicode="&#x161;" horiz-adv-x="804" 
d="M243 613l-140 159h236l57 -66l56 66h233l-139 -159h-303zM759 174c0 -91 -43 -187 -352 -187h-28c-319 0 -341 126 -341 190v3h275c2 -16 13 -48 89 -48h2c70 0 88 19 88 41c0 24 -16 36 -94 41l-88 7c-215 12 -261 90 -261 177v6c0 93 65 166 334 166h23
c295 0 344 -90 344 -178v-1h-266c-4 16 -14 44 -87 44h-5c-67 0 -84 -14 -84 -38s20 -37 89 -40l90 -3c222 -10 272 -75 272 -171v-9z" />
    <glyph glyph-name="Ydieresis" unicode="&#x178;" horiz-adv-x="1002" 
d="M641 265v-265h-268v266l-388 478h328l205 -264l208 264h291zM788 949v-151h-243v151h243zM491 949v-151h-243v151h243z" />
    <glyph glyph-name="Zcaron" unicode="&#x17d;" horiz-adv-x="960" 
d="M331 798l-145 156h235l61 -66l60 66h231l-143 -156h-299zM893 206v-206h-825v169l432 371h-428v204h817v-168l-451 -370h455z" />
    <glyph glyph-name="zcaron" unicode="&#x17e;" horiz-adv-x="779" 
d="M234 613l-140 159h236l57 -66l56 66h233l-139 -159h-303zM723 174v-174h-664v158l329 231h-325v169h648v-157l-340 -227h352z" />
    <glyph glyph-name="circumflex" unicode="&#x2c6;" horiz-adv-x="700" 
d="M501 772l140 -160h-236l-57 66l-56 -66h-233l139 160h303z" />
    <glyph glyph-name="caron" unicode="&#x2c7;" horiz-adv-x="700" 
d="M198 613l-140 159h236l57 -66l56 66h233l-139 -159h-303z" />
    <glyph glyph-name="breve" unicode="&#x2d8;" horiz-adv-x="700" 
d="M580 791c0 -64 -38 -182 -220 -182h-20c-187 0 -220 118 -220 182v1h172c1 -17 6 -58 58 -58h1c49 0 57 40 58 58h171v-1z" />
    <glyph glyph-name="dotaccent" unicode="&#x2d9;" horiz-adv-x="700" 
d="M479 761v-151h-258v151h258z" />
    <glyph glyph-name="ring" unicode="&#x2da;" horiz-adv-x="700" 
d="M163 741c0 66 39 134 187 134c150 0 187 -68 187 -134c0 -67 -36 -137 -187 -137s-187 70 -187 137zM288 741c0 -28 18 -55 62 -55c45 0 62 27 62 55c0 27 -17 51 -62 51c-44 0 -62 -24 -62 -51z" />
    <glyph glyph-name="ogonek" unicode="&#x2db;" horiz-adv-x="700" 
d="M503 -83v-107h-178c-88 0 -128 25 -128 73v3c0 52 54 83 195 114h107c-44 -25 -71 -41 -71 -61c0 -15 11 -22 38 -22h37z" />
    <glyph glyph-name="tilde" unicode="&#x2dc;" horiz-adv-x="700" 
d="M570 810v-92c0 -51 -25 -106 -97 -106h-4c-42 0 -69 11 -131 38c-31 14 -44 20 -55 20c-12 0 -15 -9 -15 -21v-41h-137v92c0 51 25 106 97 106h3c43 0 70 -11 132 -38c30 -14 44 -20 54 -20c12 0 16 9 16 21v41h137z" />
    <glyph glyph-name="hungarumlaut" unicode="&#x2dd;" horiz-adv-x="700" 
d="M49 613l79 159h232l-83 -159h-228zM332 613l85 159h233l-91 -159h-227z" />
    <glyph glyph-name="endash" unicode="&#x2013;" horiz-adv-x="863" 
d="M65 380h733v-159h-733v159z" />
    <glyph glyph-name="emdash" unicode="&#x2014;" horiz-adv-x="1302" 
d="M65 380h1172v-159h-1172v159z" />
    <glyph glyph-name="quoteleft" unicode="&#x2018;" horiz-adv-x="394" 
d="M115 744h159c-25 -40 -52 -106 -63 -147h124v-189h-275v153c0 69 33 145 55 183z" />
    <glyph glyph-name="quoteright" unicode="&#x2019;" horiz-adv-x="394" 
d="M278 408h-159c25 41 53 105 63 146h-123v190h274v-154c0 -68 -33 -144 -55 -182z" />
    <glyph glyph-name="quotesinglbase" unicode="&#x201a;" horiz-adv-x="394" 
d="M278 -146h-159c25 41 53 105 63 146h-123v190h274v-154c0 -68 -33 -144 -55 -182z" />
    <glyph glyph-name="quotedblleft" unicode="&#x201c;" horiz-adv-x="748" 
d="M115 744h159c-25 -40 -52 -106 -63 -147h124v-189h-275v153c0 69 33 145 55 183zM469 744h159c-25 -40 -52 -106 -62 -147h123v-189h-275v153c0 69 33 145 55 183z" />
    <glyph glyph-name="quotedblright" unicode="&#x201d;" horiz-adv-x="748" 
d="M278 408h-159c25 41 53 105 63 146h-123v190h274v-154c0 -68 -33 -144 -55 -182zM632 408h-159c25 41 53 105 63 146h-124v190h275v-154c0 -68 -32 -144 -55 -182z" />
    <glyph glyph-name="quotedblbase" unicode="&#x201e;" horiz-adv-x="748" 
d="M278 -146h-159c25 41 53 105 63 146h-123v190h274v-154c0 -68 -33 -144 -55 -182zM632 -146h-159c25 41 53 105 63 146h-124v190h275v-154c0 -68 -32 -144 -55 -182z" />
    <glyph glyph-name="dagger" unicode="&#x2020;" horiz-adv-x="600" 
d="M178 0v401h-146v191h146v152h244v-152h146v-191h-146v-401h-244z" />
    <glyph glyph-name="daggerdbl" unicode="&#x2021;" horiz-adv-x="608" 
d="M423 436v-127h146v-176h-146v-133h-238v133h-146v176h146v127h-146v176h146v132h238v-132h146v-176h-146z" />
    <glyph glyph-name="bullet" unicode="&#x2022;" horiz-adv-x="528" 
d="M481 325c0 -122 -88 -210 -218 -210c-129 0 -216 88 -216 210c0 123 87 211 216 211c130 0 218 -88 218 -211z" />
    <glyph glyph-name="ellipsis" unicode="&#x2026;" horiz-adv-x="1218" 
d="M343 223v-223h-280v223h280zM749 223v-223h-280v223h280zM1155 223v-223h-280v223h280z" />
    <glyph glyph-name="perthousand" unicode="&#x2030;" horiz-adv-x="2047" 
d="M1735 -8h-20c-227 0 -270 128 -270 211v15c0 83 43 205 270 205h20c229 0 273 -122 273 -205v-15c0 -83 -44 -211 -273 -211zM1726 296c-62 0 -93 -33 -93 -83v-3c0 -50 31 -85 93 -85s95 35 95 85v4c0 49 -33 82 -95 82zM328 321h-19c-228 0 -270 127 -270 210v16
c0 84 42 205 270 205h19c230 0 274 -121 274 -205v-16c0 -83 -44 -210 -274 -210zM964 744h201l-703 -744h-202zM414 538v5c0 49 -32 82 -94 82s-93 -33 -93 -84v-3c0 -49 31 -84 93 -84s94 35 94 84zM1116 -8h-19c-228 0 -270 128 -270 211v15c0 83 42 205 270 205h19
c230 0 273 -122 273 -205v-15c0 -83 -43 -211 -273 -211zM1108 296c-63 0 -93 -33 -93 -83v-3c0 -50 31 -85 93 -85s94 35 94 85v4c0 49 -32 82 -94 82z" />
    <glyph glyph-name="guilsinglleft" unicode="&#x2039;" horiz-adv-x="401" 
d="M234 292l129 -188h-196l-130 188l129 188h198z" />
    <glyph glyph-name="guilsinglright" unicode="&#x203a;" horiz-adv-x="401" 
d="M364 292l-130 -188h-196l129 188l-130 188h197z" />
    <glyph glyph-name="fraction" unicode="&#x2044;" horiz-adv-x="944" 
d="M739 744h205l-744 -744h-200z" />
    <glyph glyph-name="Euro" unicode="&#x20ac;" horiz-adv-x="1101" 
d="M1052 294c0 -111 -74 -305 -443 -305h-45c-293 0 -402 146 -434 278h-104v85h93v53h-93v83h106c33 129 143 267 432 267h45c369 0 443 -180 443 -303v-6h-278c-2 13 -18 118 -188 118c-94 0 -143 -33 -168 -76h229v-83h-251c-1 -7 -1 -14 -1 -21v-12c0 -7 0 -13 1 -20
h251v-85h-228c26 -46 75 -81 168 -81c169 0 185 106 187 118h278v-10z" />
    <glyph glyph-name="trademark" unicode="&#x2122;" horiz-adv-x="1178" 
d="M30 616v128h434v-128h-128v-235h-175v235h-131zM524 381v363h238l62 -179l62 179h227v-363h-145v236l-92 -236h-118l-90 236v-236h-144z" />
    <glyph glyph-name="minus" unicode="&#x2212;" horiz-adv-x="659" 
d="M65 401h529v-156h-529v156z" />
    <glyph glyph-name="Dcroat" unicode="&#x110;" horiz-adv-x="1095" 
d="M111 0v307h-96v136h96v301h438c406 0 496 -183 496 -351v-30c0 -170 -82 -363 -496 -363h-438zM381 553v-110h227v-136h-227v-115h136c222 0 246 104 246 179v6c0 72 -25 176 -246 176h-136z" />
    <glyph glyph-name="Eng" unicode="&#x14a;" horiz-adv-x="1108" 
d="M1023 12c0 -130 -56 -203 -176 -203h-249v174h134c19 0 28 7 28 20c0 11 -6 18 -23 35l-390 393v-431h-263v744h275l401 -411v411h263v-732z" />
    <glyph glyph-name="IJ" unicode="&#x132;" horiz-adv-x="1369" 
d="M354 744v-744h-270v744h270zM1288 345c0 -146 -60 -358 -388 -358h-40c-330 0 -388 204 -388 343v5h271c3 -41 19 -136 133 -136h3c106 0 139 72 139 157v388h270v-399z" />
    <glyph glyph-name="dcroat" unicode="&#x111;" horiz-adv-x="901" 
d="M570 757h257v-53h88v-89h-88v-615h-256v66c-20 -21 -82 -77 -212 -77h-12c-223 0 -301 145 -301 277v24c0 130 73 279 300 279h11c126 0 190 -42 213 -60v106h-275v89h275v53zM438 402c-97 0 -124 -68 -124 -120v-3c0 -52 29 -122 124 -122h9c95 0 125 68 125 121v5
c0 51 -30 119 -125 119h-9z" />
    <glyph glyph-name="eng" unicode="&#x14b;" horiz-adv-x="886" 
d="M521 -25c29 0 36 13 36 39v265c0 58 -30 106 -111 106c-78 0 -116 -50 -116 -115v-270h-257v558h255v-87c31 36 103 102 238 102h10c167 0 239 -106 239 -212v-396c0 -95 -47 -154 -140 -154h-207v164h53z" />
    <glyph glyph-name="ij" unicode="&#x133;" horiz-adv-x="808" 
d="M330 761v-151h-257v151h257zM330 558v-558h-257v558h257zM733 761v-151h-257v151h257zM388 -25h53c28 0 35 13 35 39v544h257v-593c0 -95 -47 -154 -140 -154h-205v164z" />
    <glyph glyph-name="Abreve" unicode="&#x102;" horiz-adv-x="1041" 
d="M759 0l-55 121h-385l-54 -121h-269l344 744h353l352 -744h-286zM398 295h228l-115 254zM746 973c0 -63 -42 -180 -221 -180h-21c-195 0 -222 117 -222 180v2h172c2 -21 10 -57 61 -57h1c49 0 59 36 60 57h170v-2z" />
    <glyph glyph-name="Amacron" unicode="&#x100;" horiz-adv-x="1041" 
d="M759 0l-55 121h-385l-54 -121h-269l344 744h353l352 -744h-286zM398 295h228l-115 254zM303 809v133h426v-133h-426z" />
    <glyph glyph-name="Aogonek" unicode="&#x104;" horiz-adv-x="1041" 
d="M759 0l-55 121h-385l-54 -121h-269l344 744h353l352 -744h-286zM398 295h228l-115 254zM1049 -83v-107h-178c-88 0 -128 25 -128 73v3c0 52 54 83 195 114h107c-44 -25 -71 -41 -71 -61c0 -15 11 -22 38 -22h37z" />
    <glyph glyph-name="Aringacute" unicode="&#x1fa;" horiz-adv-x="1041" 
d="M759 0l-55 121h-385l-54 -121h-269l344 744h353l352 -744h-286zM398 295h228l-115 254zM642 1090h-252l96 156h282zM326 925c0 67 40 135 190 135c151 0 190 -68 190 -135s-38 -137 -190 -137c-153 0 -190 71 -190 137zM581 925c0 28 -17 52 -65 52
c-47 0 -65 -24 -65 -52s18 -54 65 -54c48 0 65 26 65 54z" />
    <glyph glyph-name="AEacute" unicode="&#x1fc;" horiz-adv-x="1387" 
d="M1003 798h-252l96 156h282zM611 0v125h-276l-76 -125h-281l463 744h873v-180h-434v-95h419v-185h-419v-102h441v-182h-710zM437 294h174v288z" />
    <glyph glyph-name="Cacute" unicode="&#x106;" horiz-adv-x="1073" 
d="M562 -12h-45c-386 0 -466 225 -466 371v30c0 147 79 367 466 367h45c390 0 461 -180 461 -306v-8h-279c-2 18 -19 112 -204 112c-173 0 -207 -100 -207 -172v-12c0 -71 36 -177 208 -177c184 0 201 95 203 111h279v-8c0 -116 -70 -308 -461 -308zM665 798h-252l96 156
h282z" />
    <glyph glyph-name="Ccaron" unicode="&#x10c;" horiz-adv-x="1073" 
d="M391 798l-145 156h235l61 -66l60 66h231l-143 -156h-299zM562 -12h-45c-386 0 -466 225 -466 371v30c0 147 79 367 466 367h45c390 0 461 -180 461 -306v-8h-279c-2 18 -19 112 -204 112c-173 0 -207 -100 -207 -172v-12c0 -71 36 -177 208 -177c184 0 201 95 203 111
h279v-8c0 -116 -70 -308 -461 -308z" />
    <glyph glyph-name="Ccircumflex" unicode="&#x108;" horiz-adv-x="1073" 
d="M689 954l146 -158h-235l-61 66l-60 -66h-231l143 158h298zM562 -12h-45c-386 0 -466 225 -466 371v30c0 147 79 367 466 367h45c390 0 461 -180 461 -306v-8h-279c-2 18 -19 112 -204 112c-173 0 -207 -100 -207 -172v-12c0 -71 36 -177 208 -177c184 0 201 95 203 111
h279v-8c0 -116 -70 -308 -461 -308z" />
    <glyph glyph-name="Cdotaccent" unicode="&#x10a;" horiz-adv-x="1073" 
d="M562 -12h-45c-386 0 -466 225 -466 371v30c0 147 79 367 466 367h45c390 0 461 -180 461 -306v-8h-279c-2 18 -19 112 -204 112c-173 0 -207 -100 -207 -172v-12c0 -71 36 -177 208 -177c184 0 201 95 203 111h279v-8c0 -116 -70 -308 -461 -308zM669 949v-151h-258v151
h258z" />
    <glyph glyph-name="Dcaron" unicode="&#x10e;" horiz-adv-x="1068" 
d="M298 798l-145 156h235l61 -66l60 66h231l-143 -156h-299zM84 0v744h438c406 0 496 -183 496 -351v-30c0 -170 -82 -363 -496 -363h-438zM354 553v-361h136c222 0 246 104 246 179v6c0 72 -25 176 -246 176h-136z" />
    <glyph glyph-name="Ebreve" unicode="&#x114;" horiz-adv-x="900" 
d="M84 744h743v-180h-474v-95h459v-185h-459v-102h481v-182h-750v744zM686 973c0 -63 -42 -180 -221 -180h-21c-195 0 -222 117 -222 180v2h172c2 -21 10 -57 61 -57h1c49 0 59 36 60 57h170v-2z" />
    <glyph glyph-name="Ecaron" unicode="&#x11a;" horiz-adv-x="900" 
d="M308 798l-145 156h235l61 -66l60 66h231l-143 -156h-299zM84 744h743v-180h-474v-95h459v-185h-459v-102h481v-182h-750v744z" />
    <glyph glyph-name="Edotaccent" unicode="&#x116;" horiz-adv-x="900" 
d="M586 949v-151h-258v151h258zM84 744h743v-180h-474v-95h459v-185h-459v-102h481v-182h-750v744z" />
    <glyph glyph-name="Emacron" unicode="&#x112;" horiz-adv-x="900" 
d="M84 744h743v-180h-474v-95h459v-185h-459v-102h481v-182h-750v744zM243 809v133h426v-133h-426z" />
    <glyph glyph-name="Eogonek" unicode="&#x118;" horiz-adv-x="900" 
d="M84 744h743v-180h-474v-95h459v-185h-459v-102h481v-182h-96c-44 -25 -71 -41 -71 -61c0 -15 11 -22 38 -22h37v-107h-178c-88 0 -128 25 -128 73v3c0 52 54 83 195 114h-547v744z" />
    <glyph glyph-name="Gbreve" unicode="&#x11e;" horiz-adv-x="1112" 
d="M777 973c0 -63 -42 -180 -221 -180h-21c-195 0 -222 117 -222 180v2h172c2 -21 10 -57 61 -57h1c49 0 59 36 60 57h170v-2zM813 95c-24 -26 -112 -106 -303 -106h-17c-342 0 -442 206 -442 376v20c0 164 96 371 478 371h35c388 0 467 -166 467 -274v-4h-283
c-7 19 -35 79 -201 79c-172 0 -216 -89 -216 -177v-10c0 -84 48 -183 216 -183c161 0 200 67 204 90h-213v139h502v-416h-191c-4 25 -22 72 -36 95z" />
    <glyph glyph-name="Gcircumflex" unicode="&#x11c;" horiz-adv-x="1112" 
d="M696 954l146 -158h-235l-61 66l-60 -66h-231l143 158h298zM813 95c-24 -26 -112 -106 -303 -106h-17c-342 0 -442 206 -442 376v20c0 164 96 371 478 371h35c388 0 467 -166 467 -274v-4h-283c-7 19 -35 79 -201 79c-172 0 -216 -89 -216 -177v-10
c0 -84 48 -183 216 -183c161 0 200 67 204 90h-213v139h502v-416h-191c-4 25 -22 72 -36 95z" />
    <glyph glyph-name="uni0122" unicode="&#x122;" horiz-adv-x="1112" 
d="M632 -292h-146c15 26 29 60 33 85h-109v155h272v-114c0 -47 -27 -96 -50 -126zM813 95c-24 -26 -112 -106 -303 -106h-17c-342 0 -442 206 -442 376v20c0 164 96 371 478 371h35c388 0 467 -166 467 -274v-4h-283c-7 19 -35 79 -201 79c-172 0 -216 -89 -216 -177v-10
c0 -84 48 -183 216 -183c161 0 200 67 204 90h-213v139h502v-416h-191c-4 25 -22 72 -36 95z" />
    <glyph glyph-name="Gdotaccent" unicode="&#x120;" horiz-adv-x="1112" 
d="M676 949v-151h-258v151h258zM813 95c-24 -26 -112 -106 -303 -106h-17c-342 0 -442 206 -442 376v20c0 164 96 371 478 371h35c388 0 467 -166 467 -274v-4h-283c-7 19 -35 79 -201 79c-172 0 -216 -89 -216 -177v-10c0 -84 48 -183 216 -183c161 0 200 67 204 90h-213
v139h502v-416h-191c-4 25 -22 72 -36 95z" />
    <glyph glyph-name="Hbar" unicode="&#x126;" horiz-adv-x="1093" 
d="M735 0v282h-377v-282h-269v557h-85v110h85v77h269v-77h377v77h269v-77h85v-110h-85v-557h-269zM358 481h377v76h-377v-76z" />
    <glyph glyph-name="Hcircumflex" unicode="&#x124;" horiz-adv-x="1084" 
d="M731 0v282h-377v-282h-270v744h270v-262h377v262h269v-744h-269zM691 954l146 -158h-235l-61 66l-60 -66h-231l143 158h298z" />
    <glyph glyph-name="Ibreve" unicode="&#x12c;" horiz-adv-x="438" 
d="M354 744v-744h-270v744h270zM450 973c0 -63 -42 -180 -221 -180h-21c-195 0 -222 117 -222 180v2h172c2 -21 10 -57 61 -57h1c49 0 59 36 60 57h170v-2z" />
    <glyph glyph-name="Idotaccent" unicode="&#x130;" horiz-adv-x="438" 
d="M354 744v-744h-270v744h270zM349 949v-151h-258v151h258z" />
    <glyph glyph-name="Imacron" unicode="&#x12a;" horiz-adv-x="438" 
d="M354 744v-744h-270v744h270zM7 809v133h426v-133h-426z" />
    <glyph glyph-name="Iogonek" unicode="&#x12e;" horiz-adv-x="438" 
d="M358 -83v-107h-178c-88 0 -128 25 -128 73v3c0 52 54 83 195 114h-163v744h270v-744c-44 -25 -71 -41 -71 -61c0 -15 11 -22 38 -22h37z" />
    <glyph glyph-name="Itilde" unicode="&#x128;" horiz-adv-x="438" 
d="M354 744v-744h-270v744h270zM132 833v-39h-137v90c0 51 24 105 99 105h2c42 0 77 -13 139 -37c33 -13 45 -18 56 -18c12 0 16 10 16 21v39h137v-89c0 -52 -25 -106 -99 -106h-3c-42 0 -76 13 -139 37c-33 13 -45 18 -56 18s-15 -10 -15 -21z" />
    <glyph glyph-name="Jcircumflex" unicode="&#x134;" horiz-adv-x="931" 
d="M863 954l146 -158h-235l-61 66l-60 -66h-231l143 158h298zM850 345c0 -146 -60 -358 -388 -358h-40c-330 0 -388 204 -388 343v5h271c3 -41 19 -136 133 -136h3c106 0 139 72 139 157v388h270v-399z" />
    <glyph glyph-name="uni0136" unicode="&#x136;" horiz-adv-x="986" 
d="M590 -292h-146c15 26 29 60 33 85h-109v155h272v-114c0 -47 -27 -96 -50 -126zM660 0l-307 332v-332h-269v744h269v-288l306 288h317l-362 -336l387 -408h-341z" />
    <glyph glyph-name="Lacute" unicode="&#x139;" horiz-adv-x="848" 
d="M345 798h-252l96 156h282zM84 744h270v-533h445v-211h-715v744z" />
    <glyph glyph-name="Lcaron" unicode="&#x13d;" horiz-adv-x="847" 
d="M393 597l24 154h208l-36 -154h-196zM84 744h270v-533h445v-211h-715v744z" />
    <glyph glyph-name="uni013B" unicode="&#x13b;" horiz-adv-x="848" 
d="M527 -292h-146c15 26 29 60 33 85h-109v155h272v-114c0 -47 -27 -96 -50 -126zM84 744h270v-533h445v-211h-715v744z" />
    <glyph glyph-name="Ldot" unicode="&#x13f;" horiz-adv-x="849" 
d="M84 744h270v-533h445v-211h-715v744zM789 539v-221h-279v221h279z" />
    <glyph glyph-name="Nacute" unicode="&#x143;" horiz-adv-x="1107" 
d="M679 798h-252l96 156h282zM764 0l-417 429v-429h-263v744h275l401 -416v416h263v-744h-259z" />
    <glyph glyph-name="Ncaron" unicode="&#x147;" horiz-adv-x="1107" 
d="M406 798l-145 156h235l61 -66l60 66h231l-143 -156h-299zM764 0l-417 429v-429h-263v744h275l401 -416v416h263v-744h-259z" />
    <glyph glyph-name="uni0145" unicode="&#x145;" horiz-adv-x="1107" 
d="M639 -292h-146c15 26 29 60 33 85h-109v155h272v-114c0 -47 -27 -96 -50 -126zM764 0l-417 429v-429h-263v744h275l401 -416v416h263v-744h-259z" />
    <glyph glyph-name="Obreve" unicode="&#x14e;" horiz-adv-x="1105" 
d="M782 973c0 -63 -42 -180 -221 -180h-21c-195 0 -222 117 -222 180v2h172c2 -21 10 -57 61 -57h1c49 0 59 36 60 57h170v-2zM530 757h45c397 0 479 -214 479 -368v-30c0 -152 -81 -372 -479 -372h-45c-396 0 -479 220 -479 372v30c1 154 83 368 479 368zM772 381
c0 71 -31 174 -220 174c-188 0 -219 -103 -219 -174v-11c0 -72 34 -178 220 -178c187 0 219 106 219 178v11z" />
    <glyph glyph-name="Ohungarumlaut" unicode="&#x150;" horiz-adv-x="1105" 
d="M584 798l83 156h232l-87 -156h-228zM301 798l75 156h231l-80 -156h-226zM530 757h45c397 0 479 -214 479 -368v-30c0 -152 -81 -372 -479 -372h-45c-396 0 -479 220 -479 372v30c1 154 83 368 479 368zM772 381c0 71 -31 174 -220 174c-188 0 -219 -103 -219 -174v-11
c0 -72 34 -178 220 -178c187 0 219 106 219 178v11z" />
    <glyph glyph-name="Omacron" unicode="&#x14c;" horiz-adv-x="1105" 
d="M339 809v133h426v-133h-426zM530 757h45c397 0 479 -214 479 -368v-30c0 -152 -81 -372 -479 -372h-45c-396 0 -479 220 -479 372v30c1 154 83 368 479 368zM772 381c0 71 -31 174 -220 174c-188 0 -219 -103 -219 -174v-11c0 -72 34 -178 220 -178
c187 0 219 106 219 178v11z" />
    <glyph glyph-name="Oslashacute" unicode="&#x1fe;" horiz-adv-x="1097" 
d="M1047 359c0 -147 -73 -372 -478 -372h-40c-114 0 -200 19 -267 48c-25 -21 -41 -35 -41 -35h-219s59 51 138 119c-70 74 -89 166 -89 240v30c-1 149 75 368 478 368h40c112 0 198 -18 265 -45c23 19 38 32 38 32h220s-57 -49 -134 -115c70 -73 89 -165 89 -240v-30z
M316 371c0 -33 7 -65 20 -93l322 275c-27 6 -62 10 -110 10c-195 0 -232 -104 -232 -180v-12zM781 383c0 33 -5 62 -16 88l-323 -275c26 -5 61 -9 107 -9c194 0 232 107 232 184v12zM675 798h-252l96 156h282z" />
    <glyph glyph-name="Racute" unicode="&#x154;" horiz-adv-x="1064" 
d="M642 798h-252l96 156h282zM829 358c96 -15 173 -62 173 -177v-115c0 -39 5 -51 11 -61v-5h-277c-3 4 -7 18 -7 46v63c0 96 -33 124 -139 124h-236v-233h-270v744h601c272 0 311 -106 311 -203v-7c0 -106 -82 -159 -167 -176zM354 554v-127h275c71 0 87 31 87 64v2
c0 32 -16 61 -87 61h-275z" />
    <glyph glyph-name="Rcaron" unicode="&#x158;" horiz-adv-x="1064" 
d="M368 798l-145 156h235l61 -66l60 66h231l-143 -156h-299zM829 358c96 -15 173 -62 173 -177v-115c0 -39 5 -51 11 -61v-5h-277c-3 4 -7 18 -7 46v63c0 96 -33 124 -139 124h-236v-233h-270v744h601c272 0 311 -106 311 -203v-7c0 -106 -82 -159 -167 -176zM354 554v-127
h275c71 0 87 31 87 64v2c0 32 -16 61 -87 61h-275z" />
    <glyph glyph-name="uni0156" unicode="&#x156;" horiz-adv-x="1064" 
d="M625 -292h-146c15 26 29 60 33 85h-109v155h272v-114c0 -47 -27 -96 -50 -126zM829 358c96 -15 173 -62 173 -177v-115c0 -39 5 -51 11 -61v-5h-277c-3 4 -7 18 -7 46v63c0 96 -33 124 -139 124h-236v-233h-270v744h601c272 0 311 -106 311 -203v-7
c0 -106 -82 -159 -167 -176zM354 554v-127h275c71 0 87 31 87 64v2c0 32 -16 61 -87 61h-275z" />
    <glyph glyph-name="Sacute" unicode="&#x15a;" horiz-adv-x="988" 
d="M935 235c0 -121 -57 -247 -424 -247h-25c-396 0 -436 155 -436 254v6h290c3 -28 14 -88 153 -88h6c135 0 154 36 154 68c0 35 -20 60 -141 63l-104 3c-275 6 -348 108 -348 227v8c0 128 82 225 406 225h43c357 0 414 -124 414 -233v-5h-285c-4 29 -24 71 -148 71h-8
c-120 0 -143 -23 -143 -56c0 -32 22 -54 133 -58l107 -2c290 -8 356 -92 356 -224v-12zM613 798h-252l96 156h282z" />
    <glyph glyph-name="uni015E" unicode="&#x15e;" horiz-adv-x="988" 
d="M500 -300h-153v110h130c31 0 38 10 38 24s-7 24 -38 24h-96v134c-298 25 -331 161 -331 250v6h290c3 -28 14 -88 153 -88h6c135 0 154 36 154 68c0 35 -20 60 -141 63l-104 3c-275 6 -348 108 -348 227v8c0 128 82 225 406 225h43c357 0 414 -124 414 -233v-5h-285
c-4 29 -24 71 -148 71h-8c-120 0 -143 -23 -143 -56c0 -32 22 -54 133 -58l107 -2c290 -8 356 -92 356 -224v-12c0 -121 -57 -247 -415 -247v-41h3c154 0 180 -53 180 -120v-3c0 -62 -26 -124 -203 -124z" />
    <glyph glyph-name="Scircumflex" unicode="&#x15c;" horiz-adv-x="988" 
d="M637 954l146 -158h-235l-61 66l-60 -66h-231l143 158h298zM935 235c0 -121 -57 -247 -424 -247h-25c-396 0 -436 155 -436 254v6h290c3 -28 14 -88 153 -88h6c135 0 154 36 154 68c0 35 -20 60 -141 63l-104 3c-275 6 -348 108 -348 227v8c0 128 82 225 406 225h43
c357 0 414 -124 414 -233v-5h-285c-4 29 -24 71 -148 71h-8c-120 0 -143 -23 -143 -56c0 -32 22 -54 133 -58l107 -2c290 -8 356 -92 356 -224v-12z" />
    <glyph glyph-name="uni0218" unicode="&#x218;" horiz-adv-x="988" 
d="M581 -292h-146c15 26 29 60 33 85h-109v155h272v-114c0 -47 -27 -96 -50 -126zM935 235c0 -121 -57 -247 -424 -247h-25c-396 0 -436 155 -436 254v6h290c3 -28 14 -88 153 -88h6c135 0 154 36 154 68c0 35 -20 60 -141 63l-104 3c-275 6 -348 108 -348 227v8
c0 128 82 225 406 225h43c357 0 414 -124 414 -233v-5h-285c-4 29 -24 71 -148 71h-8c-120 0 -143 -23 -143 -56c0 -32 22 -54 133 -58l107 -2c290 -8 356 -92 356 -224v-12z" />
    <glyph glyph-name="Tcaron" unicode="&#x164;" horiz-adv-x="957" 
d="M329 798l-145 156h235l61 -66l60 66h231l-143 -156h-299zM46 539v205h865v-205h-298v-539h-269v539h-298z" />
    <glyph glyph-name="Tcommaaccent" unicode="&#x162;" horiz-adv-x="957" 
d="M564 -292h-146c15 26 29 60 33 85h-109v155h272v-114c0 -47 -27 -96 -50 -126zM46 539v205h865v-205h-298v-539h-269v539h-298z" />
    <glyph glyph-name="uni021A" unicode="&#x21a;" horiz-adv-x="957" 
d="M564 -292h-146c15 26 29 60 33 85h-109v155h272v-114c0 -47 -27 -96 -50 -126zM46 539v205h865v-205h-298v-539h-269v539h-298z" />
    <glyph glyph-name="Tbar" unicode="&#x166;" horiz-adv-x="957" 
d="M46 539v205h865v-205h-298v-137h219v-134h-219v-268h-269v268h-220v134h220v137h-298z" />
    <glyph glyph-name="Ubreve" unicode="&#x16c;" horiz-adv-x="1094" 
d="M534 -11c-424 0 -453 253 -453 400v355h268v-353c0 -85 29 -183 198 -183h4c167 0 194 98 194 183v353h268v-355c0 -147 -40 -400 -448 -400h-31zM778 973c0 -63 -42 -180 -221 -180h-21c-195 0 -222 117 -222 180v2h172c2 -21 10 -57 61 -57h1c49 0 59 36 60 57h170v-2z
" />
    <glyph glyph-name="Uhungarumlaut" unicode="&#x170;" horiz-adv-x="1094" 
d="M575 798l83 156h232l-87 -156h-228zM292 798l75 156h231l-80 -156h-226zM534 -11c-424 0 -453 253 -453 400v355h268v-353c0 -85 29 -183 198 -183h4c167 0 194 98 194 183v353h268v-355c0 -147 -40 -400 -448 -400h-31z" />
    <glyph glyph-name="Umacron" unicode="&#x16a;" horiz-adv-x="1094" 
d="M534 -11c-424 0 -453 253 -453 400v355h268v-353c0 -85 29 -183 198 -183h4c167 0 194 98 194 183v353h268v-355c0 -147 -40 -400 -448 -400h-31zM335 809v133h426v-133h-426z" />
    <glyph glyph-name="Uogonek" unicode="&#x172;" horiz-adv-x="1094" 
d="M785 -85v-106h-179c-87 0 -127 25 -127 73v2c0 46 40 77 158 108c-22 -2 -46 -3 -72 -3h-31c-424 0 -453 253 -453 400v355h268v-353c0 -85 29 -183 198 -183h4c167 0 194 98 194 183v353h268v-355c0 -142 -38 -271 -196 -364c-75 -45 -108 -63 -108 -85
c0 -16 11 -25 38 -25h38z" />
    <glyph glyph-name="Uring" unicode="&#x16e;" horiz-adv-x="1094" 
d="M534 -11c-424 0 -453 253 -453 400v355h268v-353c0 -85 29 -183 198 -183h4c167 0 194 98 194 183v353h268v-355c0 -147 -40 -400 -448 -400h-31zM357 907c0 67 40 135 190 135c151 0 190 -68 190 -135s-38 -137 -190 -137c-153 0 -190 71 -190 137zM612 907
c0 28 -17 52 -65 52c-47 0 -65 -24 -65 -52s18 -54 65 -54c48 0 65 26 65 54z" />
    <glyph glyph-name="Utilde" unicode="&#x168;" horiz-adv-x="1094" 
d="M534 -11c-424 0 -453 253 -453 400v355h268v-353c0 -85 29 -183 198 -183h4c167 0 194 98 194 183v353h268v-355c0 -147 -40 -400 -448 -400h-31zM460 833v-39h-137v90c0 51 24 105 99 105h2c42 0 77 -13 139 -37c33 -13 45 -18 56 -18c12 0 16 10 16 21v39h137v-89
c0 -52 -25 -106 -99 -106h-3c-42 0 -76 13 -139 37c-33 13 -45 18 -56 18s-15 -10 -15 -21z" />
    <glyph glyph-name="Wacute" unicode="&#x1e82;" horiz-adv-x="1424" 
d="M850 798h-252l96 156h282zM858 0l-143 465l-144 -465h-314l-255 744h289l146 -491l144 491h288l144 -491l146 491h263l-248 -744h-316z" />
    <glyph glyph-name="Wcircumflex" unicode="&#x174;" horiz-adv-x="1424" 
d="M874 954l146 -158h-235l-61 66l-60 -66h-231l143 158h298zM858 0l-143 465l-144 -465h-314l-255 744h289l146 -491l144 491h288l144 -491l146 491h263l-248 -744h-316z" />
    <glyph glyph-name="Wdieresis" unicode="&#x1e84;" horiz-adv-x="1424" 
d="M995 949v-151h-243v151h243zM698 949v-151h-243v151h243zM858 0l-143 465l-144 -465h-314l-255 744h289l146 -491l144 491h288l144 -491l146 491h263l-248 -744h-316z" />
    <glyph glyph-name="Wgrave" unicode="&#x1e80;" horiz-adv-x="1424" 
d="M599 798l-126 156h282l97 -156h-253zM858 0l-143 465l-144 -465h-314l-255 744h289l146 -491l144 491h288l144 -491l146 491h263l-248 -744h-316z" />
    <glyph glyph-name="Ycircumflex" unicode="&#x176;" horiz-adv-x="1002" 
d="M641 265v-265h-268v266l-388 478h328l205 -264l208 264h291zM668 954l146 -158h-235l-61 66l-60 -66h-231l143 158h298z" />
    <glyph glyph-name="Ygrave" unicode="&#x1ef2;" horiz-adv-x="1002" 
d="M641 265v-265h-268v266l-388 478h328l205 -264l208 264h291zM393 798l-126 156h282l97 -156h-253z" />
    <glyph glyph-name="Zacute" unicode="&#x179;" horiz-adv-x="960" 
d="M606 798h-252l96 156h282zM893 206v-206h-825v169l432 371h-428v204h817v-168l-451 -370h455z" />
    <glyph glyph-name="Zdotaccent" unicode="&#x17b;" horiz-adv-x="960" 
d="M893 206v-206h-825v169l432 371h-428v204h817v-168l-451 -370h455zM610 949v-151h-258v151h258z" />
    <glyph glyph-name="abreve" unicode="&#x103;" horiz-adv-x="837" 
d="M508 70c-19 -21 -79 -82 -217 -82h-17c-156 0 -231 76 -231 180v5c0 103 64 157 261 170l158 9c29 2 39 12 39 32v1c0 24 -12 45 -93 45h-4c-87 0 -93 -38 -94 -52h-253v1c0 75 31 193 330 193h34c305 0 332 -107 332 -194v-172c0 -20 6 -29 27 -29h31v-177h-208
c-56 0 -84 39 -95 70zM374 128c91 0 127 56 127 100v27c-18 -4 -58 -11 -101 -18c-82 -13 -103 -27 -103 -59v-2c0 -29 25 -48 77 -48zM636 791c0 -64 -38 -182 -220 -182h-20c-187 0 -220 118 -220 182v1h172c1 -17 6 -58 58 -58h1c49 0 57 40 58 58h171v-1z" />
    <glyph glyph-name="amacron" unicode="&#x101;" horiz-adv-x="837" 
d="M508 70c-19 -21 -79 -82 -217 -82h-17c-156 0 -231 76 -231 180v5c0 103 64 157 261 170l158 9c29 2 39 12 39 32v1c0 24 -12 45 -93 45h-4c-87 0 -93 -38 -94 -52h-253v1c0 75 31 193 330 193h34c305 0 332 -107 332 -194v-172c0 -20 6 -29 27 -29h31v-177h-208
c-56 0 -84 39 -95 70zM374 128c91 0 127 56 127 100v27c-18 -4 -58 -11 -101 -18c-82 -13 -103 -27 -103 -59v-2c0 -29 25 -48 77 -48zM197 621v133h422v-133h-422z" />
    <glyph glyph-name="aogonek" unicode="&#x105;" horiz-adv-x="837" 
d="M815 -83v-107h-178c-88 0 -128 25 -128 73v3c0 52 54 83 195 114h-101c-56 0 -84 39 -95 70c-19 -21 -79 -82 -217 -82h-17c-156 0 -231 76 -231 180v5c0 103 64 157 261 170l158 9c29 2 39 12 39 32v1c0 24 -12 45 -93 45h-4c-87 0 -93 -38 -94 -52h-253v1
c0 75 31 193 330 193h34c305 0 332 -107 332 -194v-172c0 -20 6 -29 27 -29h31v-177c-44 -25 -71 -41 -71 -61c0 -15 11 -22 38 -22h37zM374 128c91 0 127 56 127 100v27c-18 -4 -58 -11 -101 -18c-82 -13 -103 -27 -103 -59v-2c0 -29 25 -48 77 -48z" />
    <glyph glyph-name="aringacute" unicode="&#x1fb;" horiz-adv-x="837" 
d="M508 70c-19 -21 -79 -82 -217 -82h-17c-156 0 -231 76 -231 180v5c0 103 64 157 261 170l158 9c29 2 39 12 39 32v1c0 24 -12 45 -93 45h-4c-87 0 -93 -38 -94 -52h-253v1c0 75 31 193 330 193h34c305 0 332 -107 332 -194v-172c0 -20 6 -29 27 -29h31v-177h-208
c-56 0 -84 39 -95 70zM374 128c91 0 127 56 127 100v27c-18 -4 -58 -11 -101 -18c-82 -13 -103 -27 -103 -59v-2c0 -29 25 -48 77 -48zM281 903l98 159h280l-131 -159h-247zM218 741c0 66 39 134 187 134c150 0 187 -68 187 -134c0 -67 -36 -137 -187 -137s-187 70 -187 137
zM343 741c0 -28 18 -55 62 -55c45 0 62 27 62 55c0 27 -17 51 -62 51c-44 0 -62 -24 -62 -51z" />
    <glyph glyph-name="aeacute" unicode="&#x1fd;" horiz-adv-x="1326" 
d="M525 613l98 159h280l-131 -159h-247zM1281 180c-3 -64 -49 -194 -364 -194h-44c-163 1 -252 48 -298 107c-33 -45 -104 -104 -256 -104h-19c-179 0 -257 76 -257 179v5c0 102 65 155 260 169l153 10c30 3 39 12 39 31v1c0 23 -12 44 -91 44h-3c-85 0 -90 -37 -91 -52
h-253v2c0 76 27 192 327 192h36c125 0 193 -26 231 -60c41 37 108 62 212 62h45c317 0 375 -157 375 -317v-21h-519c11 -60 47 -95 138 -95c88 0 106 34 109 41h270zM890 431c-81 0 -113 -32 -124 -86h245c-2 44 -26 86 -121 86zM371 128c89 0 124 56 124 100v27
c-18 -4 -57 -12 -98 -19c-80 -13 -100 -27 -100 -58v-2c0 -28 23 -48 74 -48z" />
    <glyph glyph-name="cacute" unicode="&#x107;" horiz-adv-x="861" 
d="M305 613l98 159h280l-131 -159h-247zM817 231c0 -84 -36 -246 -358 -246h-49c-317 0 -366 177 -366 292v14c0 113 53 282 365 282h39c339 0 369 -160 369 -236v-1h-268c-2 18 -20 72 -112 72h-8c-90 0 -117 -62 -117 -123v-1c0 -63 28 -131 118 -131h8
c94 0 109 61 111 79h268v-1z" />
    <glyph glyph-name="ccaron" unicode="&#x10d;" horiz-adv-x="861" 
d="M276 613l-140 159h236l57 -66l56 66h233l-139 -159h-303zM817 231c0 -84 -36 -246 -358 -246h-49c-317 0 -366 177 -366 292v14c0 113 53 282 365 282h39c339 0 369 -160 369 -236v-1h-268c-2 18 -20 72 -112 72h-8c-90 0 -117 -62 -117 -123v-1c0 -63 28 -131 118 -131
h8c94 0 109 61 111 79h268v-1z" />
    <glyph glyph-name="ccircumflex" unicode="&#x109;" horiz-adv-x="861" 
d="M582 772l140 -160h-236l-57 66l-56 -66h-233l139 160h303zM817 231c0 -84 -36 -246 -358 -246h-49c-317 0 -366 177 -366 292v14c0 113 53 282 365 282h39c339 0 369 -160 369 -236v-1h-268c-2 18 -20 72 -112 72h-8c-90 0 -117 -62 -117 -123v-1c0 -63 28 -131 118 -131
h8c94 0 109 61 111 79h268v-1z" />
    <glyph glyph-name="cdotaccent" unicode="&#x10b;" horiz-adv-x="861" 
d="M817 231c0 -84 -36 -246 -358 -246h-49c-317 0 -366 177 -366 292v14c0 113 53 282 365 282h39c339 0 369 -160 369 -236v-1h-268c-2 18 -20 72 -112 72h-8c-90 0 -117 -62 -117 -123v-1c0 -63 28 -131 118 -131h8c94 0 109 61 111 79h268v-1zM559 761v-151h-258v151h258
z" />
    <glyph glyph-name="dcaron" unicode="&#x10f;" horiz-adv-x="901" 
d="M866 610l24 154h208l-36 -154h-196zM570 757h257v-757h-256v66c-20 -21 -82 -77 -212 -77h-12c-223 0 -301 145 -301 277v24c0 130 73 279 300 279h11c126 0 190 -42 213 -60v248zM438 402c-97 0 -124 -68 -124 -120v-3c0 -52 29 -122 124 -122h9c95 0 125 68 125 121v5
c0 51 -30 119 -125 119h-9z" />
    <glyph glyph-name="ebreve" unicode="&#x115;" horiz-adv-x="878" 
d="M832 182c-4 -66 -50 -196 -366 -196h-44c-314 0 -378 162 -378 286v14c0 128 66 286 367 286h45c320 0 378 -157 378 -317v-21h-524c11 -60 49 -95 142 -95c89 0 106 34 110 43h270zM438 431c-82 0 -114 -31 -126 -85h249c-1 43 -24 85 -123 85zM664 791
c0 -64 -38 -182 -220 -182h-20c-187 0 -220 118 -220 182v1h172c1 -17 6 -58 58 -58h1c49 0 57 40 58 58h171v-1z" />
    <glyph glyph-name="ecaron" unicode="&#x11b;" horiz-adv-x="878" 
d="M282 613l-140 159h236l57 -66l56 66h233l-139 -159h-303zM832 182c-4 -66 -50 -196 -366 -196h-44c-314 0 -378 162 -378 286v14c0 128 66 286 367 286h45c320 0 378 -157 378 -317v-21h-524c11 -60 49 -95 142 -95c89 0 106 34 110 43h270zM438 431
c-82 0 -114 -31 -126 -85h249c-1 43 -24 85 -123 85z" />
    <glyph glyph-name="edotaccent" unicode="&#x117;" horiz-adv-x="878" 
d="M832 182c-4 -66 -50 -196 -366 -196h-44c-314 0 -378 162 -378 286v14c0 128 66 286 367 286h45c320 0 378 -157 378 -317v-21h-524c11 -60 49 -95 142 -95c89 0 106 34 110 43h270zM438 431c-82 0 -114 -31 -126 -85h249c-1 43 -24 85 -123 85zM565 761v-151h-258v151
h258z" />
    <glyph glyph-name="emacron" unicode="&#x113;" horiz-adv-x="878" 
d="M832 182c-4 -66 -50 -196 -366 -196h-44c-314 0 -378 162 -378 286v14c0 128 66 286 367 286h45c320 0 378 -157 378 -317v-21h-524c11 -60 49 -95 142 -95c89 0 106 34 110 43h270zM438 431c-82 0 -114 -31 -126 -85h249c-1 43 -24 85 -123 85zM224 621v133h422v-133
h-422z" />
    <glyph glyph-name="eogonek" unicode="&#x119;" horiz-adv-x="878" 
d="M702 -82v-108h-180c-89 0 -129 25 -129 73v2c0 46 43 76 152 104c-24 -2 -50 -3 -79 -3h-44c-314 0 -378 163 -378 287v14c0 128 66 286 367 286h45c320 0 378 -157 378 -317v-21h-524c11 -60 49 -95 142 -95c89 0 106 34 110 43h270c-4 -56 -30 -108 -119 -167
c-65 -42 -88 -54 -88 -75c0 -14 12 -23 40 -23h37zM438 432c-82 0 -114 -31 -126 -85h249c-1 43 -24 85 -123 85z" />
    <glyph glyph-name="gbreve" unicode="&#x11f;" horiz-adv-x="903" 
d="M830 63c0 -154 -87 -268 -362 -268h-29c-326 0 -360 119 -360 187v3h283c5 -11 20 -31 96 -31h7c75 0 108 42 108 101v36c-19 -21 -78 -72 -209 -72h-13c-230 0 -305 135 -305 266v18c0 134 77 267 298 267h11c134 0 195 -45 218 -64v52h257v-495zM440 407
c-97 0 -126 -60 -126 -112v-2c0 -51 30 -113 126 -113h8c97 0 126 61 126 111v5c0 47 -31 111 -126 111h-8zM672 791c0 -64 -38 -182 -220 -182h-20c-187 0 -220 118 -220 182v1h172c1 -17 6 -58 58 -58h1c49 0 57 40 58 58h171v-1z" />
    <glyph glyph-name="gcircumflex" unicode="&#x11d;" horiz-adv-x="903" 
d="M588 772l140 -160h-236l-57 66l-56 -66h-233l139 160h303zM830 63c0 -154 -87 -268 -362 -268h-29c-326 0 -360 119 -360 187v3h283c5 -11 20 -31 96 -31h7c75 0 108 42 108 101v36c-19 -21 -78 -72 -209 -72h-13c-230 0 -305 135 -305 266v18c0 134 77 267 298 267h11
c134 0 195 -45 218 -64v52h257v-495zM440 407c-97 0 -126 -60 -126 -112v-2c0 -51 30 -113 126 -113h8c97 0 126 61 126 111v5c0 47 -31 111 -126 111h-8z" />
    <glyph glyph-name="uni0123" unicode="&#x123;" horiz-adv-x="903" 
d="M345 852h145c-15 -25 -29 -59 -33 -84h108v-154h-269v114c0 45 26 95 49 124zM830 63c0 -154 -87 -268 -362 -268h-29c-326 0 -360 119 -360 187v3h283c5 -11 20 -31 96 -31h7c75 0 108 42 108 101v36c-19 -21 -78 -72 -209 -72h-13c-230 0 -305 135 -305 266v18
c0 134 77 267 298 267h11c134 0 195 -45 218 -64v52h257v-495zM440 407c-97 0 -126 -60 -126 -112v-2c0 -51 30 -113 126 -113h8c97 0 126 61 126 111v5c0 47 -31 111 -126 111h-8z" />
    <glyph glyph-name="gdotaccent" unicode="&#x121;" horiz-adv-x="903" 
d="M830 63c0 -154 -87 -268 -362 -268h-29c-326 0 -360 119 -360 187v3h283c5 -11 20 -31 96 -31h7c75 0 108 42 108 101v36c-19 -21 -78 -72 -209 -72h-13c-230 0 -305 135 -305 266v18c0 134 77 267 298 267h11c134 0 195 -45 218 -64v52h257v-495zM440 407
c-97 0 -126 -60 -126 -112v-2c0 -51 30 -113 126 -113h8c97 0 126 61 126 111v5c0 47 -31 111 -126 111h-8zM563 761v-151h-258v151h258z" />
    <glyph glyph-name="hbar" unicode="&#x127;" horiz-adv-x="883" 
d="M330 270v-270h-257v615h-88v89h88v53h257v-53h271v-89h-271v-142c30 34 101 100 236 100h10c167 0 239 -106 239 -212v-361h-258v279c0 58 -30 106 -111 106c-78 0 -116 -50 -116 -115z" />
    <glyph glyph-name="hcircumflex" unicode="&#x125;" horiz-adv-x="886" 
d="M535 971l140 -160h-236l-57 66l-56 -66h-233l139 160h303zM73 0v757h257v-284c30 34 101 100 236 100h10c167 0 239 -106 239 -212v-361h-258v279c0 58 -30 106 -111 106c-78 0 -116 -50 -116 -115v-270h-257z" />
    <glyph glyph-name="ibreve" unicode="&#x12d;" horiz-adv-x="404" 
d="M420 791c0 -60 -35 -183 -211 -183h-16c-180 0 -212 123 -212 183v1h166c1 -15 4 -58 54 -58h1c45 0 51 43 52 58h166v-1zM330 558v-558h-257v558h257z" />
    <glyph glyph-name="idotaccent" horiz-adv-x="404" 
d="M330 761v-151h-257v151h257zM330 558v-558h-257v558h257z" />
    <glyph glyph-name="imacron" unicode="&#x12b;" horiz-adv-x="404" 
d="M9 621v133h385v-133h-385zM330 558v-558h-257v558h257z" />
    <glyph glyph-name="iogonek" unicode="&#x12f;" horiz-adv-x="404" 
d="M335 -83v-107h-178c-88 0 -128 25 -128 73v3c0 52 54 83 195 114h-151v558h257v-558h1c-44 -25 -71 -41 -71 -61c0 -15 11 -22 38 -22h37zM330 761v-151h-257v151h257z" />
    <glyph glyph-name="itilde" unicode="&#x129;" horiz-adv-x="404" 
d="M410 810v-92c0 -51 -23 -106 -92 -106h-3c-41 0 -66 11 -126 38c-29 14 -42 20 -51 20c-12 0 -16 -9 -16 -21v-41h-130v92c0 51 23 106 92 106h3c40 0 66 -11 125 -38c29 -14 42 -20 52 -20c12 0 15 9 15 21v41h131zM330 558v-558h-257v558h257z" />
    <glyph glyph-name="jcircumflex" unicode="&#x135;" horiz-adv-x="404" 
d="M348 769l118 -158h-217l-47 64l-47 -64h-214l117 158h290zM-15 -25h53c28 0 35 13 35 39v544h257v-593c0 -95 -47 -154 -140 -154h-205v164z" />
    <glyph glyph-name="uni0137" unicode="&#x137;" horiz-adv-x="794" 
d="M505 -292h-146c15 26 29 60 33 85h-109v155h272v-114c0 -47 -27 -96 -50 -126zM509 0l-179 244v-244h-257v757h257v-408l163 209h282l-208 -250l233 -308h-291z" />
    <glyph glyph-name="lacute" unicode="&#x13a;" horiz-adv-x="404" 
d="M80 810l98 159h280l-131 -159h-247zM330 757v-757h-257v757h257z" />
    <glyph glyph-name="lcaron" unicode="&#x13e;" horiz-adv-x="404" 
d="M369 610l24 154h208l-36 -154h-196zM330 757v-757h-257v757h257z" />
    <glyph glyph-name="uni013C" unicode="&#x13c;" horiz-adv-x="404" 
d="M290 -292h-146c15 26 29 60 33 85h-109v155h272v-114c0 -47 -27 -96 -50 -126zM330 757v-757h-257v757h257z" />
    <glyph glyph-name="ldot" unicode="&#x140;" horiz-adv-x="691" 
d="M330 757v-757h-257v757h257zM687 483v-221h-279v221h279z" />
    <glyph glyph-name="nacute" unicode="&#x144;" horiz-adv-x="886" 
d="M317 613l98 159h280l-131 -159h-247zM73 0v558h255v-87c31 36 103 102 238 102h10c167 0 239 -106 239 -212v-361h-258v279c0 58 -30 106 -111 106c-78 0 -116 -50 -116 -115v-270h-257z" />
    <glyph glyph-name="napostrophe" unicode="&#x149;" horiz-adv-x="1188" 
d="M241 408h-159c25 41 53 105 63 146h-123v190h274v-154c0 -68 -33 -144 -55 -182zM374 0v558h255v-87c31 36 103 102 238 102h10c167 0 239 -106 239 -212v-361h-258v279c0 58 -30 106 -111 106c-78 0 -116 -50 -116 -115v-270h-257z" />
    <glyph glyph-name="ncaron" unicode="&#x148;" horiz-adv-x="886" 
d="M291 613l-140 159h236l57 -66l56 66h233l-139 -159h-303zM73 0v558h255v-87c31 36 103 102 238 102h10c167 0 239 -106 239 -212v-361h-258v279c0 58 -30 106 -111 106c-78 0 -116 -50 -116 -115v-270h-257z" />
    <glyph glyph-name="uni0146" unicode="&#x146;" horiz-adv-x="886" 
d="M530 -292h-146c15 26 29 60 33 85h-109v155h272v-114c0 -47 -27 -96 -50 -126zM73 0v558h255v-87c31 36 103 102 238 102h10c167 0 239 -106 239 -212v-361h-258v279c0 58 -30 106 -111 106c-78 0 -116 -50 -116 -115v-270h-257z" />
    <glyph glyph-name="obreve" unicode="&#x14f;" horiz-adv-x="886" 
d="M426 -15c-343 0 -382 186 -382 285v14c0 98 39 289 381 289h35c354 0 382 -191 382 -288v-16c0 -98 -28 -284 -383 -284h-33zM447 153c100 0 127 77 127 128c0 56 -27 127 -127 127h-8c-103 0 -127 -71 -127 -127c0 -52 23 -128 127 -128h8zM672 791
c0 -64 -38 -182 -220 -182h-20c-187 0 -220 118 -220 182v1h172c1 -17 6 -58 58 -58h1c49 0 57 40 58 58h171v-1z" />
    <glyph glyph-name="ohungarumlaut" unicode="&#x151;" horiz-adv-x="886" 
d="M187 613l79 159h232l-83 -159h-228zM470 613l85 159h233l-91 -159h-227zM426 -15c-343 0 -382 186 -382 285v14c0 98 39 289 381 289h35c354 0 382 -191 382 -288v-16c0 -98 -28 -284 -383 -284h-33zM447 153c100 0 127 77 127 128c0 56 -27 127 -127 127h-8
c-103 0 -127 -71 -127 -127c0 -52 23 -128 127 -128h8z" />
    <glyph glyph-name="omacron" unicode="&#x14d;" horiz-adv-x="886" 
d="M232 621v133h422v-133h-422zM426 -15c-343 0 -382 186 -382 285v14c0 98 39 289 381 289h35c354 0 382 -191 382 -288v-16c0 -98 -28 -284 -383 -284h-33zM447 153c100 0 127 77 127 128c0 56 -27 127 -127 127h-8c-103 0 -127 -71 -127 -127c0 -52 23 -128 127 -128h8z
" />
    <glyph glyph-name="oslashacute" unicode="&#x1ff;" horiz-adv-x="884" 
d="M840 269c0 -95 -26 -284 -381 -284h-33c-89 0 -162 13 -217 40l-31 -25h-156l102 83c-64 56 -80 133 -80 187v14c0 95 33 289 381 289h35c93 0 163 -15 213 -39l30 24h156l-99 -80c65 -55 80 -141 80 -193v-16zM290 281c0 -20 3 -39 8 -55l224 185c-16 4 -40 9 -76 9h-10
c-123 -1 -146 -77 -146 -137v-2zM436 143h10c124 0 149 78 149 135v2c0 26 -2 44 -6 58l-226 -187c16 -4 40 -8 73 -8zM318 613l98 159h280l-131 -159h-247z" />
    <glyph glyph-name="racute" unicode="&#x155;" horiz-adv-x="771" 
d="M278 613l98 159h280l-131 -159h-247zM330 288v-288h-257v558h255v-91c18 30 74 104 197 104h8c154 0 198 -109 198 -225c0 -37 -2 -60 -3 -81h-256v27c0 61 -18 92 -67 92c-50 0 -75 -33 -75 -96z" />
    <glyph glyph-name="rcaron" unicode="&#x159;" horiz-adv-x="771" 
d="M248 613l-140 159h236l57 -66l56 66h233l-139 -159h-303zM330 288v-288h-257v558h255v-91c18 30 74 104 197 104h8c154 0 198 -109 198 -225c0 -37 -2 -60 -3 -81h-256v27c0 61 -18 92 -67 92c-50 0 -75 -33 -75 -96z" />
    <glyph glyph-name="uni0157" unicode="&#x157;" horiz-adv-x="771" 
d="M290 -292h-146c15 26 29 60 33 85h-109v155h272v-114c0 -47 -27 -96 -50 -126zM330 288v-288h-257v558h255v-91c18 30 74 104 197 104h8c154 0 198 -109 198 -225c0 -37 -2 -60 -3 -81h-256v27c0 61 -18 92 -67 92c-50 0 -75 -33 -75 -96z" />
    <glyph glyph-name="sacute" unicode="&#x15b;" horiz-adv-x="804" 
d="M272 613l98 159h280l-131 -159h-247zM759 174c0 -91 -43 -187 -352 -187h-28c-319 0 -341 126 -341 190v3h275c2 -16 13 -48 89 -48h2c70 0 88 19 88 41c0 24 -16 36 -94 41l-88 7c-215 12 -261 90 -261 177v6c0 93 65 166 334 166h23c295 0 344 -90 344 -178v-1h-266
c-4 16 -14 44 -87 44h-5c-67 0 -84 -14 -84 -38s20 -37 89 -40l90 -3c222 -10 272 -75 272 -171v-9z" />
    <glyph glyph-name="uni015F" unicode="&#x15f;" horiz-adv-x="804" 
d="M398 -300h-152v110h130c31 0 38 10 38 24s-7 24 -38 24h-96v134c-225 23 -242 128 -242 185v3h275c2 -16 13 -48 89 -48h2c70 0 88 19 88 41c0 24 -16 36 -94 41l-88 7c-215 12 -261 90 -261 177v6c0 93 65 166 334 166h23c295 0 344 -90 344 -178v-1h-266
c-4 16 -14 44 -87 44h-5c-67 0 -84 -14 -84 -38s20 -37 89 -40l90 -3c222 -10 272 -75 272 -171v-9c0 -90 -42 -185 -341 -187v-40h3c154 0 181 -53 181 -120v-3c0 -62 -27 -124 -204 -124z" />
    <glyph glyph-name="scircumflex" unicode="&#x15d;" horiz-adv-x="804" 
d="M549 772l140 -160h-236l-57 66l-56 -66h-233l139 160h303zM759 174c0 -91 -43 -187 -352 -187h-28c-319 0 -341 126 -341 190v3h275c2 -16 13 -48 89 -48h2c70 0 88 19 88 41c0 24 -16 36 -94 41l-88 7c-215 12 -261 90 -261 177v6c0 93 65 166 334 166h23
c295 0 344 -90 344 -178v-1h-266c-4 16 -14 44 -87 44h-5c-67 0 -84 -14 -84 -38s20 -37 89 -40l90 -3c222 -10 272 -75 272 -171v-9z" />
    <glyph glyph-name="uni0219" unicode="&#x219;" horiz-adv-x="804" 
d="M484 -292h-146c15 26 29 60 33 85h-109v155h272v-114c0 -47 -27 -96 -50 -126zM759 174c0 -91 -43 -187 -352 -187h-28c-319 0 -341 126 -341 190v3h275c2 -16 13 -48 89 -48h2c70 0 88 19 88 41c0 24 -16 36 -94 41l-88 7c-215 12 -261 90 -261 177v6
c0 93 65 166 334 166h23c295 0 344 -90 344 -178v-1h-266c-4 16 -14 44 -87 44h-5c-67 0 -84 -14 -84 -38s20 -37 89 -40l90 -3c222 -10 272 -75 272 -171v-9z" />
    <glyph glyph-name="tbar" unicode="&#x167;" horiz-adv-x="578" 
d="M523 175v-175h-216c-88 0 -152 49 -152 148v98h-114v94h114v56h-114v162h114v168h253v-168h115v-162h-115v-56h115v-94h-115v-14c0 -41 11 -57 55 -57h60z" />
    <glyph glyph-name="tcaron" unicode="&#x165;" horiz-adv-x="569" 
d="M442 610l24 154h208l-36 -154h-196zM518 180v-180h-216c-88 0 -152 49 -152 148v243h-113v167h113v168h254v-168h114v-167h-114v-154c0 -41 10 -57 54 -57h60z" />
    <glyph glyph-name="tcommaaccent" unicode="&#x163;" horiz-adv-x="569" 
d="M436 -292h-146c15 26 29 60 33 85h-109v155h272v-114c0 -47 -27 -96 -50 -126zM518 180v-180h-216c-88 0 -152 49 -152 148v243h-113v167h113v168h254v-168h114v-167h-114v-154c0 -41 10 -57 54 -57h60z" />
    <glyph glyph-name="uni021B" unicode="&#x21b;" horiz-adv-x="569" 
d="M436 -292h-146c15 26 29 60 33 85h-109v155h272v-114c0 -47 -27 -96 -50 -126zM518 180v-180h-216c-88 0 -152 49 -152 148v243h-113v167h113v168h254v-168h114v-167h-114v-154c0 -41 10 -57 54 -57h60z" />
    <glyph glyph-name="ubreve" unicode="&#x16d;" horiz-adv-x="881" 
d="M807 0v558h-257v-270c0 -65 -38 -114 -113 -114c-80 0 -108 49 -108 105v279h-258v-360c0 -107 70 -213 236 -213h10c132 0 206 68 235 102v-87h255zM669 791c0 -64 -38 -182 -220 -182h-20c-187 0 -220 118 -220 182v1h172c1 -17 6 -58 58 -58h1c49 0 57 40 58 58h171
v-1z" />
    <glyph glyph-name="uhungarumlaut" unicode="&#x171;" horiz-adv-x="881" 
d="M807 558v-558h-255v87c-29 -34 -103 -102 -235 -102h-10c-166 0 -236 106 -236 213v360h258v-279c0 -56 28 -105 108 -105c75 0 113 49 113 114v270h257zM184 613l79 159h232l-83 -159h-228zM467 613l85 159h233l-91 -159h-227z" />
    <glyph glyph-name="umacron" unicode="&#x16b;" horiz-adv-x="881" 
d="M807 558v-558h-255v87c-29 -34 -103 -102 -235 -102h-10c-166 0 -236 106 -236 213v360h258v-279c0 -56 28 -105 108 -105c75 0 113 49 113 114v270h257zM229 621v133h422v-133h-422z" />
    <glyph glyph-name="uogonek" unicode="&#x173;" horiz-adv-x="881" 
d="M807 558v-558c-44 -25 -71 -41 -71 -61c0 -15 11 -22 38 -22h37v-107h-178c-88 0 -128 25 -128 73v3c0 52 54 83 195 114h-148v87c-29 -34 -103 -102 -235 -102h-10c-166 0 -236 106 -236 213v360h258v-279c0 -56 28 -105 108 -105c75 0 113 49 113 114v270h257z" />
    <glyph glyph-name="uring" unicode="&#x16f;" horiz-adv-x="881" 
d="M252 741c0 66 39 134 187 134c150 0 187 -68 187 -134c0 -67 -36 -137 -187 -137s-187 70 -187 137zM377 741c0 -28 18 -55 62 -55c45 0 62 27 62 55c0 27 -17 51 -62 51c-44 0 -62 -24 -62 -51zM807 558v-558h-255v87c-29 -34 -103 -102 -235 -102h-10
c-166 0 -236 106 -236 213v360h258v-279c0 -56 28 -105 108 -105c75 0 113 49 113 114v270h257z" />
    <glyph glyph-name="utilde" unicode="&#x169;" horiz-adv-x="881" 
d="M807 558v-558h-255v87c-29 -34 -103 -102 -235 -102h-10c-166 0 -236 106 -236 213v360h258v-279c0 -56 28 -105 108 -105c75 0 113 49 113 114v270h257zM659 810v-92c0 -51 -25 -106 -97 -106h-4c-42 0 -69 11 -131 38c-31 14 -44 20 -55 20c-12 0 -15 -9 -15 -21v-41
h-137v92c0 51 25 106 97 106h3c43 0 70 -11 132 -38c30 -14 44 -20 54 -20c12 0 16 9 16 21v41h137z" />
    <glyph glyph-name="wacute" unicode="&#x1e83;" horiz-adv-x="1218" 
d="M494 613l98 159h280l-131 -159h-247zM712 0l-102 314l-95 -314h-307l-199 558h272l98 -348l103 348h275l106 -347l94 347h252l-185 -558h-312z" />
    <glyph glyph-name="wcircumflex" unicode="&#x175;" horiz-adv-x="1218" 
d="M770 772l140 -160h-236l-57 66l-56 -66h-233l139 160h303zM712 0l-102 314l-95 -314h-307l-199 558h272l98 -348l103 348h275l106 -347l94 347h252l-185 -558h-312z" />
    <glyph glyph-name="wdieresis" unicode="&#x1e85;" horiz-adv-x="1218" 
d="M883 761v-151h-240v151h240zM591 761v-151h-240v151h240zM712 0l-102 314l-95 -314h-307l-199 558h272l98 -348l103 348h275l106 -347l94 347h252l-185 -558h-312z" />
    <glyph glyph-name="wgrave" unicode="&#x1e81;" horiz-adv-x="1218" 
d="M712 0l-102 314l-95 -314h-307l-199 558h272l98 -348l103 348h275l106 -347l94 347h252l-185 -558h-312zM641 772l99 -159h-247l-131 159h279z" />
    <glyph glyph-name="ycircumflex" unicode="&#x177;" horiz-adv-x="803" 
d="M552 -46c-39 -96 -98 -143 -205 -143h-237v162h129c16 0 24 5 24 17c0 9 -5 20 -16 44l-244 524h283l132 -364l119 364h263zM565 772l140 -160h-236l-57 66l-56 -66h-233l139 160h303z" />
    <glyph glyph-name="ygrave" unicode="&#x1ef3;" horiz-adv-x="803" 
d="M552 -46c-39 -96 -98 -143 -205 -143h-237v162h129c16 0 24 5 24 17c0 9 -5 20 -16 44l-244 524h283l132 -364l119 364h263zM438 772l99 -159h-247l-131 159h279z" />
    <glyph glyph-name="zacute" unicode="&#x17a;" horiz-adv-x="779" 
d="M263 613l98 159h280l-131 -159h-247zM723 174v-174h-664v158l329 231h-325v169h648v-157l-340 -227h352z" />
    <glyph glyph-name="zdotaccent" unicode="&#x17c;" horiz-adv-x="779" 
d="M723 174v-174h-664v158l329 231h-325v169h648v-157l-340 -227h352zM517 761v-151h-258v151h258z" />
    <glyph glyph-name="space_uni0326" horiz-adv-x="688" 
d="M430 -292h-146c15 26 29 60 33 85h-109v155h272v-114c0 -47 -27 -96 -50 -126z" />
    <glyph glyph-name="oneeighth" unicode="&#x215b;" horiz-adv-x="1371" 
d="M1027 437h26c244 0 263 -69 263 -116v-2c0 -52 -50 -86 -106 -93c59 -8 117 -39 117 -99v-4c0 -56 -30 -131 -274 -131h-26c-245 0 -274 75 -274 131v4c0 60 58 91 118 99c-57 7 -107 41 -107 93v2c0 47 19 116 263 116zM847 744h205l-744 -744h-200zM158 543h-117v121
c112 0 139 25 160 81h158v-430h-201v228zM960 137c0 -19 12 -41 80 -41c66 0 79 21 79 41v1c0 20 -13 40 -79 40c-68 0 -80 -20 -80 -39v-2zM967 307c0 -17 9 -37 73 -37c63 0 72 20 72 37c0 16 -9 35 -72 35c-65 0 -73 -19 -73 -35z" />
    <glyph glyph-name="onethird" unicode="&#x2153;" horiz-adv-x="1362" 
d="M1320 140c0 -68 -38 -148 -281 -148h-25c-241 0 -269 103 -269 156v5h203c1 -13 9 -45 81 -45c69 0 81 20 81 37c0 16 -8 30 -49 30h-109v98h109c36 0 44 12 44 26c0 15 -9 31 -78 31c-71 0 -75 -27 -76 -36h-200v5c0 48 23 138 260 138h29c240 0 263 -65 263 -111v-3
c0 -42 -36 -70 -89 -77c58 -7 106 -40 106 -104v-2zM847 744h205l-744 -744h-200zM158 543h-117v121c112 0 139 25 160 81h158v-430h-201v228z" />
    <glyph glyph-name="threeeighths" unicode="&#x215c;" horiz-adv-x="1564" 
d="M1220 437h26c244 0 263 -69 263 -116v-2c0 -52 -50 -86 -106 -93c59 -8 117 -39 117 -99v-4c0 -56 -30 -131 -274 -131h-26c-245 0 -274 75 -274 131v4c0 60 58 91 118 99c-57 7 -107 41 -107 93v2c0 47 19 116 263 116zM613 455c0 -68 -38 -148 -281 -148h-25
c-241 0 -269 103 -269 156v6h203c1 -14 9 -46 81 -46c69 0 81 20 81 37c0 16 -8 30 -49 30h-109v98h109c36 0 44 12 44 26c0 15 -9 31 -78 31c-71 0 -75 -27 -76 -36h-200v5c0 48 23 138 260 138h29c240 0 263 -64 263 -111v-3c0 -42 -36 -70 -89 -77
c58 -7 106 -40 106 -104v-2zM1043 744h205l-744 -744h-200zM1153 137c0 -19 12 -41 80 -41c66 0 79 21 79 41v1c0 20 -13 40 -79 40c-68 0 -80 -20 -80 -39v-2zM1160 307c0 -17 9 -37 73 -37c63 0 72 20 72 37c0 16 -9 35 -72 35c-65 0 -73 -19 -73 -35z" />
    <glyph glyph-name="fiveeighths" unicode="&#x215d;" horiz-adv-x="1552" 
d="M1208 437h26c244 0 263 -69 263 -116v-2c0 -52 -50 -86 -106 -93c59 -8 117 -39 117 -99v-4c0 -56 -30 -131 -274 -131h-26c-245 0 -274 75 -274 131v4c0 60 58 91 118 99c-57 7 -107 41 -107 93v2c0 47 19 116 263 116zM601 462c0 -72 -38 -155 -262 -155h-29
c-234 0 -255 84 -255 133v3h200c1 -6 9 -26 70 -26c59 0 71 22 71 44v1c0 22 -13 43 -71 43c-60 0 -69 -21 -70 -25h-192v264h506v-112h-314v-67c11 9 57 33 142 33h5c159 0 199 -56 199 -130v-6zM1031 744h205l-744 -744h-200zM1141 137c0 -19 12 -41 80 -41
c66 0 79 21 79 41v1c0 20 -13 40 -79 40c-68 0 -80 -20 -80 -39v-2zM1148 307c0 -17 9 -37 73 -37c63 0 72 20 72 37c0 16 -9 35 -72 35c-65 0 -73 -19 -73 -35z" />
    <glyph glyph-name="twothirds" unicode="&#x2154;" horiz-adv-x="1597" 
d="M600 444v-129h-554v72c0 65 20 140 269 187c62 11 77 22 77 39c0 18 -13 31 -67 31c-62 0 -71 -31 -72 -48h-200v4c0 64 26 152 259 152h25c219 0 261 -60 261 -136v-4c0 -83 -74 -115 -249 -134c-103 -13 -130 -24 -135 -34h386zM1554 140c0 -68 -38 -148 -281 -148h-25
c-241 0 -269 103 -269 156v5h203c1 -13 9 -45 81 -45c69 0 81 20 81 37c0 16 -8 30 -49 30h-109v98h109c36 0 44 12 44 26c0 15 -9 31 -78 31c-71 0 -75 -27 -76 -36h-200v5c0 48 23 138 260 138h29c240 0 263 -65 263 -111v-3c0 -42 -36 -70 -89 -77
c58 -7 106 -40 106 -104v-2zM1082 744h205l-744 -744h-200z" />
    <glyph glyph-name="seveneighths" unicode="&#x215e;" horiz-adv-x="1470" 
d="M1126 437h26c244 0 263 -69 263 -116v-2c0 -52 -50 -86 -106 -93c59 -8 117 -39 117 -99v-4c0 -56 -30 -131 -274 -131h-26c-245 0 -274 75 -274 131v4c0 60 58 91 118 99c-57 7 -107 41 -107 93v2c0 47 19 116 263 116zM950 744h205l-744 -744h-200zM51 744h535v-110
c-16 -22 -48 -64 -83 -119c-55 -88 -60 -128 -60 -198v-2h-226v56c0 58 22 95 105 162c67 53 101 81 101 92h-181v-76h-191v195zM1059 137c0 -19 12 -41 80 -41c66 0 79 21 79 41v1c0 20 -13 40 -79 40c-68 0 -80 -20 -80 -39v-2zM1066 307c0 -17 9 -37 73 -37
c63 0 72 20 72 37c0 16 -9 35 -72 35c-65 0 -73 -19 -73 -35z" />
    <glyph glyph-name="uni2032" unicode="&#x2032;" horiz-adv-x="347" 
d="M308 744l-65 -324h-204l63 324h206z" />
    <glyph glyph-name="uni2033" unicode="&#x2033;" horiz-adv-x="634" 
d="M595 744l-68 -324h-202l67 324h203zM306 744l-65 -324h-202l63 324h204z" />
    <glyph glyph-name="uni24C5" unicode="&#x24c5;" horiz-adv-x="1104" 
d="M1053 365c0 -189 -103 -379 -493 -379h-16c-391 0 -493 190 -493 379v14c0 187 102 377 493 377h16c390 0 493 -190 493 -377v-14zM546 80h12c283 0 367 130 367 285v13c0 161 -83 285 -367 285h-12c-284 0 -368 -124 -368 -285v-13c0 -155 84 -285 368 -285zM639 277
h-143v-110h-186v415h329c154 0 197 -64 197 -149v-7c0 -89 -43 -149 -197 -149zM496 472v-85h96c42 0 53 18 53 42v2c0 23 -11 41 -53 41h-96z" />
    <glyph glyph-name="space.tab" horiz-adv-x="460" 
 />
    <glyph glyph-name="cent.tab" 
d="M865 232c0 -80 -33 -239 -355 -246v-79h-91v79c-315 7 -363 178 -363 292v14c0 110 52 275 363 282v78h91v-79c326 -9 355 -160 355 -235v-1h-263c-2 22 -16 66 -92 77v-267c78 13 90 63 92 86h263v-1zM319 284c0 -61 20 -121 100 -136v266c-81 -13 -100 -69 -100 -129
v-1z" />
    <glyph glyph-name="florin.tab" 
d="M810 294h-246l-31 -483h-251l30 483h-207v166h218l6 98c7 122 52 186 202 186h279v-166h-177c-39 0 -52 -16 -54 -53l-4 -65h235v-166z" />
    <glyph glyph-name="period.tab" horiz-adv-x="460" 
d="M370 223v-223h-280v223h280z" />
    <glyph glyph-name="comma.tab" horiz-adv-x="460" 
d="M308 -154h-160c27 43 59 110 70 154h-128v222h280v-175c0 -76 -36 -157 -62 -201z" />
    <glyph glyph-name="colon.tab" horiz-adv-x="460" 
d="M370 223v-223h-280v223h280zM370 549v-223h-280v223h280z" />
    <glyph glyph-name="semicolon.tab" horiz-adv-x="460" 
d="M308 -154h-160c27 43 59 110 70 154h-128v222h280v-175c0 -76 -36 -157 -62 -201zM370 549v-223h-280v223h280z" />
    <glyph glyph-name="zero.num" unicode="&#xe416;" horiz-adv-x="693" 
d="M335 752h24c269 0 289 -147 289 -217v-13c0 -72 -20 -215 -290 -215h-23c-258 0 -290 143 -290 216v11c0 71 32 218 290 218zM437 533c0 39 -14 92 -90 92c-73 0 -90 -53 -90 -92v-3c0 -36 16 -92 89 -92c76 0 91 57 91 92v3z" />
    <glyph glyph-name="one.num" unicode="&#xe417;" horiz-adv-x="432" 
d="M158 543h-117v121c112 0 139 25 160 81h158v-430h-201v228z" />
    <glyph glyph-name="two.num" unicode="&#xe418;" horiz-adv-x="644" 
d="M600 444v-129h-554v72c0 65 20 140 269 187c62 11 77 22 77 39c0 18 -13 31 -67 31c-62 0 -71 -31 -72 -48h-200v4c0 64 26 152 259 152h25c219 0 261 -60 261 -136v-4c0 -83 -74 -115 -249 -134c-103 -13 -130 -24 -135 -34h386z" />
    <glyph glyph-name="three.num" unicode="&#xe419;" horiz-adv-x="655" 
d="M613 455c0 -68 -38 -148 -281 -148h-25c-241 0 -269 103 -269 156v6h203c1 -14 9 -46 81 -46c69 0 81 20 81 37c0 16 -8 30 -49 30h-109v98h109c36 0 44 12 44 26c0 15 -9 31 -78 31c-71 0 -75 -27 -76 -36h-200v5c0 48 23 138 260 138h29c240 0 263 -64 263 -111v-3
c0 -42 -36 -70 -89 -77c58 -7 106 -40 106 -104v-2z" />
    <glyph glyph-name="four.num" unicode="&#xe41a;" horiz-adv-x="647" 
d="M40 389v114l254 241h228v-228h87v-127h-87v-74h-199v74h-283zM323 637l-127 -121h127v121z" />
    <glyph glyph-name="five.num" unicode="&#xe41b;" horiz-adv-x="644" 
d="M601 462c0 -72 -38 -155 -262 -155h-29c-234 0 -255 84 -255 133v3h200c1 -6 9 -26 70 -26c59 0 71 22 71 44v1c0 22 -13 43 -71 43c-60 0 -69 -21 -70 -25h-192v264h506v-112h-314v-67c11 9 57 33 142 33h5c159 0 199 -56 199 -130v-6z" />
    <glyph glyph-name="six.num" unicode="&#xe41c;" horiz-adv-x="669" 
d="M630 456c0 -66 -35 -149 -271 -149h-32c-247 0 -282 135 -282 217v14c0 82 40 214 277 214h25c228 0 262 -77 262 -137v-1h-196c-4 6 -15 26 -77 26c-74 0 -90 -48 -90 -85v-4c12 9 56 35 154 35h4c195 0 226 -59 226 -125v-5zM258 457c0 -21 14 -41 84 -41s82 20 82 41
c0 19 -12 40 -82 40s-84 -20 -84 -40z" />
    <glyph glyph-name="seven.num" unicode="&#xe41d;" horiz-adv-x="629" 
d="M51 744h535v-110c-16 -22 -48 -64 -83 -119c-55 -88 -60 -128 -60 -198v-2h-226v56c0 58 22 95 105 162c67 53 101 81 101 92h-181v-76h-191v195z" />
    <glyph glyph-name="eight.num" unicode="&#xe41e;" horiz-adv-x="662" 
d="M318 752h26c244 0 263 -69 263 -116v-2c0 -52 -50 -86 -106 -93c59 -8 117 -39 117 -99v-4c0 -56 -30 -131 -274 -131h-26c-245 0 -274 75 -274 131v4c0 60 58 91 118 99c-57 7 -107 41 -107 93v2c0 47 19 116 263 116zM251 452c0 -19 12 -41 80 -41c66 0 79 21 79 41v1
c0 20 -13 40 -79 40c-68 0 -80 -20 -80 -39v-2zM258 622c0 -17 9 -37 73 -37c63 0 72 20 72 37c0 16 -9 35 -72 35c-65 0 -73 -19 -73 -35z" />
    <glyph glyph-name="nine.num" unicode="&#xe41f;" horiz-adv-x="669" 
d="M624 528c0 -84 -37 -221 -276 -221h-25c-231 0 -263 84 -263 138v1h197c4 -6 15 -26 76 -26c73 0 89 48 89 85v3c-12 -8 -54 -33 -149 -33h-4c-193 0 -229 65 -229 131v5c0 65 38 141 267 141h32c244 0 285 -122 285 -210v-14zM411 603c0 20 -15 41 -84 41
s-81 -21 -81 -41v-1c0 -19 12 -39 81 -39s84 19 84 39v1z" />
    <glyph glyph-name="zero.den" unicode="&#xe402;" horiz-adv-x="693" 
d="M335 437h24c269 0 289 -147 289 -217v-13c0 -72 -20 -215 -290 -215h-23c-258 0 -290 143 -290 216v11c0 71 32 218 290 218zM437 218c0 39 -14 92 -90 92c-73 0 -90 -53 -90 -92v-3c0 -36 16 -92 89 -92c76 0 91 57 91 92v3z" />
    <glyph glyph-name="one.den" unicode="&#xe403;" horiz-adv-x="432" 
d="M158 228h-117v121c112 0 139 25 160 81h158v-430h-201v228z" />
    <glyph glyph-name="two.den" unicode="&#xe404;" horiz-adv-x="644" 
d="M600 0h-554v72c0 65 20 140 269 187c62 11 77 22 77 39c0 18 -13 31 -67 31c-62 0 -71 -31 -72 -49h-200v5c0 64 26 152 259 152h25c219 0 261 -60 261 -136v-4c0 -84 -74 -115 -249 -135c-105 -12 -132 -23 -136 -34h387v-128z" />
    <glyph glyph-name="three.den" unicode="&#xe405;" horiz-adv-x="655" 
d="M613 140c0 -68 -38 -148 -281 -148h-25c-241 0 -269 103 -269 156v5h203c1 -13 9 -45 81 -45c69 0 81 20 81 37c0 16 -8 30 -49 30h-109v98h109c36 0 44 12 44 26c0 15 -9 31 -78 31c-71 0 -75 -27 -76 -36h-200v5c0 48 23 138 260 138h29c240 0 263 -65 263 -111v-3
c0 -42 -36 -70 -89 -77c58 -7 106 -40 106 -104v-2z" />
    <glyph glyph-name="four.den" unicode="&#xe406;" horiz-adv-x="647" 
d="M40 74v114l254 241h228v-228h87v-127h-87v-74h-199v74h-283zM323 322l-127 -121h127v121z" />
    <glyph glyph-name="five.den" unicode="&#xe407;" horiz-adv-x="644" 
d="M601 147c0 -72 -38 -155 -262 -155h-29c-234 0 -255 84 -255 133v3h200c1 -6 9 -26 70 -26c59 0 71 22 71 44v1c0 22 -13 43 -71 43c-60 0 -69 -21 -70 -25h-192v264h506v-112h-314v-67c11 9 57 33 142 33h5c159 0 199 -56 199 -130v-6z" />
    <glyph glyph-name="six.den" unicode="&#xe408;" horiz-adv-x="669" 
d="M630 141c0 -66 -35 -149 -271 -149h-32c-247 0 -282 135 -282 217v14c0 82 40 214 277 214h25c228 0 262 -77 262 -137v-1h-196c-4 6 -15 26 -77 26c-74 0 -90 -48 -90 -85v-4c12 9 56 35 154 35h4c195 0 226 -59 226 -125v-5zM258 142c0 -21 14 -41 84 -41s82 20 82 41
c0 19 -12 40 -82 40s-84 -20 -84 -40z" />
    <glyph glyph-name="seven.den" unicode="&#xe409;" horiz-adv-x="629" 
d="M51 429h535v-110c-16 -22 -48 -64 -83 -119c-55 -88 -60 -128 -60 -198v-2h-226v56c0 58 22 95 105 162c67 53 101 81 101 92h-181v-76h-191v195z" />
    <glyph glyph-name="eight.den" unicode="&#xe40a;" horiz-adv-x="662" 
d="M318 437h26c244 0 263 -69 263 -116v-2c0 -52 -50 -86 -106 -93c59 -8 117 -39 117 -99v-4c0 -56 -30 -131 -274 -131h-26c-245 0 -274 75 -274 131v4c0 60 58 91 118 99c-57 7 -107 41 -107 93v2c0 47 19 116 263 116zM251 137c0 -19 12 -41 80 -41c66 0 79 21 79 41v1
c0 20 -13 40 -79 40c-68 0 -80 -20 -80 -39v-2zM258 307c0 -17 9 -37 73 -37c63 0 72 20 72 37c0 16 -9 35 -72 35c-65 0 -73 -19 -73 -35z" />
    <glyph glyph-name="nine.den" unicode="&#xe40b;" horiz-adv-x="669" 
d="M624 213c0 -84 -37 -221 -276 -221h-25c-231 0 -263 84 -263 138v1h197c4 -6 15 -26 76 -26c73 0 89 48 89 85v3c-12 -8 -54 -33 -149 -33h-4c-193 0 -229 65 -229 131v5c0 65 38 141 267 141h32c244 0 285 -122 285 -210v-14zM411 288c0 20 -15 41 -84 41
s-81 -21 -81 -41v-1c0 -19 12 -39 81 -39s84 19 84 39v1z" />
    <glyph glyph-name="zero.sub" unicode="&#x2080;" horiz-adv-x="761" 
d="M368 320h25c298 0 319 -160 319 -240v-12c0 -80 -20 -238 -319 -238h-25c-286 0 -319 158 -319 239v11c0 80 33 240 319 240zM380 -26c85 0 101 62 101 101v4c0 44 -16 102 -101 102c-81 0 -99 -58 -99 -102v-4c0 -40 17 -101 99 -101z" />
    <glyph glyph-name="one.sub" unicode="&#x2081;" horiz-adv-x="473" 
d="M222 313h174v-473h-222v251h-129v133c123 0 153 28 177 89z" />
    <glyph glyph-name="two.sub" unicode="&#x2082;" horiz-adv-x="706" 
d="M658 -18v-143h-608v79c0 72 22 156 295 208c70 12 86 24 86 43s-14 34 -75 34c-70 0 -79 -34 -80 -54h-219v5c0 69 28 167 286 167h26c242 0 288 -67 288 -150v-4c0 -90 -76 -125 -275 -148c-113 -14 -144 -26 -150 -37h426z" />
    <glyph glyph-name="three.sub" unicode="&#x2083;" horiz-adv-x="721" 
d="M675 -2c0 -80 -41 -168 -309 -168h-29c-263 0 -296 114 -296 171v7h223c1 -15 10 -51 91 -51c76 0 89 23 89 41v1c0 17 -8 32 -53 32h-123v109h122c40 0 49 14 49 28v1c0 16 -10 34 -87 34c-79 0 -83 -30 -85 -40h-219v5c0 53 27 152 287 152h32c263 0 289 -70 289 -122
v-3c0 -46 -40 -77 -98 -85c66 -7 117 -47 117 -110v-2z" />
    <glyph glyph-name="four.sub" unicode="&#x2084;" horiz-adv-x="712" 
d="M44 -80v126c-1 0 280 266 280 266h250v-253h95v-139h-95v-80h-217v80h-313zM357 194l-142 -135h142v135z" />
    <glyph glyph-name="five.sub" unicode="&#x2085;" horiz-adv-x="706" 
d="M660 2c0 -79 -43 -171 -289 -171h-30c-258 0 -282 92 -282 147v2h219c1 -6 9 -28 79 -28c65 0 78 25 78 48v1c0 26 -14 48 -79 48c-67 0 -77 -23 -78 -28h-210v291h556v-123h-346v-74c11 9 62 36 158 36h5c175 0 219 -62 219 -142v-7z" />
    <glyph glyph-name="six.sub" unicode="&#x2086;" horiz-adv-x="734" 
d="M691 -6c0 -72 -36 -164 -297 -164h-35c-272 0 -310 149 -310 240v15c0 90 44 235 304 235h28c251 0 288 -86 288 -151v-1h-216c-3 6 -16 28 -84 28c-82 0 -99 -53 -99 -93v-4c13 10 61 37 169 37h5c215 0 247 -63 247 -136v-6zM283 -5c0 -23 15 -45 93 -45
c76 0 90 22 90 45c0 21 -14 45 -90 45c-78 0 -93 -23 -93 -45z" />
    <glyph glyph-name="seven.sub" unicode="&#x2087;" horiz-adv-x="692" 
d="M55 312h590v-122c-18 -23 -54 -70 -93 -131c-62 -97 -66 -139 -66 -217v-2h-248v61c0 61 23 101 113 179c69 58 107 88 107 101h-194v-86h-209v217z" />
    <glyph glyph-name="eight.sub" unicode="&#x2088;" horiz-adv-x="727" 
d="M350 320h28c268 0 290 -75 290 -128v-2c0 -57 -56 -94 -118 -102c66 -9 130 -43 130 -109v-4c0 -62 -34 -145 -302 -145h-28c-269 0 -302 83 -302 145v4c0 66 63 100 130 109c-62 8 -118 45 -118 102v2c0 53 22 128 290 128zM275 -10c0 -21 13 -46 88 -46s89 24 89 46v1
c0 22 -14 44 -89 44s-88 -21 -88 -43v-2zM282 177c0 -19 11 -41 81 -41c72 0 81 22 81 41c0 17 -9 38 -81 38c-71 0 -81 -21 -81 -38z" />
    <glyph glyph-name="nine.sub" unicode="&#x2089;" horiz-adv-x="735" 
d="M686 73c0 -93 -41 -243 -304 -243h-27c-254 0 -290 92 -290 152h216c3 -7 17 -29 85 -29c82 0 99 54 99 94v3c-13 -9 -59 -36 -165 -36h-5c-211 0 -252 72 -252 145v6c0 72 42 155 295 155h34c269 0 314 -134 314 -232v-15zM452 155c0 23 -15 46 -93 46
c-77 0 -90 -23 -90 -46c0 -22 13 -44 90 -44c78 0 93 22 93 44z" />
    <glyph glyph-name="zero.sup" unicode="&#x2070;" horiz-adv-x="761" 
d="M368 765h25c298 0 319 -160 319 -240v-12c0 -80 -20 -238 -319 -238h-25c-286 0 -319 158 -319 239v11c0 80 33 240 319 240zM380 419c85 0 101 62 101 101v4c0 44 -16 102 -101 102c-81 0 -99 -58 -99 -102v-4c0 -40 17 -101 99 -101z" />
    <glyph glyph-name="one.sup" unicode="&#xb9;" horiz-adv-x="473" 
d="M222 758h174v-473h-222v251h-129v133c123 0 153 28 177 89z" />
    <glyph glyph-name="two.sup" unicode="&#xb2;" horiz-adv-x="706" 
d="M658 427v-143h-608v79c0 72 22 156 295 208c70 12 86 24 86 43s-14 34 -75 34c-70 0 -79 -34 -80 -54h-219v5c0 69 28 167 286 167h26c242 0 288 -67 288 -150v-4c0 -90 -76 -125 -275 -148c-113 -14 -144 -26 -150 -37h426z" />
    <glyph glyph-name="three.sup" unicode="&#xb3;" horiz-adv-x="721" 
d="M675 443c0 -80 -41 -168 -309 -168h-29c-263 0 -296 114 -296 171v7h223c1 -15 10 -51 91 -51c76 0 89 23 89 41v1c0 17 -8 32 -53 32h-123v109h122c40 0 49 14 49 28v1c0 16 -10 34 -87 34c-79 0 -83 -30 -85 -40h-219v5c0 53 27 152 287 152h32c263 0 289 -70 289 -122
v-3c0 -46 -40 -77 -98 -85c66 -7 117 -47 117 -110v-2z" />
    <glyph glyph-name="four.sup" unicode="&#x2074;" horiz-adv-x="712" 
d="M44 365v126c-1 0 280 266 280 266h250v-253h95v-139h-95v-80h-217v80h-313zM357 639l-142 -135h142v135z" />
    <glyph glyph-name="five.sup" unicode="&#x2075;" horiz-adv-x="706" 
d="M660 447c0 -79 -43 -171 -289 -171h-30c-258 0 -282 92 -282 147v2h219c1 -6 9 -28 79 -28c65 0 78 25 78 48v1c0 26 -14 48 -79 48c-67 0 -77 -23 -78 -28h-210v291h556v-123h-346v-74c11 9 62 36 158 36h5c175 0 219 -62 219 -142v-7z" />
    <glyph glyph-name="six.sup" unicode="&#x2076;" horiz-adv-x="734" 
d="M691 439c0 -72 -36 -164 -297 -164h-35c-272 0 -310 149 -310 240v15c0 90 44 235 304 235h28c251 0 288 -86 288 -151v-1h-216c-3 6 -16 28 -84 28c-82 0 -99 -53 -99 -93v-4c13 10 61 37 169 37h5c215 0 247 -63 247 -136v-6zM283 440c0 -23 15 -45 93 -45
c76 0 90 22 90 45c0 21 -14 45 -90 45c-78 0 -93 -23 -93 -45z" />
    <glyph glyph-name="seven.sup" unicode="&#x2077;" horiz-adv-x="692" 
d="M55 757h590v-122c-18 -23 -54 -70 -93 -131c-62 -97 -66 -139 -66 -217v-2h-248v61c0 61 23 101 113 179c69 58 107 88 107 101h-194v-86h-209v217z" />
    <glyph glyph-name="eight.sup" unicode="&#x2078;" horiz-adv-x="727" 
d="M350 765h28c268 0 290 -75 290 -128v-2c0 -57 -56 -94 -118 -102c66 -9 130 -43 130 -109v-4c0 -62 -34 -145 -302 -145h-28c-269 0 -302 83 -302 145v4c0 66 63 100 130 109c-62 8 -118 45 -118 102v2c0 53 22 128 290 128zM275 435c0 -21 13 -46 88 -46s89 24 89 46v1
c0 22 -14 44 -89 44s-88 -21 -88 -43v-2zM282 622c0 -19 11 -41 81 -41c72 0 81 22 81 41c0 17 -9 38 -81 38c-71 0 -81 -21 -81 -38z" />
    <glyph glyph-name="nine.sup" unicode="&#x2079;" horiz-adv-x="735" 
d="M686 518c0 -93 -41 -243 -304 -243h-27c-254 0 -290 92 -290 152h216c3 -7 17 -29 85 -29c82 0 99 54 99 94v3c-13 -9 -59 -36 -165 -36h-5c-211 0 -252 72 -252 145v6c0 72 42 155 295 155h34c269 0 314 -134 314 -232v-15zM452 600c0 23 -15 46 -93 46
c-77 0 -90 -23 -90 -46c0 -22 13 -44 90 -44c78 0 93 22 93 44z" />
    <glyph glyph-name="J.alt" horiz-adv-x="632" 
d="M48 0v211h121c86 0 110 34 110 127v406h270v-468c0 -193 -82 -276 -267 -276h-234z" />
    <glyph glyph-name="IJ.alt" horiz-adv-x="1070" 
d="M354 744v-744h-270v744h270zM486 0v211h121c86 0 110 34 110 127v406h270v-468c0 -193 -82 -276 -267 -276h-234z" />
    <glyph glyph-name="a.alt" horiz-adv-x="824" 
d="M508 70c-20 -21 -80 -82 -217 -82h-17c-156 0 -231 76 -231 180v5c0 103 64 157 261 170l158 9c29 2 39 12 39 32v1c0 24 -12 45 -93 45h-4c-87 0 -93 -38 -94 -52h-253v1c0 75 31 193 330 193h34c305 0 332 -107 332 -194v-187c0 -107 8 -150 22 -191h-249
c-8 14 -17 45 -18 70zM374 128c91 0 127 56 127 100v27c-18 -4 -58 -11 -101 -18c-82 -13 -103 -27 -103 -59v-2c0 -29 25 -48 77 -48z" />
    <glyph glyph-name="a.alt2" horiz-adv-x="884" 
d="M553 558h257v-558h-256v68c-20 -22 -81 -79 -205 -79h-12c-214 0 -292 147 -292 277v24c0 129 75 279 294 279h11c126 0 183 -49 203 -68v57zM429 402c-90 0 -115 -68 -115 -120v-3c0 -52 27 -122 115 -122h8c90 0 118 68 118 121v5c0 51 -28 119 -118 119h-8z" />
    <glyph glyph-name="r.alt" horiz-adv-x="593" 
d="M73 0v558h255v-110c29 51 88 122 220 122h6v-247c-10 2 -37 6 -75 6c-98 0 -149 -26 -149 -97v-232h-257z" />
    <glyph glyph-name="Jcircumflex.alt" horiz-adv-x="632" 
d="M561 954l146 -158h-235l-61 66l-60 -66h-231l143 158h298zM48 0v211h121c86 0 110 34 110 127v406h270v-468c0 -193 -82 -276 -267 -276h-234z" />
    <glyph glyph-name="aacute.alt" horiz-adv-x="824" 
d="M281 613l98 159h280l-131 -159h-247zM508 70c-20 -21 -80 -82 -217 -82h-17c-156 0 -231 76 -231 180v5c0 103 64 157 261 170l158 9c29 2 39 12 39 32v1c0 24 -12 45 -93 45h-4c-87 0 -93 -38 -94 -52h-253v1c0 75 31 193 330 193h34c305 0 332 -107 332 -194v-187
c0 -107 8 -150 22 -191h-249c-8 14 -17 45 -18 70zM374 128c91 0 127 56 127 100v27c-18 -4 -58 -11 -101 -18c-82 -13 -103 -27 -103 -59v-2c0 -29 25 -48 77 -48z" />
    <glyph glyph-name="aacute.alt2" horiz-adv-x="884" 
d="M304 613l98 159h280l-131 -159h-247zM553 558h257v-558h-256v68c-20 -22 -81 -79 -205 -79h-12c-214 0 -292 147 -292 277v24c0 129 75 279 294 279h11c126 0 183 -49 203 -68v57zM429 402c-90 0 -115 -68 -115 -120v-3c0 -52 27 -122 115 -122h8c90 0 118 68 118 121v5
c0 51 -28 119 -118 119h-8z" />
    <glyph glyph-name="abreve.alt" horiz-adv-x="824" 
d="M508 70c-20 -21 -80 -82 -217 -82h-17c-156 0 -231 76 -231 180v5c0 103 64 157 261 170l158 9c29 2 39 12 39 32v1c0 24 -12 45 -93 45h-4c-87 0 -93 -38 -94 -52h-253v1c0 75 31 193 330 193h34c305 0 332 -107 332 -194v-187c0 -107 8 -150 22 -191h-249
c-8 14 -17 45 -18 70zM374 128c91 0 127 56 127 100v27c-18 -4 -58 -11 -101 -18c-82 -13 -103 -27 -103 -59v-2c0 -29 25 -48 77 -48zM634 791c0 -64 -38 -182 -220 -182h-20c-187 0 -220 118 -220 182v1h172c1 -17 6 -58 58 -58h1c49 0 57 40 58 58h171v-1z" />
    <glyph glyph-name="abreve.alt2" horiz-adv-x="884" 
d="M553 558h257v-558h-256v68c-20 -22 -81 -79 -205 -79h-12c-214 0 -292 147 -292 277v24c0 129 75 279 294 279h11c126 0 183 -49 203 -68v57zM429 402c-90 0 -115 -68 -115 -120v-3c0 -52 27 -122 115 -122h8c90 0 118 68 118 121v5c0 51 -28 119 -118 119h-8zM660 791
c0 -64 -38 -182 -220 -182h-20c-187 0 -220 118 -220 182v1h172c1 -17 6 -58 58 -58h1c49 0 57 40 58 58h171v-1z" />
    <glyph glyph-name="acircumflex.alt" horiz-adv-x="824" 
d="M557 772l140 -160h-236l-57 66l-56 -66h-233l139 160h303zM508 70c-20 -21 -80 -82 -217 -82h-17c-156 0 -231 76 -231 180v5c0 103 64 157 261 170l158 9c29 2 39 12 39 32v1c0 24 -12 45 -93 45h-4c-87 0 -93 -38 -94 -52h-253v1c0 75 31 193 330 193h34
c305 0 332 -107 332 -194v-187c0 -107 8 -150 22 -191h-249c-8 14 -17 45 -18 70zM374 128c91 0 127 56 127 100v27c-18 -4 -58 -11 -101 -18c-82 -13 -103 -27 -103 -59v-2c0 -29 25 -48 77 -48z" />
    <glyph glyph-name="acircumflex.alt2" horiz-adv-x="884" 
d="M582 772l140 -160h-236l-57 66l-56 -66h-233l139 160h303zM553 558h257v-558h-256v68c-20 -22 -81 -79 -205 -79h-12c-214 0 -292 147 -292 277v24c0 129 75 279 294 279h11c126 0 183 -49 203 -68v57zM429 402c-90 0 -115 -68 -115 -120v-3c0 -52 27 -122 115 -122h8
c90 0 118 68 118 121v5c0 51 -28 119 -118 119h-8z" />
    <glyph glyph-name="adieresis.alt" horiz-adv-x="824" 
d="M670 761v-151h-240v151h240zM378 761v-151h-240v151h240zM508 70c-20 -21 -80 -82 -217 -82h-17c-156 0 -231 76 -231 180v5c0 103 64 157 261 170l158 9c29 2 39 12 39 32v1c0 24 -12 45 -93 45h-4c-87 0 -93 -38 -94 -52h-253v1c0 75 31 193 330 193h34
c305 0 332 -107 332 -194v-187c0 -107 8 -150 22 -191h-249c-8 14 -17 45 -18 70zM374 128c91 0 127 56 127 100v27c-18 -4 -58 -11 -101 -18c-82 -13 -103 -27 -103 -59v-2c0 -29 25 -48 77 -48z" />
    <glyph glyph-name="adieresis.alt2" horiz-adv-x="884" 
d="M697 761v-151h-240v151h240zM405 761v-151h-240v151h240zM553 558h257v-558h-256v68c-20 -22 -81 -79 -205 -79h-12c-214 0 -292 147 -292 277v24c0 129 75 279 294 279h11c126 0 183 -49 203 -68v57zM429 402c-90 0 -115 -68 -115 -120v-3c0 -52 27 -122 115 -122h8
c90 0 118 68 118 121v5c0 51 -28 119 -118 119h-8z" />
    <glyph glyph-name="agrave.alt" horiz-adv-x="824" 
d="M508 70c-20 -21 -80 -82 -217 -82h-17c-156 0 -231 76 -231 180v5c0 103 64 157 261 170l158 9c29 2 39 12 39 32v1c0 24 -12 45 -93 45h-4c-87 0 -93 -38 -94 -52h-253v1c0 75 31 193 330 193h34c305 0 332 -107 332 -194v-187c0 -107 8 -150 22 -191h-249
c-8 14 -17 45 -18 70zM374 128c91 0 127 56 127 100v27c-18 -4 -58 -11 -101 -18c-82 -13 -103 -27 -103 -59v-2c0 -29 25 -48 77 -48zM432 772l99 -159h-247l-131 159h279z" />
    <glyph glyph-name="agrave.alt2" horiz-adv-x="884" 
d="M553 558h257v-558h-256v68c-20 -22 -81 -79 -205 -79h-12c-214 0 -292 147 -292 277v24c0 129 75 279 294 279h11c126 0 183 -49 203 -68v57zM429 402c-90 0 -115 -68 -115 -120v-3c0 -52 27 -122 115 -122h8c90 0 118 68 118 121v5c0 51 -28 119 -118 119h-8zM460 772
l99 -159h-247l-131 159h279z" />
    <glyph glyph-name="amacron.alt" horiz-adv-x="824" 
d="M508 70c-20 -21 -80 -82 -217 -82h-17c-156 0 -231 76 -231 180v5c0 103 64 157 261 170l158 9c29 2 39 12 39 32v1c0 24 -12 45 -93 45h-4c-87 0 -93 -38 -94 -52h-253v1c0 75 31 193 330 193h34c305 0 332 -107 332 -194v-187c0 -107 8 -150 22 -191h-249
c-8 14 -17 45 -18 70zM374 128c91 0 127 56 127 100v27c-18 -4 -58 -11 -101 -18c-82 -13 -103 -27 -103 -59v-2c0 -29 25 -48 77 -48zM194 621v133h422v-133h-422z" />
    <glyph glyph-name="amacron.alt2" horiz-adv-x="884" 
d="M220 621v133h422v-133h-422zM553 558h257v-558h-256v68c-20 -22 -81 -79 -205 -79h-12c-214 0 -292 147 -292 277v24c0 129 75 279 294 279h11c126 0 183 -49 203 -68v57zM429 402c-90 0 -115 -68 -115 -120v-3c0 -52 27 -122 115 -122h8c90 0 118 68 118 121v5
c0 51 -28 119 -118 119h-8z" />
    <glyph glyph-name="aogonek.alt" horiz-adv-x="824" 
d="M778 -83v-107h-178c-88 0 -128 25 -128 73v3c0 52 54 83 195 114h-141c-8 14 -17 45 -18 70c-20 -21 -80 -82 -217 -82h-17c-156 0 -231 76 -231 180v5c0 103 64 157 261 170l158 9c29 2 39 12 39 32v1c0 24 -12 45 -93 45h-4c-87 0 -93 -38 -94 -52h-253v1
c0 75 31 193 330 193h34c305 0 332 -107 332 -194v-187c0 -107 8 -150 22 -191h-1c-44 -25 -71 -41 -71 -61c0 -15 11 -22 38 -22h37zM374 128c91 0 127 56 127 100v27c-18 -4 -58 -11 -101 -18c-82 -13 -103 -27 -103 -59v-2c0 -29 25 -48 77 -48z" />
    <glyph glyph-name="aogonek.alt2" horiz-adv-x="884" 
d="M553 558h257v-558c-44 -25 -71 -41 -71 -61c0 -15 11 -22 38 -22h37v-107h-178c-88 0 -128 25 -128 73v3c0 52 54 83 195 114h-149v68c-20 -22 -81 -79 -205 -79h-12c-214 0 -292 147 -292 277v24c0 129 75 279 294 279h11c126 0 183 -49 203 -68v57zM429 402
c-90 0 -115 -68 -115 -120v-3c0 -52 27 -122 115 -122h8c90 0 118 68 118 121v5c0 51 -28 119 -118 119h-8z" />
    <glyph glyph-name="aring.alt" horiz-adv-x="824" 
d="M218 741c0 66 39 134 187 134c150 0 187 -68 187 -134c0 -67 -36 -137 -187 -137s-187 70 -187 137zM343 741c0 -28 18 -55 62 -55c45 0 62 27 62 55c0 27 -17 51 -62 51c-44 0 -62 -24 -62 -51zM508 70c-20 -21 -80 -82 -217 -82h-17c-156 0 -231 76 -231 180v5
c0 103 64 157 261 170l158 9c29 2 39 12 39 32v1c0 24 -12 45 -93 45h-4c-87 0 -93 -38 -94 -52h-253v1c0 75 31 193 330 193h34c305 0 332 -107 332 -194v-187c0 -107 8 -150 22 -191h-249c-8 14 -17 45 -18 70zM374 128c91 0 127 56 127 100v27c-18 -4 -58 -11 -101 -18
c-82 -13 -103 -27 -103 -59v-2c0 -29 25 -48 77 -48z" />
    <glyph glyph-name="aring.alt2" horiz-adv-x="884" 
d="M241 741c0 66 39 134 187 134c150 0 187 -68 187 -134c0 -67 -36 -137 -187 -137s-187 70 -187 137zM366 741c0 -28 18 -55 62 -55c45 0 62 27 62 55c0 27 -17 51 -62 51c-44 0 -62 -24 -62 -51zM553 558h257v-558h-256v68c-20 -22 -81 -79 -205 -79h-12
c-214 0 -292 147 -292 277v24c0 129 75 279 294 279h11c126 0 183 -49 203 -68v57zM429 402c-90 0 -115 -68 -115 -120v-3c0 -52 27 -122 115 -122h8c90 0 118 68 118 121v5c0 51 -28 119 -118 119h-8z" />
    <glyph glyph-name="aringacute.alt" horiz-adv-x="824" 
d="M281 903l98 159h280l-131 -159h-247zM218 741c0 66 39 134 187 134c150 0 187 -68 187 -134c0 -67 -36 -137 -187 -137s-187 70 -187 137zM343 741c0 -28 18 -55 62 -55c45 0 62 27 62 55c0 27 -17 51 -62 51c-44 0 -62 -24 -62 -51zM508 70c-20 -21 -80 -82 -217 -82
h-17c-156 0 -231 76 -231 180v5c0 103 64 157 261 170l158 9c29 2 39 12 39 32v1c0 24 -12 45 -93 45h-4c-87 0 -93 -38 -94 -52h-253v1c0 75 31 193 330 193h34c305 0 332 -107 332 -194v-187c0 -107 8 -150 22 -191h-249c-8 14 -17 45 -18 70zM374 128
c91 0 127 56 127 100v27c-18 -4 -58 -11 -101 -18c-82 -13 -103 -27 -103 -59v-2c0 -29 25 -48 77 -48z" />
    <glyph glyph-name="aringacute.alt2" horiz-adv-x="884" 
d="M304 903l98 159h280l-131 -159h-247zM241 741c0 66 39 134 187 134c150 0 187 -68 187 -134c0 -67 -36 -137 -187 -137s-187 70 -187 137zM366 741c0 -28 18 -55 62 -55c45 0 62 27 62 55c0 27 -17 51 -62 51c-44 0 -62 -24 -62 -51zM553 558h257v-558h-256v68
c-20 -22 -81 -79 -205 -79h-12c-214 0 -292 147 -292 277v24c0 129 75 279 294 279h11c126 0 183 -49 203 -68v57zM429 402c-90 0 -115 -68 -115 -120v-3c0 -52 27 -122 115 -122h8c90 0 118 68 118 121v5c0 51 -28 119 -118 119h-8z" />
    <glyph glyph-name="atilde.alt" horiz-adv-x="824" 
d="M508 70c-20 -21 -80 -82 -217 -82h-17c-156 0 -231 76 -231 180v5c0 103 64 157 261 170l158 9c29 2 39 12 39 32v1c0 24 -12 45 -93 45h-4c-87 0 -93 -38 -94 -52h-253v1c0 75 31 193 330 193h34c305 0 332 -107 332 -194v-187c0 -107 8 -150 22 -191h-249
c-8 14 -17 45 -18 70zM374 128c91 0 127 56 127 100v27c-18 -4 -58 -11 -101 -18c-82 -13 -103 -27 -103 -59v-2c0 -29 25 -48 77 -48zM624 810v-92c0 -51 -25 -106 -97 -106h-4c-42 0 -69 11 -131 38c-31 14 -44 20 -55 20c-12 0 -15 -9 -15 -21v-41h-137v92
c0 51 25 106 97 106h3c43 0 70 -11 132 -38c30 -14 44 -20 54 -20c12 0 16 9 16 21v41h137z" />
    <glyph glyph-name="atilde.alt2" horiz-adv-x="884" 
d="M553 558h257v-558h-256v68c-20 -22 -81 -79 -205 -79h-12c-214 0 -292 147 -292 277v24c0 129 75 279 294 279h11c126 0 183 -49 203 -68v57zM429 402c-90 0 -115 -68 -115 -120v-3c0 -52 27 -122 115 -122h8c90 0 118 68 118 121v5c0 51 -28 119 -118 119h-8zM650 810
v-92c0 -51 -25 -106 -97 -106h-4c-42 0 -69 11 -131 38c-31 14 -44 20 -55 20c-12 0 -15 -9 -15 -21v-41h-137v92c0 51 25 106 97 106h3c43 0 70 -11 132 -38c30 -14 44 -20 54 -20c12 0 16 9 16 21v41h137z" />
    <glyph glyph-name="racute.alt" horiz-adv-x="593" 
d="M211 613l98 159h280l-131 -159h-247zM73 0v558h255v-110c29 51 88 122 220 122h6v-247c-10 2 -37 6 -75 6c-98 0 -149 -26 -149 -97v-232h-257z" />
    <glyph glyph-name="rcaron.alt" horiz-adv-x="593" 
d="M177 613l-140 159h236l57 -66l56 66h233l-139 -159h-303zM73 0v558h255v-110c29 51 88 122 220 122h6v-247c-10 2 -37 6 -75 6c-98 0 -149 -26 -149 -97v-232h-257z" />
    <glyph glyph-name="rcommaaccent.alt" horiz-adv-x="593" 
d="M290 -292h-146c15 26 29 60 33 85h-109v155h272v-114c0 -47 -27 -96 -50 -126zM73 0v558h255v-110c29 51 88 122 220 122h6v-247c-10 2 -37 6 -75 6c-98 0 -149 -26 -149 -97v-232h-257z" />
    <glyph glyph-name="space_uni0326.alt" horiz-adv-x="730" 
d="M280 852h145c-15 -25 -29 -59 -33 -84h108v-154h-269v114c0 45 26 95 49 124z" />
    <glyph glyph-name="ordfeminine.alt" horiz-adv-x="727" 
d="M435 353c-15 -20 -71 -67 -184 -67h-6c-136 0 -195 63 -195 147v2c0 91 62 128 206 138l145 10c23 1 30 10 30 24c0 15 -8 34 -72 34h-6c-64 0 -73 -22 -74 -36h-219v1c0 51 17 155 280 155h30c261 0 280 -88 280 -153v-159c0 -83 6 -122 18 -155h-219
c-5 13 -12 38 -14 59zM272 443c0 -25 20 -42 61 -42c68 0 98 43 98 82v19l-92 -15c-49 -8 -67 -18 -67 -44z" />
    <glyph glyph-name="ordfeminine.alt2" horiz-adv-x="768" 
d="M465 752h226v-457h-226v54c-19 -21 -67 -63 -166 -63h-8c-174 0 -242 118 -242 227v22c0 107 66 226 241 226h7c105 0 149 -37 168 -54v45zM370 623c-66 0 -86 -55 -86 -98v-2c0 -42 21 -99 86 -99h6c65 0 86 54 86 97v4c0 42 -21 98 -86 98h-6z" />
    <glyph glyph-name="caron.alt" horiz-adv-x="700" 
d="M234 610l24 154h208l-36 -154h-196z" />
    <glyph glyph-name="plus.uc" horiz-adv-x="684" 
d="M619 286h-187v-192h-179v192h-188v152h188v191h179v-191h187v-152z" />
    <glyph glyph-name="minus.uc" horiz-adv-x="659" 
d="M65 440h529v-156h-529v156z" />
    <glyph glyph-name="multiply.uc" horiz-adv-x="619" 
d="M570 215l-112 -115l-150 146l-150 -146l-109 111l146 144l-146 142l117 117l146 -144l147 145l111 -112l-146 -143z" />
    <glyph glyph-name="divide.uc" horiz-adv-x="677" 
d="M441 661v-167h-205v167h205zM65 439h547v-154h-547v154zM441 227v-169h-205v169h205z" />
    <glyph glyph-name="equal.uc" horiz-adv-x="667" 
d="M70 541h527v-141h-527v141zM70 327h527v-142h-527v142z" />
    <glyph glyph-name="less.uc" horiz-adv-x="610" 
d="M543 110l-476 167v171l476 168v-165l-305 -89l305 -88v-164z" />
    <glyph glyph-name="greater.uc" horiz-adv-x="610" 
d="M67 616l476 -168v-171l-476 -167v164l306 88l-306 89v165z" />
    <glyph glyph-name="questiondown.uc" horiz-adv-x="886" 
d="M347 470v5h253v-39c0 -76 -21 -126 -148 -160l-59 -16c-59 -16 -75 -27 -75 -51c0 -27 20 -45 121 -45c127 0 131 54 132 80h277v-14c0 -87 -29 -239 -381 -239h-42c-325 1 -385 109 -385 215v10c0 97 60 158 207 193l51 13c41 11 49 23 49 48zM337 529v215h273v-215
h-273z" />
    <glyph glyph-name="exclamdown.uc" horiz-adv-x="432" 
d="M378 0h-326l100 475h125zM78 529v215h274v-215h-274z" />
    <glyph glyph-name="hyphen.uc" horiz-adv-x="485" 
d="M65 440h355v-200h-355v200z" />
    <glyph glyph-name="endash.uc" horiz-adv-x="863" 
d="M65 419h733v-159h-733v159z" />
    <glyph glyph-name="emdash.uc" horiz-adv-x="1302" 
d="M65 419h1172v-159h-1172v159z" />
    <glyph glyph-name="guilsinglleft.uc" horiz-adv-x="401" 
d="M234 322l129 -188h-196l-130 188l129 188h198z" />
    <glyph glyph-name="guilsinglright.uc" horiz-adv-x="401" 
d="M364 322l-130 -188h-196l129 188l-130 188h197z" />
    <glyph glyph-name="guillemotleft.uc" horiz-adv-x="677" 
d="M227 322l123 -188h-189l-124 188l122 188h191zM516 322l122 -188h-189l-123 188l123 188h191z" />
    <glyph glyph-name="guillemotright.uc" horiz-adv-x="676" 
d="M639 323l-123 -188h-190l123 188l-122 188h191zM350 323l-122 -188h-189l122 188l-124 188h191z" />
    <glyph glyph-name="parenleft.uc" horiz-adv-x="408" 
d="M256 373c0 -184 67 -333 134 -454h-138c-84 89 -202 239 -202 454c0 209 115 359 202 444h138c-73 -115 -134 -263 -134 -444z" />
    <glyph glyph-name="parenright.uc" horiz-adv-x="408" 
d="M152 373c0 181 -61 329 -135 444h139c88 -85 202 -235 202 -444c0 -215 -118 -365 -202 -454h-139c68 121 135 270 135 454z" />
    <glyph glyph-name="bracketleft.uc" horiz-adv-x="441" 
d="M76 -81v898h324v-130h-131v-638h131v-130h-324z" />
    <glyph glyph-name="bracketright.uc" horiz-adv-x="441" 
d="M41 687v130h324v-898h-324v130h132v638h-132z" />
    <glyph glyph-name="braceleft.uc" horiz-adv-x="444" 
d="M403 44v-124h-165c-110 0 -168 35 -168 111c0 79 83 191 83 243c0 22 -11 33 -40 33h-76v126h76c29 0 40 8 40 27c0 55 -83 160 -83 240c0 76 50 116 168 116h165v-123h-88c-28 0 -44 -10 -44 -32c0 -43 65 -133 65 -194c0 -54 -32 -85 -109 -96c76 -10 109 -36 109 -81
c0 -67 -65 -168 -65 -207c0 -27 21 -39 65 -39h67z" />
    <glyph glyph-name="braceright.uc" horiz-adv-x="445" 
d="M376 31c0 -76 -60 -111 -169 -111h-166v124h68c44 0 64 12 64 39c0 39 -64 140 -64 207c0 45 33 71 109 81c-77 11 -109 42 -109 96c0 61 64 151 64 194c0 22 -15 32 -43 32h-89v123h166c117 0 169 -40 169 -116c0 -80 -84 -185 -84 -240c0 -19 10 -27 40 -27h77v-126
h-77c-30 0 -40 -11 -40 -33c0 -52 84 -164 84 -243z" />
    <glyph glyph-name="slash.uc" horiz-adv-x="481" 
d="M479 816l-307 -897h-176l304 897h179z" />
    <glyph glyph-name="backslash.uc" horiz-adv-x="481" 
d="M485 -81h-177l-306 897h179z" />
    <glyph glyph-name="bar.uc" horiz-adv-x="375" 
d="M275 816v-897h-175v897h175z" />
    <glyph glyph-name="at.uc" horiz-adv-x="1328" 
d="M1190 -39c-35 -24 -174 -83 -536 -83c-517 0 -603 247 -603 465v13c0 236 127 448 626 448h10c566 0 599 -242 599 -396v-8c0 -156 -75 -313 -321 -313h-9c-152 0 -183 56 -195 77c-20 -21 -72 -77 -200 -77h-9c-173 0 -241 118 -236 236c0 12 1 44 3 60
c13 111 83 211 241 211h11c127 0 179 -51 201 -71l7 63h254l-38 -346c-3 -28 3 -45 35 -45c73 0 121 88 121 206v3c0 123 -6 291 -464 291h-10c-388 0 -482 -151 -482 -341v-12c0 -174 67 -355 459 -355c332 0 466 60 503 82zM755 348l1 6c1 54 -21 91 -80 91h-3
c-67 0 -94 -48 -96 -107v-8c-2 -48 14 -96 77 -96h2c68 0 97 53 99 114z" />
    <glyph glyph-name="grave.uc" horiz-adv-x="700" 
d="M287 798l-126 156h282l97 -156h-253z" />
    <glyph glyph-name="dieresis.uc" horiz-adv-x="700" 
d="M620 949v-151h-243v151h243zM323 949v-151h-243v151h243z" />
    <glyph glyph-name="macron.uc" horiz-adv-x="703" 
d="M138 809v133h426v-133h-426z" />
    <glyph glyph-name="acute.uc" horiz-adv-x="700" 
d="M413 798h-252l96 156h282z" />
    <glyph glyph-name="circumflex.uc" horiz-adv-x="700" 
d="M498 954l146 -158h-235l-61 66l-60 -66h-231l143 158h298z" />
    <glyph glyph-name="caron.uc" horiz-adv-x="700" 
d="M202 798l-145 156h235l61 -66l60 66h231l-143 -156h-299z" />
    <glyph glyph-name="breve.uc" horiz-adv-x="704" 
d="M584 973c0 -63 -42 -180 -221 -180h-21c-195 0 -222 117 -222 180v2h172c2 -21 10 -57 61 -57h1c49 0 59 36 60 57h170v-2z" />
    <glyph glyph-name="dotaccent.uc" horiz-adv-x="700" 
d="M479 949v-151h-258v151h258z" />
    <glyph glyph-name="ring.uc" horiz-adv-x="704" 
d="M162 925c0 67 40 135 190 135c151 0 190 -68 190 -135s-38 -137 -190 -137c-153 0 -190 71 -190 137zM417 925c0 28 -17 52 -65 52c-47 0 -65 -24 -65 -52s18 -54 65 -54c48 0 65 26 65 54z" />
    <glyph glyph-name="tilde.uc" horiz-adv-x="704" 
d="M265 833v-39h-137v90c0 51 24 105 99 105h2c42 0 77 -13 139 -37c33 -13 45 -18 56 -18c12 0 16 10 16 21v39h137v-89c0 -52 -25 -106 -99 -106h-3c-42 0 -76 13 -139 37c-33 13 -45 18 -56 18s-15 -10 -15 -21z" />
    <glyph glyph-name="hungarumlaut.uc" horiz-adv-x="700" 
d="M334 798l83 156h232l-87 -156h-228zM51 798l75 156h231l-80 -156h-226z" />
    <glyph glyph-name="Euro.lintab" 
d="M870 299c0 -135 -73 -310 -371 -310h-33c-246 0 -338 142 -365 278h-90v85h82c-1 2 -1 5 -1 7v30c0 5 1 11 1 16h-82v83h92c28 133 122 267 363 267h33c298 0 371 -165 371 -303v-6h-249c-3 50 -29 124 -141 124c-71 0 -110 -30 -129 -82h198v-83h-212v-53h212v-85h-197
c21 -54 61 -86 129 -86c111 0 137 75 140 123h249v-5z" />
    <glyph glyph-name="divide.lintab" 
d="M563 684v-167h-205v167h205zM147 430h626v-153h-626v153zM563 187v-169h-205v169h205z" />
    <glyph glyph-name="divide.uctab" 
d="M563 692v-167h-205v167h205zM147 438h626v-153h-626v153zM563 195v-169h-205v169h205z" />
    <glyph glyph-name="dollar.lintab" 
d="M868 229c0 -119 -58 -234 -363 -241v-77h-96v77c-326 11 -364 160 -364 256v6h253c2 -25 9 -82 111 -95v144l-39 1c-244 6 -316 112 -316 230v9c0 120 80 210 355 214v78h96v-78c300 -7 350 -126 350 -230v-6h-247c-4 26 -18 65 -103 77v-126l41 -1
c254 -6 322 -95 322 -226v-12zM299 536c0 -31 18 -59 110 -65v125c-90 -4 -110 -26 -110 -58v-2zM620 231c0 33 -14 60 -115 66v-144c103 7 115 43 115 75v3z" />
    <glyph glyph-name="eight.lintab" 
d="M475 751c351 0 380 -121 380 -202v-8c0 -86 -79 -137 -158 -151c88 -15 176 -69 176 -168v-9c0 -88 -40 -225 -398 -225h-30c-359 0 -398 137 -398 225v9c0 99 89 152 175 168c-78 13 -157 64 -157 151v8c0 81 30 202 380 202h30zM460 588c-106 0 -122 -37 -122 -62v-2
c0 -25 19 -59 122 -59c104 0 122 34 122 59v2c0 25 -16 62 -122 62zM460 307c-117 0 -135 -38 -135 -66v-1c0 -30 20 -75 135 -75s135 45 135 75v1c0 28 -18 66 -135 66z" />
    <glyph glyph-name="emdash.altuc" horiz-adv-x="2473" 
d="M2408 419v-159h-2343v159h2343z" />
    <glyph glyph-name="equal.lintab" 
d="M158 533h604v-142h-604v142zM158 287h604v-142h-604v142z" />
    <glyph glyph-name="equal.uctab" 
d="M158 541h604v-142h-604v142zM158 295h604v-142h-604v142z" />
    <glyph glyph-name="f.short" horiz-adv-x="554" 
d="M517 757v-136h-74c-28 0 -39 -12 -39 -40v-23h113v-167h-113v-391h-253v391h-114v167h114v29c0 110 39 170 186 170h180z" />
    <glyph glyph-name="f_f.short" horiz-adv-x="1032" 
d="M628 0v391h-224v-391h-253v391h-114v167h114v29c0 110 39 170 186 170h182v-136h-76c-28 0 -39 -12 -39 -40v-23h224v29c0 110 40 170 186 170h181v-136h-74c-28 0 -39 -12 -39 -40v-23h113v-167h-113v-391h-254z" />
    <glyph glyph-name="five.lintab" 
d="M873 256c0 -110 -55 -267 -385 -267h-29c-340 0 -389 157 -389 229v11h281c5 -14 32 -48 125 -48c92 0 129 32 129 77v6c0 42 -36 69 -129 69c-92 0 -120 -32 -125 -46h-268v457h744v-187h-481v-123c14 11 77 58 214 58h12c236 0 301 -112 301 -224v-12z" />
    <glyph glyph-name="four.lintab" 
d="M52 141v158l377 450h321v-421h132v-187h-132v-141h-264v141h-434zM271 328h215v262z" />
    <glyph glyph-name="greater.lintab" 
d="M189 630l546 -191v-171l-546 -192v165l379 113l-379 112v164z" />
    <glyph glyph-name="greater.uctab" 
d="M189 638l546 -191v-171l-546 -192v165l379 113l-379 112v164z" />
    <glyph glyph-name="j.short" horiz-adv-x="404" 
d="M330 761v-151h-257v151h257zM-6 -25h44c28 0 35 13 35 39v544h257v-593c0 -95 -47 -154 -140 -154h-196v164z" />
    <glyph glyph-name="less.lintab" 
d="M731 76l-546 191v171l546 192v-165l-379 -112l379 -113v-164z" />
    <glyph glyph-name="less.uctab" 
d="M731 84l-546 191v171l546 192v-165l-379 -112l379 -113v-164z" />
    <glyph glyph-name="minus.lintab" 
d="M150 432h620v-157h-620v157z" />
    <glyph glyph-name="minus.uctab" 
d="M150 440h620v-157h-620v157z" />
    <glyph glyph-name="multiply.lintab" 
d="M746 180l-112 -116l-176 172l-175 -172l-108 112l171 169l-172 167l117 117l172 -169l172 170l111 -112l-172 -168z" />
    <glyph glyph-name="multiply.uctab" 
d="M746 188l-112 -116l-176 172l-175 -172l-108 112l171 169l-172 167l117 117l172 -169l172 170l111 -112l-172 -168z" />
    <glyph glyph-name="nine.lintab" 
d="M869 359c0 -130 -55 -370 -396 -370h-30c-298 0 -365 140 -365 234v1h266c3 -14 19 -56 115 -56c122 0 138 99 138 160v7c-21 -18 -88 -64 -228 -64h-13c-225 0 -309 102 -309 215v16c0 114 64 251 380 251h40c346 0 402 -229 402 -370v-24zM576 499c0 34 -26 74 -127 74
c-109 0 -129 -41 -129 -74v-2c0 -34 21 -72 129 -72c102 0 127 38 127 72v2z" />
    <glyph glyph-name="one.lintab" 
d="M870 192v-192h-766v192h258v269h-211v168c182 2 236 26 273 115h207v-552h239z" />
    <glyph glyph-name="percent.lintab" 
d="M234 397h-14c-164 0 -206 104 -206 174v13c0 70 42 168 206 168h14c163 0 207 -98 207 -168v-13c0 -70 -44 -174 -207 -174zM701 744h159l-646 -744h-159zM289 578v2c0 42 -21 68 -61 68c-41 0 -61 -26 -61 -69v-2c0 -43 20 -70 61 -70c40 0 61 27 61 71zM699 -7h-14
c-163 0 -206 103 -206 173v13c0 71 43 169 206 169h14c163 0 207 -98 207 -169v-13c0 -70 -44 -173 -207 -173zM754 173v2c0 42 -21 68 -61 68c-41 0 -61 -26 -61 -68v-3c0 -43 20 -69 61 -69c40 0 61 26 61 70z" />
    <glyph glyph-name="perthousand.lintab" 
d="M203 455h-11c-141 0 -178 83 -178 145v11c0 63 37 141 178 141h11c141 0 179 -78 179 -141v-11c0 -62 -38 -145 -179 -145zM245 606v3c0 41 -17 57 -47 57s-46 -16 -46 -57v-3c0 -41 16 -60 46 -60s47 19 47 60zM729 581v-103l-708 -236v103zM332 -8h-12
c-141 0 -176 84 -176 145v11c0 61 35 141 176 141h12c141 0 177 -80 177 -141v-11c0 -61 -36 -145 -177 -145zM726 -8h-11c-141 0 -176 84 -176 145v11c0 61 35 141 176 141h11c141 0 178 -80 178 -141v-11c0 -61 -37 -145 -178 -145zM372 143v3c0 40 -16 56 -45 56
c-31 0 -46 -16 -46 -56v-3c0 -40 15 -59 46 -59c29 0 45 19 45 59zM768 143v3c0 40 -17 56 -47 56s-45 -16 -45 -56v-3c0 -40 15 -59 45 -59s47 19 47 59z" />
    <glyph glyph-name="plus.lintab" 
d="M773 277h-224v-228h-178v228h-224v153h224v221h178v-221h224v-153z" />
    <glyph glyph-name="plus.uctab" 
d="M773 286h-224v-228h-178v228h-224v153h224v221h178v-221h224v-153z" />
    <glyph glyph-name="seven.lintab" 
d="M74 744h791v-177c-30 -45 -80 -124 -141 -224c-96 -157 -105 -221 -105 -336v-7h-291v60c0 131 36 191 157 327c79 89 142 155 142 169h-295v-124h-258v312z" />
    <glyph glyph-name="six.lintab" 
d="M873 244c0 -109 -64 -255 -384 -255h-33c-347 0 -405 230 -405 368v24c0 127 54 372 401 372h27c302 0 363 -138 363 -235v-1h-266c-3 14 -19 57 -112 57c-125 0 -141 -99 -141 -160v-7c21 17 90 64 230 64h13c232 0 307 -95 307 -210v-17zM344 243c0 -35 25 -74 127 -74
c109 0 128 41 128 74v2c0 34 -20 72 -128 72c-103 0 -127 -38 -127 -72v-2z" />
    <glyph glyph-name="sterling.lintab" 
d="M878 277v-277h-835v173h57c61 0 91 24 91 69v3c0 24 -7 51 -17 81h-131v95h99c-10 32 -17 65 -17 97v7c0 117 75 228 344 228h38c323 0 349 -153 349 -277v-4h-268c0 54 -16 103 -102 103c-74 0 -97 -41 -97 -90c0 -18 3 -40 8 -64h312v-95h-297c2 -11 2 -22 2 -33
c0 -71 -48 -109 -87 -120h283v104h268z" />
    <glyph glyph-name="three.lintab" 
d="M878 244c0 -115 -59 -255 -413 -255h-39c-343 0 -394 170 -394 260v14h274c3 -25 19 -82 144 -82c129 0 148 37 148 67v2c0 30 -12 51 -83 51h-201v169h200c62 0 74 20 74 47c0 31 -17 57 -140 57c-126 0 -136 -47 -138 -67h-268v12c0 79 39 236 378 236h46
c338 0 387 -105 387 -189v-7c0 -83 -61 -118 -123 -134c77 -15 148 -67 148 -174v-7z" />
    <glyph glyph-name="two.lintab" 
d="M878 199v-199h-823v134c0 114 40 218 313 287l108 27c87 21 107 39 107 68v1c0 34 -21 60 -114 60c-109 0 -123 -61 -125 -95h-276v7c0 105 46 265 378 265h43c297 0 375 -99 375 -236v-8c0 -141 -102 -195 -316 -227c-40 -6 -98 -17 -130 -22
c-120 -23 -139 -44 -139 -62h599z" />
    <glyph glyph-name="uni0192" unicode="&#x192;" horiz-adv-x="604" 
d="M550 294h-133l-21 -484h-251l21 484h-116v166h123l4 104c5 118 49 180 196 180h177v-166h-78c-32 0 -43 -13 -45 -47l-3 -71h126v-166z" />
    <glyph glyph-name="uni0237" unicode="&#x237;" horiz-adv-x="404" 
d="M-15 -25h53c28 0 35 13 35 39v544h257v-593c0 -95 -47 -154 -140 -154h-205v164z" />
    <glyph glyph-name="uni02BC" unicode="&#x2bc;" horiz-adv-x="394" 
d="M278 408h-159c25 41 53 105 63 146h-123v190h274v-154c0 -68 -33 -144 -55 -182z" />
    <glyph glyph-name="uni0401" unicode="&#x401;" horiz-adv-x="900" 
d="M84 744h743v-180h-474v-95h459v-185h-459v-102h481v-182h-750v744zM726 949v-151h-243v151h243zM429 949v-151h-243v151h243z" />
    <glyph glyph-name="uni0402" unicode="&#x402;" horiz-adv-x="1102" 
d="M1042 162c0 -187 -136 -289 -376 -289h-84v186h44c103 0 143 41 143 101v7c0 62 -52 99 -157 99h-15c-37 0 -72 -4 -107 -10v-256h-269v554h-201v190h730v-190h-260v-116c45 6 103 11 154 11h31c231 0 367 -92 367 -279v-8z" />
    <glyph glyph-name="uni0403" unicode="&#x403;" horiz-adv-x="789" 
d="M547 798h-252l96 156h282zM84 0v744h684v-188h-414v-556h-270z" />
    <glyph glyph-name="uni0404" unicode="&#x404;" horiz-adv-x="1073" 
d="M1023 296c0 -116 -70 -308 -461 -308h-45c-386 0 -466 225 -466 371v30c0 147 79 367 466 367h45c390 0 461 -180 461 -306v-1h-279c-2 17 -19 110 -204 110c-115 0 -170 -43 -194 -94h291v-176h-292c24 -53 80 -101 196 -101c184 0 201 94 203 110h279v-2z" />
    <glyph glyph-name="uni0405" unicode="&#x405;" horiz-adv-x="988" 
d="M935 235c0 -121 -57 -247 -424 -247h-25c-396 0 -436 155 -436 254v6h290c3 -28 14 -88 153 -88h6c135 0 154 36 154 68c0 35 -20 60 -141 63l-104 3c-275 6 -348 108 -348 227v8c0 128 82 225 406 225h43c357 0 414 -124 414 -233v-5h-285c-4 29 -24 71 -148 71h-8
c-120 0 -143 -23 -143 -56c0 -32 22 -54 133 -58l107 -2c290 -8 356 -92 356 -224v-12z" />
    <glyph glyph-name="uni0406" unicode="&#x406;" horiz-adv-x="438" 
d="M354 744v-744h-270v744h270z" />
    <glyph glyph-name="uni0407" unicode="&#x407;" horiz-adv-x="438" 
d="M354 744v-744h-270v744h270zM489 949v-151h-243v151h243zM192 949v-151h-243v151h243z" />
    <glyph glyph-name="uni0408" unicode="&#x408;" horiz-adv-x="931" 
d="M850 345c0 -146 -60 -358 -388 -358h-40c-330 0 -388 204 -388 343v5h271c3 -41 19 -136 133 -136h3c106 0 139 72 139 157v388h270v-399z" />
    <glyph glyph-name="uni0408.alt" horiz-adv-x="632" 
d="M48 0v211h121c86 0 110 34 110 127v406h270v-468c0 -193 -82 -276 -267 -276h-234z" />
    <glyph glyph-name="uni0409" unicode="&#x409;" horiz-adv-x="1563" 
d="M127 268c21 49 25 128 25 476h751v-223h278c273 0 347 -102 347 -254v-11c0 -142 -77 -256 -348 -256h-546v556h-224c0 -199 -11 -334 -41 -409c-37 -93 -108 -147 -262 -147h-85v211h16c47 0 73 22 89 57zM903 188h255c58 0 88 29 88 70v7c0 41 -30 67 -88 67h-255v-144
z" />
    <glyph glyph-name="uni040A" unicode="&#x40a;" horiz-adv-x="1596" 
d="M667 0v300h-313v-300h-270v744h270v-243h313v243h269v-243h278c273 0 347 -98 347 -244v-11c0 -136 -77 -246 -348 -246h-546zM936 316v-131h255c59 0 88 26 88 63v7c0 37 -29 61 -88 61h-255z" />
    <glyph glyph-name="uni040B" unicode="&#x40b;" horiz-adv-x="1109" 
d="M604 266c-37 0 -73 -4 -114 -13v-253h-269v554h-201v190h730v-190h-260v-119c52 7 109 14 164 14h14c252 0 371 -69 371 -298v-151h-270v134c0 102 -42 132 -154 132h-11z" />
    <glyph glyph-name="uni040C" unicode="&#x40c;" horiz-adv-x="986" 
d="M660 0l-307 332v-332h-269v744h269v-288l306 288h317l-362 -336l387 -408h-341zM628 798h-252l96 156h282z" />
    <glyph glyph-name="uni040E" unicode="&#x40e;" horiz-adv-x="992" 
d="M657 165c-66 -108 -123 -165 -274 -165h-229v192h134c16 0 23 7 23 18v1c0 13 -4 23 -16 40l-309 493h302l218 -362l211 362h290zM737 973c0 -63 -42 -180 -221 -180h-21c-195 0 -222 117 -222 180v2h172c2 -21 10 -57 61 -57h1c49 0 59 36 60 57h170v-2z" />
    <glyph glyph-name="uni040F" unicode="&#x40f;" horiz-adv-x="1034" 
d="M950 744v-744h-310v-125h-246v125h-310v744h270v-556h327v556h269z" />
    <glyph glyph-name="uni0410" unicode="&#x410;" horiz-adv-x="1041" 
d="M759 0l-55 121h-385l-54 -121h-269l344 744h353l352 -744h-286zM398 295h228l-115 254z" />
    <glyph glyph-name="uni0411" unicode="&#x411;" horiz-adv-x="1014" 
d="M84 0v744h836v-179h-566v-81h317c221 0 303 -104 303 -236v-11c0 -132 -83 -237 -303 -237h-587zM354 179h252c56 0 86 23 86 62v5c0 36 -29 59 -86 59h-252v-126z" />
    <glyph glyph-name="uni0412" unicode="&#x412;" horiz-adv-x="1066" 
d="M84 0v744h620c213 0 278 -80 278 -174v-7c0 -101 -88 -143 -144 -151c78 -11 185 -55 185 -183v-10c0 -122 -75 -219 -318 -219h-621zM629 570h-275v-108h275c57 0 75 22 75 53v2c0 32 -19 53 -75 53zM649 301h-295v-119h295c71 0 84 32 84 60v4c0 29 -13 55 -84 55z" />
    <glyph glyph-name="uni0413" unicode="&#x413;" horiz-adv-x="789" 
d="M84 0v744h684v-188h-414v-556h-270z" />
    <glyph glyph-name="uni0414" unicode="&#x414;" horiz-adv-x="1128" 
d="M109 188c44 97 70 207 70 556h804v-556h120v-313h-247v125h-588v-125h-247v313h88zM366 188h347v368h-288c0 -210 -32 -304 -59 -368z" />
    <glyph glyph-name="uni0414.bgr" horiz-adv-x="1105" 
d="M265 0v-125h-247v313h95l262 556h342l274 -556h96v-313h-247v125h-575zM385 188h304l-152 333z" />
    <glyph glyph-name="uni0415" unicode="&#x415;" horiz-adv-x="900" 
d="M84 744h743v-180h-474v-95h459v-185h-459v-102h481v-182h-750v744z" />
    <glyph glyph-name="uni0416" unicode="&#x416;" horiz-adv-x="1460" 
d="M592 0v318l-280 -318h-327l359 400l-347 344h317l278 -275v275h269v-275l278 275h312l-339 -336l364 -408h-335l-280 319v-319h-269z" />
    <glyph glyph-name="uni0416.bgr" horiz-adv-x="1460" 
d="M592 0v318l-280 -318h-327l359 400l-347 344h317l278 -275v275h269v-275l278 275h312l-339 -336l364 -408h-335l-280 319v-319h-269z" />
    <glyph glyph-name="uni0417" unicode="&#x417;" horiz-adv-x="1042" 
d="M999 214c0 -159 -169 -227 -450 -227h-24c-273 0 -479 74 -479 278v6h284c0 -81 69 -111 215 -111c117 0 173 23 173 73c0 48 -48 64 -133 64h-186v167h170c75 0 118 12 118 54c0 41 -37 65 -158 65c-110 0 -191 -23 -193 -98h-284v8c0 187 202 260 466 260h32
c266 0 419 -69 419 -194v-7c0 -96 -65 -135 -140 -156c80 -15 170 -68 170 -172v-10z" />
    <glyph glyph-name="uni0418" unicode="&#x418;" horiz-adv-x="1078" 
d="M725 0v449l-371 -449h-270v744h270v-449l371 449h269v-744h-269z" />
    <glyph glyph-name="uni0419" unicode="&#x419;" horiz-adv-x="1078" 
d="M725 0v449l-371 -449h-270v744h270v-449l371 449h269v-744h-269zM774 973c0 -63 -42 -180 -221 -180h-21c-195 0 -222 117 -222 180v2h172c2 -21 10 -57 61 -57h1c49 0 59 36 60 57h170v-2z" />
    <glyph glyph-name="uni041A" unicode="&#x41a;" horiz-adv-x="986" 
d="M660 0l-307 332v-332h-269v744h269v-288l306 288h317l-362 -336l387 -408h-341z" />
    <glyph glyph-name="uni041A.bgr" horiz-adv-x="986" 
d="M660 0l-307 332v-332h-269v744h269v-288l306 288h317l-362 -336l387 -408h-341z" />
    <glyph glyph-name="uni041B" unicode="&#x41b;" horiz-adv-x="1021" 
d="M667 0v556h-257c0 -205 -12 -334 -41 -409c-38 -93 -108 -147 -262 -147h-85v211h16c47 0 73 22 89 57c21 49 25 121 25 476h785v-744h-270z" />
    <glyph glyph-name="uni041B.bgr" horiz-adv-x="1038" 
d="M-4 0l347 744h334l365 -744h-313l-225 498l-225 -498h-283z" />
    <glyph glyph-name="uni041C" unicode="&#x41c;" horiz-adv-x="1302" 
d="M84 0v744h372l201 -425l205 425h356v-744h-264v465l-221 -465h-170l-219 465v-465h-260z" />
    <glyph glyph-name="uni041D" unicode="&#x41d;" horiz-adv-x="1084" 
d="M731 0v282h-377v-282h-270v744h270v-262h377v262h269v-744h-269z" />
    <glyph glyph-name="uni041E" unicode="&#x41e;" horiz-adv-x="1105" 
d="M530 757h45c397 0 479 -214 479 -368v-30c0 -152 -81 -372 -479 -372h-45c-396 0 -479 220 -479 372v30c1 154 83 368 479 368zM772 381c0 71 -31 174 -220 174c-188 0 -219 -103 -219 -174v-11c0 -72 34 -178 220 -178c187 0 219 106 219 178v11z" />
    <glyph glyph-name="uni041F" unicode="&#x41f;" horiz-adv-x="1034" 
d="M84 0v744h866v-744h-269v556h-327v-556h-270z" />
    <glyph glyph-name="uni0420" unicode="&#x420;" horiz-adv-x="1022" 
d="M627 222h-273v-222h-270v744h543c277 0 349 -104 349 -251v-13c0 -148 -75 -258 -349 -258zM354 554v-142h248c73 0 94 32 94 71v2c0 36 -21 69 -94 69h-248z" />
    <glyph glyph-name="uni0421" unicode="&#x421;" horiz-adv-x="1073" 
d="M562 -12h-45c-386 0 -466 225 -466 371v30c0 147 79 367 466 367h45c390 0 461 -180 461 -306v-8h-279c-2 18 -19 112 -204 112c-173 0 -207 -100 -207 -172v-12c0 -71 36 -177 208 -177c184 0 201 95 203 111h279v-8c0 -116 -70 -308 -461 -308z" />
    <glyph glyph-name="uni0422" unicode="&#x422;" horiz-adv-x="957" 
d="M46 539v205h865v-205h-298v-539h-269v539h-298z" />
    <glyph glyph-name="uni0423" unicode="&#x423;" horiz-adv-x="992" 
d="M657 165c-66 -108 -123 -165 -274 -165h-229v192h134c16 0 23 7 23 18v1c0 13 -4 23 -16 40l-309 493h302l218 -362l211 362h290z" />
    <glyph glyph-name="uni0424" unicode="&#x424;" horiz-adv-x="1377" 
d="M554 677v77h269v-77h157c204 0 362 -80 362 -290v-8c0 -210 -159 -303 -364 -303h-155v-86h-269v86h-154c-205 0 -365 93 -365 303v8c0 210 159 290 363 290h156zM554 489h-97c-82 0 -140 -32 -140 -102v-8c0 -82 57 -115 140 -115h97v225zM823 489v-225h97
c83 0 141 33 141 115v8c0 70 -59 102 -141 102h-97z" />
    <glyph glyph-name="uni0425" unicode="&#x425;" horiz-adv-x="1010" 
d="M692 0l-190 238l-189 -238h-318l303 386l-291 358h334l173 -219l174 219h307l-285 -358l305 -386h-323z" />
    <glyph glyph-name="uni0426" unicode="&#x426;" horiz-adv-x="1095" 
d="M823 -125v125h-739v744h270v-556h327v556h269v-556h120v-313h-247z" />
    <glyph glyph-name="uni0427" unicode="&#x427;" horiz-adv-x="1036" 
d="M682 0v264c-60 -7 -138 -14 -205 -14c-286 0 -422 69 -422 306v188h269v-152c0 -118 60 -147 210 -147c46 0 119 5 148 11v288h270v-744h-270z" />
    <glyph glyph-name="uni0428" unicode="&#x428;" horiz-adv-x="1389" 
d="M84 0v744h270v-556h206v556h269v-556h207v556h269v-744h-1221z" />
    <glyph glyph-name="uni0429" unicode="&#x429;" horiz-adv-x="1450" 
d="M84 0v744h270v-556h206v556h269v-556h207v556h269v-556h120v-313h-247v125h-1094z" />
    <glyph glyph-name="uni042A" unicode="&#x42a;" horiz-adv-x="1170" 
d="M20 556v188h491v-223h278c272 0 346 -102 346 -254v-11c0 -142 -77 -256 -347 -256h-547v556h-221zM511 188h255c58 0 87 29 87 70v7c0 41 -29 67 -87 67h-255v-144z" />
    <glyph glyph-name="uni042B" unicode="&#x42b;" horiz-adv-x="1403" 
d="M354 744v-223h278c272 0 346 -102 346 -254v-11c0 -142 -77 -256 -347 -256h-547v744h270zM354 188h255c58 0 87 29 87 70v7c0 41 -29 67 -87 67h-255v-144zM1319 744v-744h-270v744h270z" />
    <glyph glyph-name="uni042C" unicode="&#x42c;" horiz-adv-x="1013" 
d="M354 744v-223h278c272 0 346 -102 346 -254v-11c0 -142 -77 -256 -347 -256h-547v744h270zM354 188h255c58 0 87 29 87 70v7c0 41 -29 67 -87 67h-255v-144z" />
    <glyph glyph-name="uni042D" unicode="&#x42d;" horiz-adv-x="1073" 
d="M1022 359c0 -146 -80 -371 -466 -371h-45c-384 0 -461 183 -461 295v9h279c2 -16 19 -104 203 -104c126 0 179 46 201 101h-309v176h308c-21 52 -74 94 -199 94c-185 0 -202 -88 -204 -104h-279v8c0 121 84 293 461 293h45c386 0 466 -220 466 -367v-30z" />
    <glyph glyph-name="uni042E" unicode="&#x42e;" horiz-adv-x="1486" 
d="M1435 359c0 -152 -79 -372 -469 -372h-45c-326 0 -435 155 -461 295h-106v-282h-270v744h270v-262h109c32 135 144 275 458 275h45c389 0 469 -214 469 -368v-30zM1153 381c0 71 -30 174 -209 174c-181 0 -210 -103 -210 -174v-11c0 -72 33 -178 210 -178
c179 0 209 106 209 178v11z" />
    <glyph glyph-name="uni042F" unicode="&#x42f;" horiz-adv-x="1088" 
d="M735 234h-156l-230 -234h-320l261 265c-142 22 -222 101 -222 224v10c0 138 105 245 313 245h623v-744h-269v234zM735 426v128h-299c-64 0 -86 -26 -86 -62v-2c0 -38 24 -64 86 -64h299z" />
    <glyph glyph-name="uni042F.alt" horiz-adv-x="1052" 
d="M207 327c-78 18 -150 72 -150 180v7c0 121 72 230 312 230h599v-744h-269v233h-216c-106 0 -140 -28 -140 -124v-63c0 -28 -3 -42 -6 -46h-278v5c7 10 12 22 12 61v79c0 113 50 162 136 182zM699 554h-276c-70 0 -86 -29 -86 -61v-2c0 -33 16 -64 86 -64h276v127z" />
    <glyph glyph-name="uni0430" unicode="&#x430;" horiz-adv-x="837" 
d="M508 70c-19 -21 -79 -82 -217 -82h-17c-156 0 -231 76 -231 180v5c0 103 64 157 261 170l158 9c29 2 39 12 39 32v1c0 24 -12 45 -93 45h-4c-87 0 -93 -38 -94 -52h-253v1c0 75 31 193 330 193h34c305 0 332 -107 332 -194v-172c0 -20 6 -29 27 -29h31v-177h-208
c-56 0 -84 39 -95 70zM374 128c91 0 127 56 127 100v27c-18 -4 -58 -11 -101 -18c-82 -13 -103 -27 -103 -59v-2c0 -29 25 -48 77 -48z" />
    <glyph glyph-name="uni0430.alt" horiz-adv-x="824" 
d="M508 70c-20 -21 -80 -82 -217 -82h-17c-156 0 -231 76 -231 180v5c0 103 64 157 261 170l158 9c29 2 39 12 39 32v1c0 24 -12 45 -93 45h-4c-87 0 -93 -38 -94 -52h-253v1c0 75 31 193 330 193h34c305 0 332 -107 332 -194v-187c0 -107 8 -150 22 -191h-249
c-8 14 -17 45 -18 70zM374 128c91 0 127 56 127 100v27c-18 -4 -58 -11 -101 -18c-82 -13 -103 -27 -103 -59v-2c0 -29 25 -48 77 -48z" />
    <glyph glyph-name="uni0430.alt2" horiz-adv-x="883" 
d="M553 558h257v-558h-256v68c-20 -22 -81 -79 -205 -79h-12c-214 0 -292 147 -292 277v24c0 129 75 279 294 279h11c126 0 183 -49 203 -68v57zM429 402c-90 0 -115 -68 -115 -120v-3c0 -52 27 -122 115 -122h8c90 0 118 68 118 121v5c0 51 -28 119 -118 119h-8z" />
    <glyph glyph-name="uni0431" unicode="&#x431;" horiz-adv-x="886" 
d="M842 255c0 -206 -177 -270 -387 -270h-20c-210 0 -391 67 -391 340v28c0 275 153 386 413 386h54c55 0 62 6 68 18h241c0 -135 -30 -192 -210 -192h-122c-158 0 -201 -44 -204 -128c57 51 131 81 256 81h15c132 0 287 -64 287 -253v-10zM439 150h8c72 0 127 35 127 110
c0 73 -56 108 -127 108h-8c-73 0 -127 -34 -127 -109s53 -109 127 -109z" />
    <glyph glyph-name="uni0431.alt" horiz-adv-x="886" 
d="M842 255c0 -206 -177 -270 -387 -270h-20c-210 0 -391 67 -391 340v28c0 281 150 393 413 393h244c51 0 85 5 105 12v-172c-20 -9 -55 -14 -105 -14h-213c-165 0 -201 -47 -204 -135c57 51 131 81 256 81h15c132 0 287 -64 287 -253v-10zM439 150h8c72 0 127 35 127 110
c0 73 -56 108 -127 108h-8c-73 0 -127 -34 -127 -109s53 -109 127 -109z" />
    <glyph glyph-name="uni0431.locl" horiz-adv-x="887" 
d="M842 248c0 -93 -45 -263 -384 -263h-31c-326 0 -382 170 -382 264v14c0 75 45 149 146 181c-71 23 -113 66 -113 137c0 112 86 158 236 158h195c56 0 62 6 68 18h242c0 -135 -25 -192 -207 -192h-230c-54 0 -76 -4 -76 -23s22 -25 83 -27h70c339 -7 383 -161 383 -251
v-16zM448 143c96 0 126 64 126 108c0 47 -29 107 -126 107h-11c-100 0 -125 -60 -125 -107c0 -44 24 -108 125 -108h11z" />
    <glyph glyph-name="uni0431.loclalt" horiz-adv-x="886" 
d="M842 248c0 -93 -45 -263 -384 -263h-31c-318 0 -382 164 -382 259v14c0 75 42 153 149 186c-76 24 -115 69 -115 141c0 108 81 161 236 161h369c51 0 85 5 105 12v-172c-20 -9 -55 -14 -105 -14h-302c-54 0 -76 -5 -76 -28c0 -21 22 -27 83 -29h70
c339 -7 383 -161 383 -251v-16zM448 143c96 0 126 64 126 108c0 47 -29 107 -126 107h-11c-100 0 -125 -60 -125 -107c0 -44 24 -108 125 -108h11z" />
    <glyph glyph-name="uni0432" unicode="&#x432;" horiz-adv-x="885" 
d="M634 0h-561v558h541c126 0 207 -46 207 -134v-5c0 -71 -45 -114 -111 -124c67 -9 129 -55 129 -135v-4c0 -101 -67 -156 -205 -156zM330 340h160c46 0 64 17 64 46v2c0 28 -18 45 -64 45h-160v-93zM330 125h169c49 0 73 15 73 49v3c0 30 -20 50 -73 50h-169v-102z" />
    <glyph glyph-name="uni0432.bgr" horiz-adv-x="887" 
d="M844 243v-7c0 -170 -153 -251 -374 -251h-33c-187 0 -374 69 -374 287v177c0 224 161 308 369 308h37c214 0 350 -70 350 -203v-13c0 -81 -56 -137 -112 -149c63 -9 137 -62 137 -149zM320 483v-30h148c76 0 103 28 103 69v4c0 44 -35 76 -112 76h-9
c-67 0 -130 -28 -130 -119zM449 146h11c77 0 122 31 122 91v5c0 44 -30 78 -120 78h-142v-53c0 -100 68 -121 129 -121z" />
    <glyph glyph-name="uni0433" unicode="&#x433;" horiz-adv-x="641" 
d="M73 0v558h546v-165h-289v-393h-257z" />
    <glyph glyph-name="uni0433.bgr" horiz-adv-x="811" 
d="M766 177c0 -65 -23 -190 -341 -190h-29c-305 0 -351 92 -351 183v10c0 92 49 152 271 170l90 7c69 6 88 16 88 40s-19 38 -84 38h-5c-71 0 -84 -27 -88 -44h-265v1c0 88 53 178 344 178h23c265 0 334 -71 334 -164v-6c0 -86 -46 -155 -260 -177l-88 -10
c-78 -8 -93 -17 -93 -41c0 -22 18 -40 88 -40h2c74 0 89 32 90 48h274v-3z" />
    <glyph glyph-name="uni0433.locl" horiz-adv-x="641" 
d="M73 0v558h546v-165h-289v-393h-257z" />
    <glyph glyph-name="uni0434" unicode="&#x434;" horiz-adv-x="946" 
d="M29 -118v283h72c31 73 40 233 41 393h675v-393h100v-283h-234v118h-420v-118h-234zM334 165h226v231h-191c-1 -77 -17 -173 -35 -231z" />
    <glyph glyph-name="uni0434.bgr" horiz-adv-x="903" 
d="M831 63c0 -154 -87 -268 -362 -268h-29c-326 0 -360 119 -360 187v3h283c5 -11 20 -31 96 -31h7c75 0 108 42 108 101v36c-19 -21 -78 -72 -209 -72h-13c-230 0 -305 135 -305 266v18c0 134 77 267 298 267h11c134 0 195 -45 218 -64v52h257v-495zM441 407
c-97 0 -126 -60 -126 -112v-2c0 -51 30 -113 126 -113h8c97 0 126 61 126 111v5c0 47 -31 111 -126 111h-8z" />
    <glyph glyph-name="uni0434.locl" horiz-adv-x="946" 
d="M29 -118v283h72c31 73 40 233 41 393h675v-393h100v-283h-234v118h-420v-118h-234zM334 165h226v231h-191c-1 -77 -17 -173 -35 -231z" />
    <glyph glyph-name="uni0435" unicode="&#x435;" horiz-adv-x="878" 
d="M832 182c-4 -66 -50 -196 -366 -196h-44c-314 0 -378 162 -378 286v14c0 128 66 286 367 286h45c320 0 378 -157 378 -317v-21h-524c11 -60 49 -95 142 -95c89 0 106 34 110 43h270zM438 431c-82 0 -114 -31 -126 -85h249c-1 43 -24 85 -123 85z" />
    <glyph glyph-name="uni0436" unicode="&#x436;" horiz-adv-x="1170" 
d="M453 0v243l-178 -243h-281l228 300l-215 258h284l162 -208v208h257v-208l163 208h279l-209 -250l234 -308h-288l-179 243v-243h-257z" />
    <glyph glyph-name="uni0436.bgr" horiz-adv-x="1170" 
d="M453 0v243l-178 -243h-281l228 300l-215 258h284l162 -208v407h257v-407l163 208h279l-209 -250l234 -308h-288l-179 243v-243h-257z" />
    <glyph glyph-name="uni0437" unicode="&#x437;" horiz-adv-x="857" 
d="M812 156c0 -110 -111 -171 -363 -171h-18c-279 0 -386 88 -386 207v8h271c4 -59 70 -73 125 -73c62 0 103 15 103 55v1c0 35 -27 44 -81 44h-126v121h126c42 0 63 14 63 42v1c0 27 -26 42 -94 42c-62 0 -110 -17 -114 -53h-268v3c0 127 133 190 375 190h16
c235 0 353 -49 353 -152v-4c0 -79 -77 -114 -123 -124c56 -12 141 -42 141 -131v-6z" />
    <glyph glyph-name="uni0437.bgr" horiz-adv-x="873" 
d="M49 331c0 163 170 242 383 242h16c229 0 362 -71 362 -197v-7c0 -98 -59 -151 -123 -164c67 -15 141 -62 141 -161v-10c0 -156 -133 -239 -369 -239h-18c-261 0 -397 91 -397 283v10h271v-5c6 -99 59 -129 134 -129c72 0 111 30 111 87v5c0 51 -34 80 -104 80h-120v154
h118c60 0 88 22 88 66v2c0 42 -33 68 -103 68c-68 0 -115 -26 -121 -87v-1h-269v3z" />
    <glyph glyph-name="uni0438" unicode="&#x438;" horiz-adv-x="901" 
d="M571 310l-236 -310h-262v558h257v-313l236 313h262v-558h-257v310z" />
    <glyph glyph-name="uni0438.bgr" horiz-adv-x="880" 
d="M807 558v-558h-255v87c-29 -34 -103 -102 -235 -102h-10c-166 0 -236 106 -236 213v360h258v-279c0 -56 28 -105 108 -105c75 0 113 49 113 114v270h257z" />
    <glyph glyph-name="uni0439" unicode="&#x439;" horiz-adv-x="901" 
d="M571 310l-236 -310h-262v558h257v-313l236 313h262v-558h-257v310zM677 791c0 -64 -38 -182 -220 -182h-20c-187 0 -220 118 -220 182v1h172c1 -17 6 -58 58 -58h1c49 0 57 40 58 58h171v-1z" />
    <glyph glyph-name="uni0439.bgr" horiz-adv-x="880" 
d="M807 0v558h-257v-270c0 -65 -38 -114 -113 -114c-80 0 -108 49 -108 105v279h-258v-360c0 -107 70 -213 236 -213h10c132 0 206 68 235 102v-87h255zM669 791c0 -64 -38 -182 -220 -182h-20c-187 0 -220 118 -220 182v1h172c1 -17 6 -58 58 -58h1c49 0 57 40 58 58h171
v-1z" />
    <glyph glyph-name="uni043A" unicode="&#x43a;" horiz-adv-x="794" 
d="M509 0l-179 244v-244h-257v558h257v-209l163 209h282l-208 -250l233 -308h-291z" />
    <glyph glyph-name="uni043A.bgr" horiz-adv-x="794" 
d="M509 0l-179 244v-244h-257v757h257v-408l163 209h282l-208 -250l233 -308h-291z" />
    <glyph glyph-name="uni043B" unicode="&#x43b;" horiz-adv-x="866" 
d="M536 0v393h-168c0 -127 -5 -219 -24 -269c-21 -55 -57 -124 -213 -124h-96v164h12c35 0 60 12 71 57c11 48 12 101 12 337h663v-558h-257z" />
    <glyph glyph-name="uni043B.bgr" horiz-adv-x="826" 
d="M4 -3l237 558h333l248 -558h-287l-131 365l-132 -365h-268z" />
    <glyph glyph-name="uni043C" unicode="&#x43c;" horiz-adv-x="1113" 
d="M310 345v-345h-237v558h377l130 -269l130 269h333v-558h-251v345l-166 -345h-149z" />
    <glyph glyph-name="uni043D" unicode="&#x43d;" horiz-adv-x="893" 
d="M330 0h-257v558h257v-193h233v193h257v-558h-257v200h-233v-200z" />
    <glyph glyph-name="uni043D.bgr" horiz-adv-x="893" 
d="M330 0h-257v558h257v-193h233v193h257v-558h-257v200h-233v-200z" />
    <glyph glyph-name="uni043E" unicode="&#x43e;" horiz-adv-x="886" 
d="M426 -15c-343 0 -382 186 -382 285v14c0 98 39 289 381 289h35c354 0 382 -191 382 -288v-16c0 -98 -28 -284 -383 -284h-33zM447 153c100 0 127 77 127 128c0 56 -27 127 -127 127h-8c-103 0 -127 -71 -127 -127c0 -52 23 -128 127 -128h8z" />
    <glyph glyph-name="uni043F" unicode="&#x43f;" horiz-adv-x="862" 
d="M73 0v558h717v-558h-258v393h-202v-393h-257z" />
    <glyph glyph-name="uni043F.bgr" horiz-adv-x="886" 
d="M73 0v558h255v-87c31 36 103 102 238 102h10c167 0 239 -106 239 -212v-361h-258v279c0 58 -30 106 -111 106c-78 0 -116 -50 -116 -115v-270h-257z" />
    <glyph glyph-name="uni043F.locl" horiz-adv-x="862" 
d="M73 0v558h717v-558h-258v393h-202v-393h-257z" />
    <glyph glyph-name="uni0440" unicode="&#x440;" horiz-adv-x="901" 
d="M73 -189v747h257v-68c26 26 95 79 225 79h8c224 0 293 -139 293 -279v-17c0 -129 -71 -284 -303 -284h-9c-129 0 -191 53 -214 73v-251h-257zM587 276v5c0 51 -28 121 -126 121h-4c-98 0 -128 -70 -128 -120v-6c0 -54 30 -119 128 -119h4c98 0 126 67 126 119z" />
    <glyph glyph-name="uni0441" unicode="&#x441;" horiz-adv-x="861" 
d="M817 231c0 -84 -36 -246 -358 -246h-49c-317 0 -366 177 -366 292v14c0 113 53 282 365 282h39c339 0 369 -160 369 -236v-1h-268c-2 18 -20 72 -112 72h-8c-90 0 -117 -62 -117 -123v-1c0 -63 28 -131 118 -131h8c94 0 109 61 111 79h268v-1z" />
    <glyph glyph-name="uni0442" unicode="&#x442;" horiz-adv-x="718" 
d="M230 0v393h-208v165h674v-165h-209v-393h-257z" />
    <glyph glyph-name="uni0442.bgr" horiz-adv-x="1330" 
d="M330 274v-274h-257v558h255v-88c23 32 96 103 226 103h4c114 0 180 -50 212 -112c45 54 126 112 245 112h8c178 0 235 -113 235 -211v-362h-256v287c0 48 -25 98 -102 98c-72 0 -106 -48 -106 -111v-274h-256v287c0 48 -24 98 -103 98c-72 0 -105 -47 -105 -111z" />
    <glyph glyph-name="uni0442.locl" horiz-adv-x="718" 
d="M230 0v393h-208v165h674v-165h-209v-393h-257z" />
    <glyph glyph-name="uni0443" unicode="&#x443;" horiz-adv-x="803" 
d="M552 -46c-39 -96 -98 -143 -205 -143h-237v162h129c16 0 24 5 24 17c0 9 -5 20 -16 44l-244 524h283l132 -364l119 364h263z" />
    <glyph glyph-name="uni0444" unicode="&#x444;" horiz-adv-x="1162" 
d="M729 -15h-19v-173h-257v173h-20c-353 0 -389 186 -389 285v14c0 98 36 289 388 289h21v171h257v-171h20c360 0 388 -191 388 -288v-16c0 -98 -28 -284 -389 -284zM439 148h14v265h-14c-102 0 -127 -72 -127 -132c0 -55 24 -133 127 -133zM723 413h-13v-265h13
c101 0 127 78 127 133c0 59 -26 132 -127 132z" />
    <glyph glyph-name="uni0445" unicode="&#x445;" horiz-adv-x="804" 
d="M519 0l-120 162l-119 -162h-282l217 286l-217 272h296l115 -153l114 153h277l-210 -271l218 -287h-289z" />
    <glyph glyph-name="uni0446" unicode="&#x446;" horiz-adv-x="918" 
d="M890 165v-283h-235v118h-582v558h257v-393h202v393h258v-393h100z" />
    <glyph glyph-name="uni0446.bgr" horiz-adv-x="936" 
d="M807 558v-393h100v-283h-234v118h-121v87c-29 -34 -103 -102 -235 -102h-10c-166 0 -236 106 -236 213v360h258v-279c0 -56 28 -105 108 -105c75 0 113 49 113 114v270h257z" />
    <glyph glyph-name="uni0447" unicode="&#x447;" horiz-adv-x="842" 
d="M512 558h257v-558h-257v186c-42 -6 -99 -11 -161 -11c-236 0 -312 71 -312 259v124h257v-105c0 -88 35 -107 128 -107c32 0 65 3 88 7v205z" />
    <glyph glyph-name="uni0447.bgr" horiz-adv-x="842" 
d="M512 558h257v-558h-257v186c-42 -6 -99 -11 -161 -11c-236 0 -312 71 -312 259v124h257v-105c0 -88 35 -107 128 -107c32 0 65 3 88 7v205z" />
    <glyph glyph-name="uni0448" unicode="&#x448;" horiz-adv-x="1200" 
d="M73 0v558h257v-393h142v393h257v-393h142v393h257v-558h-1055z" />
    <glyph glyph-name="uni0448.bgr" horiz-adv-x="1330" 
d="M1000 284v274h257v-558h-255v88c-23 -32 -96 -103 -226 -103h-4c-114 0 -180 50 -212 112c-45 -54 -126 -112 -245 -112h-8c-178 0 -235 113 -235 211v362h256v-287c0 -48 25 -98 102 -98c72 0 106 48 106 111v274h256v-287c0 -48 24 -98 103 -98c72 0 105 47 105 111z
" />
    <glyph glyph-name="uni0449" unicode="&#x449;" horiz-adv-x="1256" 
d="M73 0v558h257v-393h142v393h257v-393h142v393h257v-393h100v-283h-235v118h-920z" />
    <glyph glyph-name="uni0449.bgr" horiz-adv-x="1385" 
d="M1000 284v274h257v-393h99v-283h-234v118h-120v88c-23 -32 -96 -103 -226 -103h-4c-114 0 -180 50 -212 112c-45 -54 -126 -112 -245 -112h-8c-178 0 -235 113 -235 211v362h256v-287c0 -48 25 -98 102 -98c72 0 106 48 106 111v274h256v-287c0 -48 24 -98 103 -98
c72 0 105 47 105 111z" />
    <glyph glyph-name="uni044A" unicode="&#x44a;" horiz-adv-x="950" 
d="M22 393v165h410v-143h219c190 0 264 -88 264 -199v-12c0 -122 -74 -204 -264 -204h-476v393h-153zM432 155h147c34 0 69 10 69 53v3c0 40 -35 50 -69 50h-147v-106z" />
    <glyph glyph-name="uni044A.bgr" horiz-adv-x="965" 
d="M22 393v165h410v-139h188c217 0 309 -78 309 -200v-12c0 -133 -90 -222 -368 -222h-16c-264 0 -370 89 -370 248v160h-153zM432 228c0 -68 49 -83 116 -83h6c71 0 108 20 108 63v3c0 44 -38 58 -85 58h-145v-41z" />
    <glyph glyph-name="uni044B" unicode="&#x44b;" horiz-adv-x="1198" 
d="M73 0v558h257v-143h219c190 0 264 -88 264 -199v-12c0 -122 -74 -204 -264 -204h-476zM330 155h147c34 0 69 10 69 53v3c0 40 -35 50 -69 50h-147v-106zM1125 558v-558h-257v558h257z" />
    <glyph glyph-name="uni044C" unicode="&#x44c;" horiz-adv-x="848" 
d="M73 0v558h257v-143h219c190 0 264 -88 264 -199v-12c0 -122 -74 -204 -264 -204h-476zM330 155h147c34 0 69 10 69 53v3c0 40 -35 50 -69 50h-147v-106z" />
    <glyph glyph-name="uni044C.bgr" horiz-adv-x="862" 
d="M73 233v325h257v-139h188c217 0 309 -78 309 -200v-12c0 -133 -90 -222 -368 -222h-16c-264 0 -370 89 -370 248zM330 228c0 -68 49 -83 116 -83h6c71 0 108 20 108 63v3c0 44 -38 58 -85 58h-145v-41z" />
    <glyph glyph-name="uni044D" unicode="&#x44d;" horiz-adv-x="860" 
d="M817 277c0 -115 -49 -292 -366 -292h-49c-322 0 -359 158 -359 240v1h268c2 -19 18 -81 116 -81h8c69 0 102 32 115 81h-189v120h187c-14 43 -47 70 -112 70h-9c-95 0 -113 -55 -116 -74h-268v1c0 75 31 230 369 230h40c312 0 365 -169 365 -282v-14z" />
    <glyph glyph-name="uni044E" unicode="&#x44e;" horiz-adv-x="1223" 
d="M1179 269c0 -98 -26 -284 -372 -284h-33c-266 0 -344 117 -365 215h-79v-200h-257v558h257v-193h82c24 96 106 208 361 208h35c345 0 371 -191 371 -288v-16zM794 153c94 0 117 77 117 128c0 56 -23 127 -117 127h-8c-96 0 -116 -71 -116 -127c0 -52 19 -128 116 -128h8z
" />
    <glyph glyph-name="uni044E.bgr" horiz-adv-x="1223" 
d="M1179 269c0 -98 -26 -284 -372 -284h-33c-265 0 -344 117 -365 215h-79v-200h-257v757h257v-392h82c24 96 106 208 361 208h35c345 0 371 -191 371 -288v-16zM794 153c94 0 117 77 117 128c0 56 -23 127 -117 127h-8c-96 0 -116 -71 -116 -127c0 -52 19 -128 116 -128h8z
" />
    <glyph glyph-name="uni044F" unicode="&#x44f;" horiz-adv-x="900" 
d="M570 168h-109l-132 -168h-288l160 202c-84 22 -133 80 -133 162v7c0 107 74 187 244 187h515v-558h-257v168zM570 413h-169c-36 0 -68 -14 -68 -52v-2c0 -39 32 -53 68 -53h169v107z" />
    <glyph glyph-name="uni044F.alt" horiz-adv-x="884" 
d="M337 61c0 -40 -6 -53 -11 -61h-257v5c5 11 11 25 11 68v60c0 53 18 91 66 104c-62 25 -94 76 -94 137v7c0 104 77 177 231 177h528v-558h-257v168h-175c-36 0 -42 -14 -42 -47v-60zM554 413h-168c-37 0 -68 -14 -68 -51v-3c0 -38 31 -52 68 -52h168v106z" />
    <glyph glyph-name="uni0451" unicode="&#x451;" horiz-adv-x="878" 
d="M834 234h-524c11 -60 49 -95 142 -95c89 0 106 34 110 43h270c-4 -66 -50 -196 -366 -196h-44c-314 0 -378 162 -378 286v14c0 128 66 286 367 286h45c320 0 378 -157 378 -317v-21zM409 761v-151h-240v151h240zM701 761v-151h-240v151h240zM438 431
c-82 0 -114 -31 -126 -85h249c-1 43 -24 85 -123 85z" />
    <glyph glyph-name="uni0452" unicode="&#x452;" horiz-adv-x="886" 
d="M815 -47c0 -92 -39 -142 -116 -142h-241v164h60c29 0 39 12 39 44v260c0 58 -30 106 -111 106c-78 0 -116 -50 -116 -115v-270h-257v615h-88v89h88v53h257v-53h271v-89h-271v-142c30 34 101 100 236 100h10c167 0 239 -106 239 -212v-408z" />
    <glyph glyph-name="uni0453" unicode="&#x453;" horiz-adv-x="641" 
d="M73 0v558h546v-165h-289v-393h-257zM208 613l98 159h280l-131 -159h-247z" />
    <glyph glyph-name="uni0454" unicode="&#x454;" horiz-adv-x="861" 
d="M817 225c0 -82 -36 -240 -358 -240h-49c-317 0 -366 177 -366 292v14c0 113 53 282 365 282h39c339 0 369 -155 369 -230v-1h-268c-2 19 -20 74 -112 74h-8c-68 0 -102 -27 -117 -70h188v-120h-189c13 -49 47 -81 119 -81h8c94 0 109 63 111 81h268v-1z" />
    <glyph glyph-name="uni0455" unicode="&#x455;" horiz-adv-x="804" 
d="M759 174c0 -91 -43 -187 -352 -187h-28c-319 0 -341 126 -341 190v3h275c2 -16 13 -48 89 -48h2c70 0 88 19 88 41c0 24 -16 36 -94 41l-88 7c-215 12 -261 90 -261 177v6c0 93 65 166 334 166h23c295 0 344 -90 344 -178v-1h-266c-4 16 -14 44 -87 44h-5
c-67 0 -84 -14 -84 -38s20 -37 89 -40l90 -3c222 -10 272 -75 272 -171v-9z" />
    <glyph glyph-name="uni0456" unicode="&#x456;" horiz-adv-x="404" 
d="M330 761v-151h-257v151h257zM330 558v-558h-257v558h257z" />
    <glyph glyph-name="uni0457" unicode="&#x457;" horiz-adv-x="404" 
d="M182 761v-151h-187v151h187zM409 761v-151h-187v151h187zM330 558v-558h-257v558h257z" />
    <glyph glyph-name="uni0458" unicode="&#x458;" horiz-adv-x="404" 
d="M330 761v-151h-257v151h257zM-15 -25h53c28 0 35 13 35 39v544h257v-593c0 -95 -47 -154 -140 -154h-205v164z" />
    <glyph glyph-name="uni0458.short" horiz-adv-x="404" 
d="M330 761v-151h-257v151h257zM-6 -25h44c28 0 35 13 35 39v544h257v-593c0 -95 -47 -154 -140 -154h-196v164z" />
    <glyph glyph-name="uni0459" unicode="&#x459;" horiz-adv-x="1290" 
d="M118 221c13 48 12 81 12 337h642v-143h219c190 0 264 -88 264 -199v-12c0 -122 -74 -204 -264 -204h-476v393h-147c0 -130 -5 -219 -24 -269c-21 -55 -57 -124 -213 -124h-96v164h12c35 0 59 12 71 57zM772 155h147c35 0 69 9 69 53v3c0 40 -34 50 -69 50h-147v-106z" />
    <glyph glyph-name="uni045A" unicode="&#x45a;" horiz-adv-x="1304" 
d="M330 226v-226h-257v558h257v-166h199v166h257v-166h219c190 0 264 -84 264 -188v-12c0 -115 -74 -192 -264 -192h-476v226h-199zM786 248v-103h147c34 0 69 9 69 51v3c0 39 -35 49 -69 49h-147z" />
    <glyph glyph-name="uni045B" unicode="&#x45b;" horiz-adv-x="886" 
d="M330 270v-270h-257v615h-88v89h88v53h257v-53h271v-89h-271v-142c30 34 101 100 236 100h10c167 0 239 -106 239 -212v-361h-258v279c0 58 -30 106 -111 106c-78 0 -116 -50 -116 -115z" />
    <glyph glyph-name="uni045C" unicode="&#x45c;" horiz-adv-x="794" 
d="M292 613l98 159h280l-131 -159h-247zM509 0l-179 244v-244h-257v558h257v-209l163 209h282l-208 -250l233 -308h-291z" />
    <glyph glyph-name="uni045E" unicode="&#x45e;" horiz-adv-x="803" 
d="M552 -46c-39 -96 -98 -143 -205 -143h-237v162h129c16 0 24 5 24 17c0 9 -5 20 -16 44l-244 524h283l132 -364l119 364h263zM646 791c0 -64 -38 -182 -220 -182h-20c-187 0 -220 118 -220 182v1h172c1 -17 6 -58 58 -58h1c49 0 57 40 58 58h171v-1z" />
    <glyph glyph-name="uni045F" unicode="&#x45f;" horiz-adv-x="862" 
d="M790 0h-243v-118h-232v118h-242v558h257v-393h202v393h258v-558z" />
    <glyph glyph-name="uni0490" unicode="&#x490;" horiz-adv-x="789" 
d="M84 0v744h437v135h247v-323h-414v-556h-270z" />
    <glyph glyph-name="uni0491" unicode="&#x491;" horiz-adv-x="641" 
d="M73 0v558h311v111h235v-276h-289v-393h-257z" />
    <glyph glyph-name="uni0492" unicode="&#x492;" horiz-adv-x="816" 
d="M111 0v307h-96v136h96v301h684v-188h-414v-113h193v-136h-193v-307h-270z" />
    <glyph glyph-name="uni0493" unicode="&#x493;" horiz-adv-x="655" 
d="M87 0v208h-75v99h75v251h546v-165h-289v-86h142v-99h-142v-208h-257z" />
    <glyph glyph-name="uni0496" unicode="&#x496;" horiz-adv-x="1496" 
d="M592 0v318l-280 -318h-327l359 400l-347 344h317l278 -275v275h269v-275l278 275h312l-339 -336l196 -220h170v-313h-247v125h-90l-280 319v-319h-269z" />
    <glyph glyph-name="uni0497" unicode="&#x497;" horiz-adv-x="1182" 
d="M453 0v243l-178 -243h-281l228 300l-215 258h284l162 -208v208h257v-208l163 208h279l-209 -250l108 -143h128v-283h-235v118h-55l-179 243v-243h-257z" />
    <glyph glyph-name="uni049A" unicode="&#x49a;" horiz-adv-x="1020" 
d="M660 0l-307 332v-332h-269v744h269v-288l306 288h317l-362 -336l208 -220h180v-313h-246v125h-96z" />
    <glyph glyph-name="uni049B" unicode="&#x49b;" horiz-adv-x="804" 
d="M509 0l-179 244v-244h-257v558h257v-209l163 209h282l-208 -250l108 -143h126v-283h-234v118h-58z" />
    <glyph glyph-name="uni04A2" unicode="&#x4a2;" horiz-adv-x="1145" 
d="M731 0v282h-377v-282h-270v744h270v-262h377v262h269v-556h120v-313h-247v125h-142z" />
    <glyph glyph-name="uni04A3" unicode="&#x4a3;" horiz-adv-x="949" 
d="M330 0h-257v558h257v-193h233v193h257v-393h100v-283h-234v118h-123v200h-233v-200z" />
    <glyph glyph-name="uni04AE" unicode="&#x4ae;" horiz-adv-x="1002" 
d="M641 265v-265h-268v266l-388 478h328l205 -264l208 264h291z" />
    <glyph glyph-name="uni04AF" unicode="&#x4af;" horiz-adv-x="821" 
d="M542 0v-189h-257v191l-281 556h279l135 -301l134 301h265z" />
    <glyph glyph-name="uni04B0" unicode="&#x4b0;" horiz-adv-x="1002" 
d="M861 132h-220v-132h-268v132h-220v134h220l-388 478h328l205 -264l208 264h291l-375 -478h219v-134z" />
    <glyph glyph-name="uni04B1" unicode="&#x4b1;" horiz-adv-x="821" 
d="M542 0h145v-93h-145v-96h-257v96h-144v93h144v2l-281 556h279l135 -301l134 301h265z" />
    <glyph glyph-name="uni04B2" unicode="&#x4b2;" horiz-adv-x="1033" 
d="M692 0l-190 238l-189 -238h-318l303 386l-291 358h334l173 -219l174 219h307l-285 -358l156 -198h149v-313h-246v125h-77z" />
    <glyph glyph-name="uni04B3" unicode="&#x4b3;" horiz-adv-x="813" 
d="M519 0l-120 162l-119 -162h-282l217 286l-217 272h296l115 -153l114 153h277l-210 -271l92 -122h128v-283h-235v118h-56z" />
    <glyph glyph-name="uni04BA" unicode="&#x4ba;" horiz-adv-x="1054" 
d="M357 744v-264c60 7 138 14 205 14c286 0 422 -69 422 -306v-188h-269v152c0 118 -60 147 -210 147c-46 0 -119 -5 -148 -11v-288h-270v744h270z" />
    <glyph glyph-name="uni04BB" unicode="&#x4bb;" horiz-adv-x="886" 
d="M73 0v757h257v-284c30 34 101 100 236 100h10c167 0 239 -106 239 -212v-361h-258v279c0 58 -30 106 -111 106c-78 0 -116 -50 -116 -115v-270h-257z" />
    <glyph glyph-name="uni04C0" unicode="&#x4c0;" horiz-adv-x="438" 
d="M354 744v-744h-270v744h270z" />
    <glyph glyph-name="uni04CF" unicode="&#x4cf;" horiz-adv-x="404" 
d="M330 757v-757h-257v757h257z" />
    <glyph glyph-name="uni04D8" unicode="&#x4d8;" horiz-adv-x="1081" 
d="M515 -12c-307 0 -465 165 -465 376v79h702c-17 82 -80 125 -214 125c-139 0 -186 -37 -203 -71h-279c34 154 174 259 459 259h46c317 0 468 -166 468 -367v-30c0 -201 -152 -371 -468 -371h-46zM537 176c124 0 188 41 210 114h-409c22 -71 84 -114 199 -114z" />
    <glyph glyph-name="uni04D9" unicode="&#x4d9;" horiz-adv-x="878" 
d="M46 376c4 66 50 196 366 196h44c314 0 378 -162 378 -286v-14c0 -128 -66 -286 -367 -286h-45c-320 0 -378 157 -378 317v21h524c-11 60 -49 95 -142 95c-89 0 -106 -34 -110 -43h-270zM440 127c82 0 114 31 126 85h-249c1 -43 24 -85 123 -85z" />
    <glyph glyph-name="uni04E8" unicode="&#x4e8;" horiz-adv-x="1105" 
d="M530 757h45c397 0 479 -214 479 -368v-30c0 -152 -81 -372 -479 -372h-45c-396 0 -479 220 -479 372v30c1 154 83 368 479 368zM552 562c-134 0 -191 -51 -214 -107h429c-23 56 -81 107 -215 107zM553 184c137 0 194 56 215 115h-431c22 -59 80 -115 216 -115z" />
    <glyph glyph-name="uni04E9" unicode="&#x4e9;" horiz-adv-x="886" 
d="M426 -15c-343 0 -382 186 -382 285v14c0 98 39 289 381 289h35c354 0 382 -191 382 -288v-16c0 -98 -28 -284 -383 -284h-33zM439 416c-75 0 -111 -35 -126 -77h258c-15 42 -51 77 -124 77h-8zM439 145h8c71 0 107 37 123 78h-256c15 -41 50 -78 125 -78z" />
    <glyph glyph-name="uni2009" unicode="&#x2009;" horiz-adv-x="70" 
 />
    <glyph glyph-name="uni20B4" unicode="&#x20b4;" horiz-adv-x="1037" 
d="M1006 486v-83h-975v83h603c30 10 38 26 38 45c0 35 -26 59 -143 59h-8c-123 0 -145 -37 -148 -64h-285v6c0 104 60 222 414 222h42c324 0 406 -97 406 -225v-6c0 -11 -1 -24 -5 -37h61zM961 222c0 -91 -41 -234 -436 -234h-25c-366 0 -424 124 -425 245v10c0 9 1 17 3 25
h-47v85h975v-85h-628c-16 -11 -20 -24 -20 -40c0 -33 19 -71 153 -71h7c139 0 149 47 152 71h291v-6z" />
    <glyph glyph-name="uni20B4.lintab" 
d="M866 486v-83h-812v83h488c21 10 26 26 26 45c0 35 -19 59 -102 59h-5c-88 0 -102 -37 -105 -64h-255v6c0 104 51 222 346 222h35c270 0 337 -97 337 -225v-6c0 -11 -1 -24 -4 -37h51zM828 222c0 -91 -34 -234 -362 -234h-21c-305 0 -353 124 -354 245v10c0 9 1 17 2 25
h-39v85h812v-85h-505c-11 -11 -14 -24 -14 -40c0 -33 13 -71 108 -71h5c100 0 107 47 109 71h259v-6z" />
    <glyph glyph-name="uni20B8" unicode="&#x20b8;" horiz-adv-x="957" 
d="M46 744h865v-83h-865v83zM911 403h-298v-403h-269v403h-298v205h865v-205z" />
    <glyph glyph-name="uni20B8.lintab" 
d="M60 744h801v-83h-801v83zM861 403h-267v-403h-268v403h-266v205h801v-205z" />
    <glyph glyph-name="uni20BD" unicode="&#x20bd;" horiz-adv-x="1067" 
d="M42 173h87v49h-87v83h87v439h543c277 0 349 -104 349 -251v-13c0 -148 -75 -258 -349 -258h-273v-49h368v-86h-368v-87h-270v87h-87v86zM399 554v-142h248c73 0 94 32 94 71v2c0 36 -21 69 -94 69h-248z" />
    <glyph glyph-name="uni20BD.lintab" 
d="M867 480c0 -148 -73 -258 -337 -258h-146v-49h243v-86h-243v-87h-254v87h-84v86h84v49h-84v83h84v439h400c268 0 337 -104 337 -251v-13zM384 567v-165h123c75 0 96 37 96 83v2c0 42 -21 80 -96 80h-123z" />
    <glyph glyph-name="uni2116" unicode="&#x2116;" horiz-adv-x="1640" 
d="M1347 755h20c239 0 258 -127 258 -188v-11c0 -63 -18 -185 -258 -185h-20c-230 0 -259 122 -259 186v9c0 62 29 189 259 189zM1450 566c0 31 -14 73 -94 73c-76 0 -93 -42 -93 -73v-3c0 -30 16 -74 92 -74c81 0 95 44 95 74v3zM1100 212v119h509v-119h-509zM764 0
l-417 429v-429h-263v744h275l401 -416v416h263v-744h-259z" />
    <glyph glyph-name="yen.lintab" 
d="M824 155h-227v-155h-262v155h-228v85h228v53h-228v84h183l-321 367h315l192 -238l197 238h278l-310 -367h183v-84h-227v-53h227v-85z" />
    <glyph glyph-name="zero.lintab" 
d="M445 756h32c335 0 392 -224 392 -367v-30c0 -141 -57 -371 -392 -371h-32c-321 0 -394 230 -394 371v30c0 144 73 367 394 367zM598 383c0 77 -26 175 -138 175c-114 0 -138 -98 -138 -175v-12c0 -79 29 -179 139 -179c111 0 137 100 137 179v12z" />
    <glyph glyph-name="space" unicode=" " horiz-adv-x="302" 
 />
    </font>
</defs>
</svg>
